Symbols-Bold.sfdir
StartChar: uF02B3
Encoding: 983731 983731 391
Width: 1000
Flags: W
LayerCount: 2
Fore
SplineSet
410 -170 m 1
 93 -170 l 1
 156.333007812 -108.666992188 205.5 -37.1669921875 240.5 44.5 c 128
 275.5 126.166992188 293 211.333007812 293 300 c 128
 293 388.666992188 275.5 473.833007812 240.5 555.5 c 128
 205.5 637.166992188 156.333007812 708.666992188 93 770 c 1
 410 770 l 1
 410 -170 l 1
EndSplineSet
Colour: ff
EndChar
StartChar: uF02BF
Encoding: 983743 983743 234
Width: 1000
VWidth: 1000
Flags: MW
LayerCount: 2
Fore
SplineSet
952 216 m 0
 952 155 934 101 899 56 c 0
 861 7 810 -19 750 -19 c 0
 706 -19 661 -3 617 20 c 0
 578 41 543 77 515 112 c 2
 492 140 l 1
 428 39 342 -19 246 -19 c 0
 187 -19 138 7 100 57 c 0
 66 102 48 156 48 216 c 0
 48 276 66 330 101 375 c 0
 140 424 191 450 250 450 c 0
 294 450 338 433 382 410 c 0
 423 388 457 360 485 326 c 2
 508 292 l 1
 573 392 658 450 754 450 c 0
 813 450 862 424 900 375 c 0
 934 330 952 276 952 216 c 0
910 232 m 0
 910 275 897 313 871 346 c 0
 843 382 809 399 764 399 c 0
 682 399 609 350 544 252 c 1
 573 220 573 219 609 179 c 0
 635 149 659 126 680 109 c 0
 705 89 733 80 766 80 c 0
 808 80 842 95 870 127 c 0
 897 158 910 192 910 232 c 0
456 181 m 1
 436 203 413 228 392 254 c 0
 366 284 342 307 320 325 c 0
 295 345 267 354 234 354 c 0
 191 354 157 339 130 306 c 0
 103 275 90 240 90 200 c 0
 90 157 103 120 129 86 c 0
 158 49 192 32 236 32 c 0
 318 32 391 82 456 181 c 1
EndSplineSet
Colour: ff
EndChar
StartChar: uF02C0
Encoding: 983744 983744 235
Width: 1000
Flags: MW
LayerCount: 2
Fore
SplineSet
248 150 m 27
 248 193 282 228 325 228 c 27
 367 228 401 192 401 150 c 27
 401 108 367 72 325 72 c 27
 282 72 248 107 248 150 c 27
598 150 m 3
 598 198 627 228 675 228 c 3
 723 228 751 198 751 150 c 3
 751 102 722 72 675 72 c 3
 628 72 598 102 598 150 c 3
423 450 m 27
 423 493 457 528 500 528 c 27
 542 528 576 492 576 450 c 27
 576 408 542 372 500 372 c 27
 457 372 423 407 423 450 c 27
EndSplineSet
Colour: 8080ff
EndChar
StartChar: uF02C1
Encoding: 983745 983745 236
Width: 1000
VWidth: 1000
Flags: MW
LayerCount: 2
Fore
SplineSet
900 356 m 1
 820 356 l 1
 820 534 l 1
 678 394 l 1
 727 335 742 276 742 199 c 0
 742 110 710 34 648 -29 c 0
 586 -92 509 -123 420 -123 c 256
 331 -123 255 -92 193 -29 c 0
 131 34 100 110 100 199 c 256
 100 288 131 364 193 426 c 0
 255 488 331 520 420 520 c 0
 497 520 557 506 616 457 c 1
 756 597 l 1
 578 597 l 1
 578 679 l 1
 870 679 l 1
 900 647 l 1
 900 356 l 1
654 199 m 256
 654 264 632 319 586 365 c 0
 540 411 485 433 420 433 c 256
 355 433 301 411 255 365 c 0
 209 319 186 264 186 199 c 256
 186 134 209 79 254 33 c 0
 299 -13 355 -36 420 -36 c 256
 485 -36 540 -13 586 33 c 0
 632 79 654 134 654 199 c 256
EndSplineSet
Colour: ff
EndChar
StartChar: uF02C2
Encoding: 983746 983746 235
Width: 1000
Flags: MW
LayerCount: 2
Fore
SplineSet
260 96 m 1
 260 164 l 1
 466 164 l 1
 466 272 l 1
 407 281 358 307 319 352 c 0
 280 397 260 450 260 510 c 0
 260 576 283 633 330 680 c 0
 377 727 434 750 500 750 c 0
 566 750 623 727 670 680 c 0
 717 633 740 576 740 510 c 0
 740 450 720 397 681 352 c 0
 642 307 593 281 534 272 c 1
 534 164 l 1
 740 164 l 1
 740 96 l 1
 534 96 l 1
 534 -90 l 1
 466 -90 l 1
 466 96 l 1
 260 96 l 1
328 510 m 0
 328 463 344 422 378 388 c 0
 412 354 453 338 500 338 c 0
 547 338 588 354 622 388 c 0
 656 422 672 463 672 510 c 0
 672 557 656 598 622 632 c 0
 588 666 547 682 500 682 c 0
 453 682 412 666 378 632 c 0
 344 598 328 557 328 510 c 0
EndSplineSet
Colour: ff
EndChar
StartChar: uF02D1
Encoding: 983761 983761 200
Width: 1000
VWidth: 940
Flags: MW
LayerCount: 2
Fore
SplineSet
500 182 m 1
 686 46 l 1
 615 265 l 1
 801 400 l 1
 571 400 l 1
 500 618 l 1
 429 400 l 1
 199 400 l 1
 385 265 l 1
 314 46 l 1
 500 182 l 1
500 114 m 1
 210 -98 l 1
 320 244 l 1
 30 455 l 1
 389 455 l 1
 500 796 l 1
 611 455 l 1
 970 455 l 1
 680 244 l 1
 790 -98 l 1
 500 114 l 1
EndSplineSet
Colour: ff
EndChar
StartChar: uF02D4
Encoding: 983764 983764 203
Width: 1000
VWidth: 940
Flags: MW
LayerCount: 2
Fore
SplineSet
500 -90 m 0
 391 -90 297 -51 220 26 c 0
 143 103 105 196 105 305 c 0
 105 414 143 507 220 584 c 0
 297 661 391 700 500 700 c 0
 609 700 703 661 780 584 c 0
 857 507 895 414 895 305 c 0
 895 196 857 103 780 26 c 0
 703 -51 609 -90 500 -90 c 0
EndSplineSet
Colour: ff
EndChar
StartChar: uF02D5
Encoding: 983765 983765 204
Width: 1000
VWidth: 940
Flags: MW
LayerCount: 2
Fore
SplineSet
500 122 m 0
 551 122 594 140 629 176 c 0
 664 212 682 254 682 305 c 0
 682 356 664 398 629 434 c 0
 594 470 551 488 500 488 c 0
 449 488 406 470 370 434 c 0
 334 398 317 356 317 305 c 0
 317 254 334 212 370 176 c 0
 406 140 449 122 500 122 c 0
500 62 m 0
 433 62 376 86 328 133 c 0
 280 180 257 238 257 305 c 0
 257 372 280 430 328 477 c 0
 376 524 433 548 500 548 c 0
 567 548 624 524 671 477 c 0
 718 430 742 372 742 305 c 0
 742 238 718 180 671 133 c 0
 624 86 567 62 500 62 c 0
500 -90 m 0
 391 -90 297 -51 220 26 c 0
 143 103 105 196 105 305 c 0
 105 414 143 507 220 584 c 0
 297 661 391 700 500 700 c 0
 609 700 703 661 780 584 c 0
 857 507 895 414 895 305 c 0
 895 196 857 103 780 26 c 0
 703 -51 609 -90 500 -90 c 0
500 -30 m 0
 593 -30 672 3 737 68 c 0
 802 133 835 212 835 305 c 0
 835 398 802 477 737 542 c 0
 672 607 593 640 500 640 c 0
 407 640 328 607 263 542 c 0
 198 477 165 398 165 305 c 0
 165 212 198 133 263 68 c 0
 328 3 407 -30 500 -30 c 0
EndSplineSet
Colour: ff
EndChar
StartChar: uF02D6
Encoding: 983766 983766 205
Width: 1000
VWidth: 940
Flags: MW
LayerCount: 2
Fore
SplineSet
500 690 m 1
 115 305 l 1
 500 -80 l 1
 885 305 l 1
 500 690 l 1
500 -165 m 1
 30 305 l 1
 500 775 l 1
 970 305 l 1
 500 -165 l 1
EndSplineSet
Colour: ff
EndChar
StartChar: uF02D9
Encoding: 983769 983769 208
Width: 1000
Flags: MW
LayerCount: 2
Fore
SplineSet
135 -60 m 1
 135 670 l 1
 865 670 l 1
 865 -60 l 1
 135 -60 l 1
EndSplineSet
Colour: ff
EndChar
StartChar: uF02DC
Encoding: 983772 983772 211
Width: 1000
VWidth: 1000
Flags: MW
LayerCount: 2
Fore
SplineSet
934 648 m 1
 500 -49 l 1
 66 648 l 1
 934 648 l 1
829 590 m 1
 171 590 l 1
 500 61 l 1
 829 590 l 1
EndSplineSet
Colour: ff
EndChar
StartChar: uF02E0
Encoding: 983776 983776 237
Width: 1000
VWidth: 940
Flags: MW
LayerCount: 2
Fore
SplineSet
153 282 m 2
 153 328 l 2
 153 334 159 338 163 338 c 2
 761 338 l 1
 572 503 l 2
 567 507 569 515 572 518 c 2
 600 549 l 2
 604 553 610 553 614 550 c 2
 884 313 l 2
 889 309 888 301 884 297 c 2
 614 60 l 2
 610 56 603 57 600 61 c 2
 572 92 l 2
 568 96 569 104 572 107 c 2
 761 272 l 1
 163 272 l 2
 157 272 153 278 153 282 c 2
EndSplineSet
Colour: ff
EndChar
StartChar: uF02E1
Encoding: 983777 983777 240
Width: 1000
VWidth: 940
Flags: MW
LayerCount: 2
Fore
SplineSet
238 273 m 1
 428 107 l 2
 433 103 431 95 428 92 c 2
 400 61 l 2
 396 57 390 57 386 60 c 2
 116 297 l 2
 111 301 112 309 116 313 c 2
 386 551 l 2
 391 555 398 553 401 550 c 2
 429 518 l 2
 433 514 432 506 428 503 c 2
 239 338 l 1
 837 338 l 2
 843 338 847 332 847 328 c 2
 847 283 l 2
 847 277 841 273 837 273 c 2
 238 273 l 1
EndSplineSet
Colour: ff
EndChar
StartChar: uF02E3
Encoding: 983779 983779 240
Width: 1000
VWidth: 940
Flags: MW
LayerCount: 2
Fore
SplineSet
532 43 m 1
 698 233 l 2
 702 238 710 236 713 233 c 2
 744 205 l 2
 748 201 748 195 745 191 c 2
 508 -79 l 2
 504 -84 496 -83 492 -79 c 2
 254 191 l 2
 250 195 251 202 255 205 c 2
 286 233 l 2
 290 237 298 236 301 233 c 2
 467 43 l 1
 467 642 l 2
 467 648 473 652 477 652 c 2
 522 652 l 2
 528 652 532 646 532 642 c 2
 532 43 l 1
EndSplineSet
Colour: ff
EndChar
StartChar: uF02E5
Encoding: 983781 983781 243
Width: 1000
Flags: MW
LayerCount: 2
Fore
SplineSet
242 260 m 0
 242 332 268 393 321 441 c 0
 374 489 441 513 522 513 c 2
 748 513 l 2
 754 513 758 507 758 503 c 2
 758 462 l 2
 758 456 752 452 748 452 c 2
 526 452 l 2
 464 452 414 436 373 403 c 0
 335 372 314 334 307 289 c 1
 748 289 l 2
 754 289 758 283 758 279 c 2
 758 241 l 2
 758 235 752 231 748 231 c 2
 307 231 l 1
 314 185 335 147 373 117 c 0
 414 84 464 68 526 68 c 2
 748 68 l 2
 754 68 758 62 758 58 c 2
 758 17 l 2
 758 11 752 7 748 7 c 2
 522 7 l 2
 441 7 374 31 321 79 c 0
 268 127 242 188 242 260 c 0
EndSplineSet
Colour: ff
EndChar
StartChar: uF02E6
Encoding: 983782 983782 244
Width: 1000
VWidth: 1000
Flags: MW
LayerCount: 2
Fore
SplineSet
758 284 m 0
 758 201 726 130 663 74 c 0
 602 19 530 -8 446 -8 c 0
 268 -8 l 0
 252 -8 242 4 242 20 c 0
 242 36 252 48 268 48 c 0
 443 48 l 0
 507 48 564 68 617 108 c 0
 671 150 699 199 701 256 c 1
 268 256 l 0
 252 256 242 268 242 284 c 0
 242 300 252 312 268 312 c 0
 701 312 l 1
 699 370 671 418 617 460 c 0
 564 500 507 520 443 520 c 0
 268 520 l 0
 252 520 242 532 242 548 c 0
 242 564 252 576 268 576 c 0
 446 576 l 0
 530 576 603 549 663 495 c 0
 726 438 758 367 758 284 c 0
EndSplineSet
Colour: ff
EndChar
StartChar: uF02E7
Encoding: 983783 983783 245
Width: 1000
VWidth: 1000
Flags: MW
LayerCount: 2
Fore
SplineSet
813 20 m 0
 813 3 802 -8 786 -8 c 0
 498 -8 l 0
 416 -8 344 20 283 75 c 0
 220 132 187 202 187 284 c 0
 187 366 219 436 282 493 c 0
 343 548 416 576 498 576 c 0
 786 576 l 0
 802 576 813 565 813 548 c 0
 813 531 802 520 786 520 c 0
 502 520 l 0
 434 520 373 498 321 454 c 1
 268 407 242 351 242 284 c 0
 242 217 268 161 321 114 c 1
 372 70 433 48 502 48 c 0
 786 48 l 0
 802 48 813 37 813 20 c 0
813 -126 m 0
 813 -142 804 -154 788 -154 c 0
 214 -154 l 0
 198 -154 187 -143 187 -126 c 0
 187 -109 198 -98 214 -98 c 0
 788 -98 l 0
 804 -98 813 -110 813 -126 c 0
EndSplineSet
Colour: ff
EndChar
StartChar: uF02ED
Encoding: 983789 983789 251
Width: 1000
Flags: MW
LayerCount: 2
Fore
SplineSet
254 1 m 0
 254 2 254 3 254 3 c 2
 457 563 l 2
 459 567 463 570 466 570 c 2
 498 570 l 29
 534 570 l 2
 538 570 542 566 543 563 c 2
 746 3 l 2
 748 -2 745 -8 739 -10 c 0
 738 -10 736 -10 736 -10 c 2
 686 -10 l 2
 682 -10 677 -6 676 -3 c 2
 500 502 l 1
 323 -3 l 2
 322 -7 318 -10 314 -10 c 2
 264 -10 l 2
 258 -10 254 -5 254 1 c 0
EndSplineSet
Colour: ff
EndChar
StartChar: uF02F1
Encoding: 983793 983793 254
Width: 1000
VWidth: 1000
Flags: MW
LayerCount: 2
Fore
SplineSet
983 284 m 0
 983 277 978 270 971 267 c 0
 906 239 856 205 817 167 c 0
 780 131 750 91 728 47 c 0
 725 39 719 28 712 13 c 0
 708 6 694 1 676 1 c 0
 666 2 659 10 658 20 c 0
 658 34 671 61 695 99 c 0
 715 130 733 155 747 164 c 1
 253 164 l 1
 266 157 284 132 305 99 c 0
 329 61 342 34 341 20 c 0
 340 8 325 1 304 1 c 0
 298 1 292 6 288 12 c 0
 284 20 280 32 273 47 c 0
 245 103 206 151 157 192 c 0
 120 223 77 248 30 267 c 0
 23 270 17 277 17 284 c 0
 17 291 23 298 30 302 c 0
 40 306 55 313 75 322 c 0
 164 367 229 433 273 522 c 0
 281 536 281 536 288 555 c 0
 292 563 306 567 324 567 c 0
 334 566 341 558 341 548 c 0
 341 534 329 507 305 470 c 0
 284 438 266 412 253 404 c 1
 747 404 l 1
 733 414 714 440 695 470 c 0
 671 508 658 534 658 548 c 0
 659 560 675 567 696 567 c 0
 702 567 708 562 712 556 c 0
 726 526 735 508 740 500 c 0
 750 482 761 465 774 448 c 0
 817 392 870 349 933 319 c 0
 942 316 956 310 972 302 c 0
 978 298 983 291 983 284 c 0
892 284 m 1
 856 299 819 325 790 354 c 1
 210 354 l 1
 181 325 144 299 108 284 c 1
 144 269 181 243 210 214 c 1
 790 214 l 1
 819 243 856 269 892 284 c 1
EndSplineSet
Colour: ff
EndChar
StartChar: uF02F2
Encoding: 983794 983794 255
Width: 1000
VWidth: 1000
Flags: MW
LayerCount: 2
Fore
SplineSet
786 674 m 0
 786 666 699 441 526 -13 c 1
 521 -24 512 -30 500 -30 c 0
 489 -30 479 -24 475 -13 c 1
 301 443 214 667 214 674 c 0
 214 691 225 702 242 702 c 0
 254 702 264 696 268 685 c 1
 353 458 l 1
 647 458 l 1
 733 685 l 1
 737 696 746 702 758 702 c 0
 775 702 786 691 786 674 c 0
625 404 m 1
 375 404 l 1
 500 75 l 1
 625 404 l 1
EndSplineSet
Colour: ff
EndChar
StartChar: uF02F6
Encoding: 983798 983798 259
Width: 1000
VWidth: 1000
Flags: MW
LayerCount: 2
Fore
SplineSet
854 284 m 0
 854 262 848 244 829 244 c 0
 810 244 803 262 804 284 c 1
 804 369 775 441 716 500 c 0
 657 559 585 588 500 588 c 0
 415 588 344 559 285 500 c 0
 226 441 196 369 196 284 c 0
 196 262 191 244 172 244 c 0
 153 244 146 262 146 284 c 0
 146 382 181 467 250 535 c 0
 319 603 402 638 500 638 c 0
 598 638 683 603 751 535 c 0
 819 467 854 382 854 284 c 0
EndSplineSet
Colour: ff
EndChar
StartChar: uF02F7
Encoding: 983799 983799 260
Width: 1000
VWidth: 1000
Flags: M
LayerCount: 2
Fore
SplineSet
745 396 m 0
 745 294 724 203 682 124 c 0
 630 27 558 -22 466 -22 c 0
 407 -22 357 -1 316 40 c 0
 275 81 255 132 255 192 c 0
 255 255 276 312 318 363 c 0
 371 426 434 457 509 457 c 0
 544 457 564 448 586 434 c 0
 598 427 625 400 628 390 c 1
 629 390 l 1
 631 411 631 450 631 470 c 0
 631 516 618 560 598 600 c 0
 574 649 539 685 492 685 c 0
 439 685 388 665 368 612 c 1
 371 612 376 611 379 611 c 0
 390 611 411 605 418 596 c 0
 425 587 428 574 428 561 c 0
 428 549 425 534 418 525 c 0
 411 516 390 511 379 511 c 0
 367 511 340 517 332 528 c 0
 324 539 319 551 319 566 c 0
 319 576 322 592 328 609 c 0
 354 680 408 715 489 716 c 0
 569 716 633 681 680 612 c 0
 723 551 745 479 745 396 c 0
610 269 m 0
 610 309 602 342 585 369 c 0
 566 399 540 424 507 424 c 0
 459 424 423 386 398 333 c 0
 389 314 382 286 377 248 c 0
 372 216 370 186 371 159 c 0
 371 121 379 89 395 66 c 0
 413 40 438 17 470 17 c 0
 516 17 552 56 578 113 c 0
 599 159 610 211 610 269 c 0
EndSplineSet
Colour: ff
EndChar
StartChar: uF02F8
Encoding: 983800 983800 261
Width: 1000
VWidth: 1000
Flags: MW
LayerCount: 2
Fore
SplineSet
866 671 m 0
 866 668 865 665 864 662 c 2
 528 -15 l 2
 522 -28 513 -34 500 -34 c 256
 487 -34 478 -28 472 -15 c 2
 136 662 l 2
 135 665 134 668 134 671 c 0
 134 679 139 683 149 683 c 2
 851 683 l 2
 861 683 866 679 866 671 c 0
772 581 m 1
 307 581 l 1
 538 113 l 1
 772 581 l 1
EndSplineSet
Colour: ff
EndChar
StartChar: uF02FB
Encoding: 983803 983803 262
Width: 1000
VWidth: 1000
Flags: MW
LayerCount: 2
Fore
SplineSet
965 15 m 0
 964 -1 953 -12 937 -13 c 0
 933 -13 929 -12 926 -10 c 2
 356 259 l 2
 346 264 338 274 338 284 c 0
 338 294 346 304 356 309 c 2
 927 579 l 2
 930 580 934 581 937 581 c 0
 953 580 964 569 965 553 c 0
 965 542 958 532 948 528 c 2
 421 284 l 1
 948 40 l 2
 958 36 965 26 965 15 c 0
662 15 m 0
 661 -1 650 -12 634 -13 c 0
 630 -13 626 -12 623 -10 c 2
 53 259 l 2
 43 264 35 274 35 284 c 0
 35 294 43 304 53 309 c 2
 624 579 l 2
 627 580 631 581 634 581 c 0
 650 580 661 569 662 553 c 0
 662 542 655 532 645 528 c 2
 118 284 l 1
 645 40 l 2
 655 36 662 26 662 15 c 0
EndSplineSet
Colour: ff
EndChar
StartChar: uF02FC
Encoding: 983804 983804 263
Width: 1000
Flags: MW
LayerCount: 2
Fore
SplineSet
95 -20 m 2
 95 28 l 2
 95 31 97 34 100 36 c 2
 488 290 l 1
 100 544 l 2
 97 546 95 549 95 552 c 2
 95 600 l 2
 95 606 100 610 106 610 c 0
 108 610 109 609 110 608 c 2
 543 323 l 2
 546 321 548 318 548 315 c 2
 548 292 l 1
 548 265 l 2
 548 262 546 259 543 257 c 2
 110 -28 l 2
 105 -31 99 -30 96 -25 c 0
 95 -24 95 -21 95 -20 c 2
452 -20 m 2
 452 28 l 2
 452 31 454 34 457 36 c 2
 844 290 l 1
 457 544 l 2
 454 546 452 549 452 552 c 2
 452 600 l 2
 452 606 457 610 463 610 c 0
 465 610 466 609 467 608 c 2
 900 323 l 2
 903 321 905 318 905 315 c 2
 905 290 l 5
 905 265 l 2
 905 262 903 259 900 257 c 2
 467 -28 l 2
 462 -31 456 -30 453 -25 c 0
 452 -24 452 -21 452 -20 c 2
EndSplineSet
Colour: ff
EndChar
StartChar: uF02FE
Encoding: 983806 983806 244
Width: 1000
Flags: MW
LayerCount: 2
Fore
SplineSet
688 107 m 0
 731 107 765 121 790 148 c 0
 815 175 828 212 828 260 c 0
 828 308 816 344 792 371 c 0
 768 398 737 412 696 412 c 0
 656 412 622 398 593 370 c 0
 564 342 543 302 529 249 c 0
 513 186 486 137 448 100 c 0
 410 63 361 45 304 45 c 0
 246 45 199 65 163 105 c 0
 127 145 108 197 108 260 c 0
 108 323 127 375 165 415 c 0
 203 455 252 475 312 475 c 0
 318 475 322 469 322 465 c 2
 322 423 l 2
 322 417 316 413 312 413 c 0
 269 413 235 399 210 372 c 0
 185 345 172 308 172 260 c 0
 172 213 184 177 208 149 c 0
 232 122 265 108 306 108 c 0
 346 108 379 122 407 150 c 0
 435 178 457 218 471 271 c 0
 487 334 514 383 552 420 c 0
 590 457 639 475 696 475 c 0
 754 475 801 455 837 415 c 0
 873 375 892 323 892 260 c 0
 892 197 873 145 835 105 c 0
 797 65 748 45 688 45 c 0
 682 45 678 51 678 55 c 2
 678 97 l 2
 678 103 684 107 688 107 c 0
EndSplineSet
Colour: ff
EndChar
StartChar: uF02FF
Encoding: 983807 983807 266
Width: 1000
VWidth: 1000
Flags: M
LayerCount: 2
Fore
SplineSet
839 -11 m 1
 818 -17 805 -19 795 -19 c 0
 713 -19 639 28 579 112 c 1
 564 139 l 1
 512 39 435 -19 340 -19 c 0
 283 -19 236 9 203 60 c 0
 174 104 160 157 159 216 c 0
 159 275 174 327 204 372 c 0
 239 423 286 450 343 450 c 0
 395 450 443 429 485 396 c 0
 513 374 546 337 574 290 c 1
 625 392 703 450 798 450 c 0
 811 450 823 449 838 443 c 1
 838 401 l 1
 822 401 815 402 807 402 c 0
 763 402 722 384 684 348 c 0
 652 318 627 288 607 247 c 1
 652 184 l 2
 678 147 700 121 718 105 c 0
 747 79 777 66 809 66 c 0
 814 66 821 67 838 66 c 1
 839 -11 l 1
531 182 m 1
 514 205 495 232 477 258 c 0
 455 288 434 312 414 329 c 0
 389 350 361 360 329 360 c 0
 288 360 258 344 233 308 c 0
 212 276 201 241 201 200 c 0
 201 157 212 119 233 86 c 0
 258 47 289 29 331 29 c 0
 416 29 482 80 531 182 c 1
EndSplineSet
Colour: ff
EndChar
StartChar: uF0300
Encoding: 983808 983808 267
Width: 1000
Flags: MW
LayerCount: 2
Fore
SplineSet
752 450 m 27
 752 407 718 372 675 372 c 27
 633 372 599 408 599 450 c 27
 599 492 633 528 675 528 c 27
 718 528 752 493 752 450 c 27
402 450 m 3
 402 402 373 372 325 372 c 3
 277 372 249 402 249 450 c 3
 249 498 278 528 325 528 c 3
 372 528 402 498 402 450 c 3
577 150 m 27
 577 107 543 72 500 72 c 27
 458 72 424 108 424 150 c 27
 424 192 458 228 500 228 c 27
 543 228 577 193 577 150 c 27
EndSplineSet
Colour: 8080ff
EndChar
StartChar: uF0301
Encoding: 983809 983809 268
Width: 1000
VWidth: 1000
Flags: MW
LayerCount: 2
Fore
SplineSet
767 690 m 0
 766 660 748 642 717 641 c 0
 687 642 669 660 668 690 c 0
 669 718 684 733 704 734 c 1
 704 738 690 745 678 745 c 0
 645 745 626 730 612 694 c 0
 600 666 592 623 586 565 c 0
 583 520 580 474 576 428 c 0
 566 305 546 175 517 -3 c 0
 508 -58 491 -104 464 -140 c 0
 429 -188 404 -214 351 -214 c 0
 322 -214 295 -206 273 -192 c 0
 247 -175 233 -150 233 -121 c 0
 234 -91 252 -73 282 -73 c 0
 313 -74 331 -91 332 -121 c 0
 331 -149 315 -164 295 -165 c 1
 297 -169 302 -175 320 -175 c 0
 358 -175 381 -162 397 -126 c 0
 413 -94 424 -28 432 72 c 0
 444 217 458 322 474 427 c 0
 480 468 487 516 496 570 c 0
 506 629 523 676 546 711 c 0
 577 757 599 782 648 782 c 0
 677 782 704 774 726 760 c 0
 752 743 767 719 767 690 c 0
EndSplineSet
Colour: ff
EndChar
StartChar: uF0302
Encoding: 983810 983810 269
Width: 1000
VWidth: 1000
Flags: MW
LayerCount: 2
Fore
SplineSet
897 690 m 0
 896 660 878 642 847 641 c 0
 817 642 799 660 798 690 c 0
 799 718 814 733 834 734 c 1
 834 738 820 745 808 745 c 0
 775 745 756 730 742 694 c 0
 730 666 722 623 716 565 c 0
 713 520 710 474 706 428 c 0
 696 305 676 175 647 -3 c 0
 638 -58 621 -104 594 -140 c 0
 559 -188 534 -214 481 -214 c 0
 452 -214 425 -206 403 -192 c 0
 377 -175 363 -150 363 -121 c 0
 364 -91 382 -73 412 -73 c 0
 443 -74 461 -91 462 -121 c 0
 461 -149 445 -164 425 -165 c 1
 427 -169 432 -175 450 -175 c 0
 488 -175 511 -162 527 -126 c 0
 543 -94 554 -28 562 72 c 0
 574 217 588 322 604 427 c 0
 610 468 617 516 626 570 c 0
 636 629 653 676 676 711 c 0
 707 757 729 782 778 782 c 0
 807 782 834 774 856 760 c 0
 882 743 897 719 897 690 c 0
637 690 m 0
 636 660 618 642 587 641 c 0
 557 642 539 660 538 690 c 0
 539 718 554 733 574 734 c 1
 574 738 560 745 548 745 c 0
 515 745 496 730 482 694 c 0
 470 666 462 623 456 565 c 0
 453 520 450 474 446 428 c 0
 436 305 416 175 387 -3 c 0
 378 -58 361 -104 334 -140 c 0
 299 -188 274 -214 221 -214 c 0
 192 -214 165 -206 143 -192 c 0
 117 -175 103 -150 103 -121 c 0
 104 -91 122 -73 152 -73 c 0
 183 -74 201 -91 202 -121 c 0
 201 -149 185 -164 165 -165 c 1
 167 -169 172 -175 190 -175 c 0
 228 -175 251 -162 267 -126 c 0
 283 -94 294 -28 302 72 c 0
 314 217 328 322 344 427 c 0
 350 468 357 516 366 570 c 0
 376 629 393 676 416 711 c 0
 447 757 469 782 518 782 c 0
 547 782 574 774 596 760 c 0
 622 743 637 719 637 690 c 0
EndSplineSet
Colour: ff
EndChar
StartChar: uF0305
Encoding: 983813 983813 270
Width: 1000
VWidth: 1000
Flags: MW
LayerCount: 2
Fore
SplineSet
665 83 m 2
 665 76 662 72 655 70 c 2
 617 59 l 1
 617 -118 l 1
 576 -118 l 1
 576 48 l 1
 424 4 l 1
 424 -191 l 1
 383 -191 l 1
 383 -7 l 1
 345 -19 l 2
 338 -21 335 -19 335 -12 c 2
 335 91 l 2
 335 98 338 102 345 104 c 2
 383 115 l 1
 383 387 l 1
 345 376 l 2
 338 374 335 376 335 383 c 2
 335 486 l 2
 335 493 338 497 345 499 c 2
 383 510 l 1
 383 687 l 1
 424 687 l 1
 424 521 l 1
 576 565 l 1
 576 760 l 1
 617 760 l 1
 617 576 l 1
 655 587 l 2
 662 589 665 587 665 581 c 2
 665 478 l 2
 665 471 662 467 655 465 c 2
 617 454 l 1
 617 182 l 1
 655 193 l 2
 662 195 665 193 665 186 c 2
 665 83 l 2
576 170 m 1
 576 442 l 1
 424 399 l 1
 424 126 l 1
 576 170 l 1
EndSplineSet
Colour: ff
EndChar
StartChar: uF0306
Encoding: 983814 983814 243
Width: 1000
VWidth: 940
Flags: MW
LayerCount: 2
Fore
SplineSet
278 -70 m 1
 278 690 l 1
 346 690 l 1
 346 384 l 1
 414 435 483 460 556 460 c 0
 608 460 649 446 678 418 c 0
 707 390 722 353 722 305 c 0
 722 220 683 145 606 80 c 0
 529 15 420 -35 278 -70 c 1
346 18 m 1
 420 43 476 79 515 124 c 0
 554 169 574 220 574 277 c 0
 574 342 544 375 484 375 c 0
 439 375 393 355 346 314 c 1
 346 18 l 1
EndSplineSet
Colour: ff
EndChar
StartChar: uF030B
Encoding: 983819 983819 273
Width: 1000
VWidth: 1000
Flags: MW
LayerCount: 2
Fore
SplineSet
980 284 m 256
 980 150.666666667 933.333333333 37.3333333333 840 -56 c 0
 746.666666667 -149.333333333 633.333333333 -196 500 -196 c 256
 366.666666667 -196 253.333333333 -149.333333333 160 -56 c 0
 66.6666666667 37.3333333333 20 150.666666667 20 284 c 256
 20 417.333333333 66.6666666667 530.833333333 160 624.5 c 0
 253.333333333 718.166666667 366.666666667 765 500 765 c 256
 633.333333333 765 746.666666667 718.166666667 840 624.5 c 0
 933.333333333 530.833333333 980 417.333333333 980 284 c 256
914.719726562 284.01953125 m 256
 914.719726562 399.219726562 874.400390625 497.139648438 793.759765625 577.780273438 c 0
 713.120117188 658.419921875 615.200195312 698.740234375 500 698.740234375 c 0
 384.799804688 698.740234375 286.879882812 658.419921875 206.240234375 577.780273438 c 0
 125.599609375 497.139648438 85.2802734375 399.219726562 85.2802734375 284.01953125 c 256
 85.2802734375 168.8203125 125.599609375 71.0595703125 206.240234375 -9.259765625 c 0
 286.879882812 -89.580078125 384.799804688 -129.740234375 500 -129.740234375 c 0
 615.200195312 -129.740234375 713.120117188 -89.580078125 793.759765625 -9.259765625 c 0
 874.400390625 71.0595703125 914.719726562 168.8203125 914.719726562 284.01953125 c 256
EndSplineSet
Colour: ff
EndChar
StartChar: uF1D36
Encoding: 990518 990518 274
Width: 1000
VWidth: 1000
Flags: MW
LayerCount: 2
Fore
SplineSet
728 591 m 1
 671 534 l 1
 545 660 l 1
 544 461 l 1
 620 454 673 422 727 368 c 0
 790 305 821 229 822 141 c 0
 823 53 790 -24 727 -87 c 256
 664 -150 588 -182 500 -181 c 0
 412 -180 336 -149 273 -86 c 256
 210 -23 178 53 178 141 c 0
 178 229 209 305 272 368 c 0
 326 422 379 455 455 462 c 1
 455 660 l 1
 330 534 l 1
 272 592 l 1
 478 798 l 1
 522 797 l 1
 728 591 l 1
665 306 m 256
 619 352 564 375 499 375 c 0
 434 375 380 352 334 306 c 256
 288 260 265 206 265 141 c 0
 265 76 288 21 334 -25 c 256
 380 -71 435 -93 499 -94 c 0
 563 -95 619 -72 665 -26 c 256
 711 20 734 76 734 141 c 0
 734 206 711 260 665 306 c 256
EndSplineSet
Colour: ff
EndChar
StartChar: uF1DC8
Encoding: 990664 990664 251
Width: 1000
Flags: MW
LayerCount: 2
Fore
SplineSet
213 -49 m 0
 220 -11 253 14 288 14 c 0
 326 14 344 -15 338 -49 c 0
 333 -80 308 -97 303 -101 c 1
 309 -102 315 -103 322 -103 c 0
 362 -103 382 -53 396 29 c 2
 418 155 l 1
 399 164 382 177 366 193 c 0
 328 231 308 278 308 332 c 0
 308 386 328 434 366 472 c 0
 399 505 439 524 484 529 c 1
 492 574 l 6
 513 694 596 760 684 760 c 0
 748 760 796 725 787 672 c 0
 780 635 748 610 714 610 c 0
 676 610 656 640 662 673 c 0
 667 702 688 718 693 722 c 1
 684 723 674 724 665 722 c 0
 627 710 613 639 607 605 c 2
 590 512 l 1
 610 502 629 489 646 472 c 0
 684 434 704 386 704 332 c 0
 704 278 684 231 646 193 c 0
 612 159 571 140 524 136 c 1
 504 23 l 2
 481 -107 370 -140 317 -140 c 0
 252 -140 203 -103 213 -49 c 0
425 193 m 1
 477 491 l 1
 445 486 416 470 392 446 c 0
 361 415 345 377 345 332 c 0
 345 287 361 250 392 219 c 0
 402 209 413 200 425 193 c 1
584 474 m 1
 531 173 l 1
 565 178 595 194 620 219 c 0
 651 250 667 287 667 332 c 0
 667 377 651 415 620 446 c 0
 609 457 597 467 584 474 c 1
EndSplineSet
Colour: ff
EndChar
StartChar: uF1DC9
Encoding: 990665 990665 276
Width: 1000
VWidth: 1000
Flags: MW
LayerCount: 2
Fore
SplineSet
905 505 m 1
 868 503 l 1
 840 575 731 620 661 644 c 0
 617 659 553 665 467 667 c 2
 258 671 l 1
 507 334 l 2
 510 330 511 324 511 318 c 0
 511 312 509 305 505 301 c 2
 183 -89 l 1
 483 -84 l 2
 564 -84 626 -76 669 -60 c 0
 735 -36 842 9 868 79 c 1
 903 77 l 1
 830 -148 l 1
 111 -150 l 2
 103 -149 96 -142 95 -132 c 0
 95 -128 97 -125 98 -122 c 2
 404 252 l 1
 98 673 l 2
 95 677 94 685 94 695 c 0
 94 707 101 717 111 718 c 2
 830 717 l 1
 905 505 l 1
EndSplineSet
Colour: ff
EndChar
StartChar: uF1DCA
Encoding: 990666 990666 277
Width: 1000
VWidth: 1000
Flags: MW
LayerCount: 2
Fore
SplineSet
898 764 m 0
 898 760 898 755 897 753 c 2
 432 -210 l 2
 427 -219 415 -224 398 -224 c 0
 392 -224 384 -219 381 -213 c 2
 188 220 l 1
 153 189 128 172 124 172 c 0
 112 173 103 182 102 194 c 0
 102 199 104 205 108 208 c 2
 251 316 l 2
 254 319 259 321 263 321 c 0
 270 321 277 315 280 309 c 2
 444 -63 l 1
 846 778 l 2
 850 786 859 792 870 792 c 0
 886 791 897 780 898 764 c 0
EndSplineSet
Colour: ff
EndChar
StartChar: uF1DCB
Encoding: 990667 990667 254
Width: 1000
Flags: MW
LayerCount: 2
Fore
SplineSet
118 -61 m 0
 118 -45 134 -43 147 -43 c 2
 482 -43 l 1
 482 556 l 2
 482 580 493 584 500 584 c 0
 515 584 518 569 518 555 c 2
 518 -43 l 1
 856 -43 l 2
 878 -44 882 -54 882 -61 c 0
 882 -76 869 -79 857 -80 c 2
 146 -80 l 2
 122 -80 118 -69 118 -61 c 0
EndSplineSet
EndChar
StartChar: uF1DCC
Encoding: 990668 990668 255
Width: 1000
Flags: MW
LayerCount: 2
Fore
SplineSet
275 55 m 1
 828 55 l 2
 834 55 838 49 838 45 c 2
 838 0 l 2
 838 -6 832 -10 828 -10 c 2
 172 -10 l 2
 166 -10 163 -5 163 1 c 0
 163 3 164 4 164 5 c 2
 584 660 l 2
 587 665 594 666 598 663 c 2
 637 638 l 2
 642 635 642 629 640 625 c 2
 275 55 l 1
EndSplineSet
Colour: ff
EndChar
StartChar: uF1DCD
Encoding: 990669 990669 280
Width: 1000
VWidth: 1000
Flags: MW
LayerCount: 2
Fore
SplineSet
819 20 m 0
 818 3 802 -8 778 -8 c 2
 222 -8 l 2
 200 -8 184 1 182 15 c 0
 181 18 181 26 181 33 c 2
 181 653 l 2
 181 677 192 693 209 694 c 0
 226 693 237 677 237 653 c 2
 235 46 l 1
 778 48 l 2
 802 48 818 37 819 20 c 0
EndSplineSet
Colour: ff
EndChar
StartChar: uF1DCE
Encoding: 990670 990670 281
Width: 1000
VWidth: 1000
Flags: MW
LayerCount: 2
Fore
SplineSet
886 18 m 2
 885 3 874 -8 858 -8 c 2
 140 -8 l 2
 123 -7 114 5 114 20 c 0
 114 26 117 36 124 43 c 2
 842 760 l 2
 845 763 852 765 858 765 c 0
 874 765 885 754 886 738 c 2
 886 18 l 2
832 46 m 1
 835 677 l 1
 201 43 l 1
 832 46 l 1
EndSplineSet
Colour: ff
EndChar
StartChar: uF1DCF
Encoding: 990671 990671 251
Width: 1000
Flags: MW
LayerCount: 2
Fore
SplineSet
216 -75 m 1
 216 315 l 2
 216 471 344 599 500 599 c 0
 656 599 784 471 784 315 c 2
 784 -74 l 2
 784 -95 772 -100 766 -100 c 0
 750 -100 748 -87 748 -75 c 2
 748 315 l 2
 748 451 636 562 500 562 c 0
 364 562 254 451 254 315 c 2
 254 -74 l 1
 253 -96 243 -100 236 -100 c 0
 221 -100 217 -87 216 -75 c 1
EndSplineSet
EndChar
StartChar: uF1DD0
Encoding: 990672 990672 283
Width: 1000
VWidth: 1000
Flags: MW
LayerCount: 2
Fore
SplineSet
784 190 m 2
 784 121 752 66 689 24 c 1
 634 -12 571 -30 500 -30 c 0
 429 -30 366 -12 311 24 c 1
 248 66 216 121 216 190 c 0
 216 580 l 0
 216 596 227 606 243 606 c 0
 259 606 270 596 270 580 c 0
 270 193 l 0
 270 140 295 99 347 67 c 0
 391 40 442 27 500 26 c 1
 558 26 609 39 653 66 c 0
 705 98 730 140 730 193 c 0
 730 580 l 0
 730 596 741 606 757 606 c 0
 773 606 784 596 784 580 c 0
 784 190 l 2
EndSplineSet
Colour: ff
EndChar
StartChar: uF1EEC
Encoding: 990956 990956 395
Width: 1000
Flags: W
LayerCount: 2
Fore
SplineSet
30 390 m 1
 30 707 l 1
 91 644 162 595 244 560 c 128
 326 525 411 507 500 507 c 128
 589 507 674 525 756 560 c 128
 838 595 909 644 970 707 c 1
 970 390 l 1
 30 390 l 1
EndSplineSet
Colour: ff
EndChar
StartChar: uF1EED
Encoding: 990957 990957 389
Width: 1000
Flags: W
LayerCount: 2
Fore
SplineSet
339 682 m 0
 355 682 357 666 357 653 c 2
 357 -56 l 1
 356 -78 346 -82 339 -82 c 0
 324 -82 321 -69 320 -57 c 1
 320 654 l 2
 320 678 331 682 339 682 c 0
561 682 m 0
 576 682 579 667 579 653 c 2
 579 -56 l 2
 579 -77 568 -82 562 -82 c 0
 546 -82 543 -69 543 -57 c 2
 543 654 l 2
 543 678 554 682 561 682 c 0
EndSplineSet
EndChar
StartChar: uF1F48
Encoding: 991048 991048 258
Width: 1000
Flags: MW
LayerCount: 2
Fore
SplineSet
181 340 m 0
 181 351 187 370 220 370 c 2
 772 370 l 2
 774 370 776 371 778 371 c 0
 816 371 819 350 819 328 c 2
 819 100 l 2
 819 67 801 61 789 61 c 0
 777 61 759 67 758 100 c 1
 758 310 l 1
 217 310 l 1
 185 311 181 331 181 340 c 0
EndSplineSet
EndChar
StartChar: uF1F49
Encoding: 991049 991049 252
Width: 1000
Flags: MW
LayerCount: 2
Fore
SplineSet
65 305 m 1
 845 756 l 1
 844 -145 l 1
 65 305 l 1
185 305 m 1
 784 -41 l 1
 785 652 l 1
 185 305 l 1
EndSplineSet
Colour: ff
EndChar
StartChar: uF1F4A
Encoding: 991050 991050 286
Width: 1000
VWidth: 1000
Flags: MW
LayerCount: 2
Fore
SplineSet
799 284 m 1
 205 -85 l 1
 205 653 l 1
 799 284 l 1
690 284 m 1
 262 551 l 1
 262 17 l 1
 690 284 l 1
EndSplineSet
Colour: ff
EndChar
StartChar: uF1F4C
Encoding: 991052 991052 288
Width: 1000
VWidth: 1000
Flags: MW
LayerCount: 2
Fore
SplineSet
784 377 m 0
 784 363 776 352 764 352 c 2
 630 352 l 2
 624 353 624 353 625 347 c 2
 625 -135 l 2
 625 -151 614 -162 599 -163 c 2
 402 -163 l 2
 387 -162 377 -151 375 -135 c 2
 375 347 l 2
 376 353 376 353 371 352 c 2
 236 352 l 2
 224 353 216 364 216 377 c 0
 216 378 216 382 217 385 c 0
 219 393 219 394 217 391 c 1
 218 396 222 401 227 405 c 0
 299 446 353 489 389 534 c 0
 426 578 451 626 469 678 c 0
 471 687 475 701 481 718 c 0
 484 726 492 732 500 732 c 0
 508 732 516 725 519 717 c 0
 520 708 520 708 531 678 c 0
 549 626 574 578 611 534 c 0
 647 490 701 447 773 405 c 0
 776 402 782 399 784 392 c 0
 784 390 784 387 784 384 c 1
 782 385 782 385 784 377 c 0
685 402 m 1
 655 417 629 438 611 455 c 0
 558 507 519 565 500 626 c 1
 481 565 442 507 389 455 c 0
 372 438 346 417 316 402 c 1
 404 408 l 2
 420 407 430 396 432 380 c 2
 432 -103 l 2
 431 -109 431 -109 435 -108 c 2
 565 -108 l 2
 570 -109 570 -109 569 -103 c 2
 569 380 l 2
 569 396 580 407 596 408 c 2
 685 402 l 1
EndSplineSet
Colour: ff
EndChar
StartChar: uF1F4D
Encoding: 991053 991053 289
Width: 1000
VWidth: 1000
Flags: MW
LayerCount: 2
Fore
SplineSet
952 186 m 2
 951 171 940 161 924 159 c 2
 433 159 l 2
 427 160 427 160 428 155 c 2
 428 20 l 2
 427 8 416 0 402 0 c 0
 401 0 398 0 395 1 c 0
 384 9 384 9 389 1 c 1
 384 2 379 6 375 11 c 0
 334 83 291 136 247 172 c 0
 203 209 154 235 102 253 c 0
 93 255 79 259 62 265 c 0
 54 268 48 276 48 284 c 0
 48 292 55 300 63 303 c 0
 77 307 77 307 102 315 c 0
 154 333 203 359 247 396 c 0
 291 432 333 485 375 557 c 0
 379 562 382 566 387 568 c 0
 391 568 391 568 396 568 c 0
 401 568 401 568 402 568 c 0
 416 568 427 560 428 548 c 2
 428 414 l 2
 427 408 427 408 433 409 c 2
 924 409 l 2
 940 409 951 398 952 383 c 2
 952 186 l 2
897 219 m 2
 897 349 l 2
 898 354 898 354 892 353 c 2
 400 353 l 2
 384 353 373 364 372 380 c 2
 378 469 l 1
 363 439 342 413 325 395 c 0
 273 342 215 303 154 284 c 1
 215 265 273 226 325 173 c 0
 342 156 363 130 378 100 c 1
 372 188 l 2
 373 204 384 214 400 216 c 2
 892 216 l 2
 898 215 898 214 897 219 c 2
EndSplineSet
Colour: ff
EndChar
StartChar: uF1F4E
Encoding: 991054 991054 259
Width: 1000
Flags: MW
LayerCount: 2
Fore
SplineSet
130 138 m 2
 130 172 l 1
 130 472 l 2
 130 478 136 482 140 482 c 2
 463 482 l 1
 463 685 l 2
 463 691 468 695 474 695 c 0
 476 695 479 694 480 693 c 2
 917 313 l 2
 922 309 921 301 917 297 c 2
 480 -83 l 2
 476 -87 468 -86 465 -81 c 0
 464 -79 463 -76 463 -75 c 2
 463 128 l 1
 140 128 l 2
 134 128 130 134 130 138 c 2
183 182 m 1
 507 182 l 2
 513 182 517 176 517 172 c 2
 517 19 l 1
 843 305 l 1
 517 591 l 1
 517 438 l 2
 517 432 511 428 507 428 c 2
 183 428 l 1
 183 182 l 1
EndSplineSet
Colour: ff
EndChar
StartChar: uF1F50
Encoding: 991056 991056 291
Width: 1000
VWidth: 1000
Flags: MW
LayerCount: 2
Fore
SplineSet
884 262 m 0
 884 211 866 168 832 134 c 0
 798 100 755 83 704 83 c 0
 661 83 619 99 581 129 c 0
 546 157 519 192 504 230 c 1
 512 231 l 1
 514 211 l 1
 514 132 539 70 590 20 c 0
 610 0 636 -14 666 -25 c 0
 683 -30 713 -37 760 -48 c 1
 764 -80 l 1
 236 -80 l 1
 240 -48 l 1
 287 -37 317 -30 334 -25 c 0
 364 -14 388 0 408 20 c 0
 460 70 486 133 486 211 c 1
 488 231 l 1
 496 230 l 1
 481 192 454 157 419 129 c 0
 381 99 339 83 296 83 c 0
 245 83 202 100 168 134 c 0
 134 168 116 212 116 262 c 0
 116 305 130 346 158 381 c 0
 188 418 225 438 268 437 c 0
 298 437 333 426 368 407 c 1
 364 403 l 1
 337 439 322 478 322 510 c 0
 322 559 340 602 374 634 c 0
 408 666 452 683 500 683 c 0
 549 683 591 666 625 634 c 0
 659 602 678 559 678 510 c 0
 678 477 662 439 636 402 c 1
 631 407 l 1
 665 427 700 438 730 437 c 0
 773 437 812 417 842 381 c 0
 870 346 884 305 884 262 c 0
828 262 m 0
 828 294 818 320 798 345 c 0
 778 370 756 381 730 381 c 0
 717 381 700 376 676 365 c 0
 652 354 634 348 626 348 c 0
 621 348 615 350 611 353 c 0
 587 372 574 387 574 397 c 0
 574 400 574 406 577 411 c 0
 607 456 622 489 622 510 c 0
 622 544 610 571 586 594 c 0
 562 617 536 627 500 627 c 0
 464 627 437 617 413 594 c 0
 389 571 378 544 378 510 c 0
 378 491 385 470 401 446 c 0
 417 421 426 403 426 394 c 0
 426 387 421 378 415 374 c 0
 394 357 379 348 371 347 c 0
 366 347 362 349 359 350 c 0
 319 371 289 381 268 381 c 0
 242 381 222 370 202 345 c 0
 182 320 172 294 172 262 c 0
 172 227 184 198 208 174 c 0
 232 150 260 139 296 139 c 0
 331 139 359 151 385 175 c 0
 400 189 416 210 437 243 c 0
 452 268 465 284 478 285 c 2
 486 285 l 2
 493 285 500 282 500 279 c 1
 500 282 507 285 514 285 c 2
 522 285 l 2
 535 284 548 268 563 243 c 0
 583 210 599 187 613 175 c 0
 639 151 669 139 704 139 c 0
 740 139 768 150 792 174 c 0
 816 198 828 227 828 262 c 0
574 -33 m 1
 542 -16 514 20 500 57 c 1
 486 20 457 -15 426 -32 c 1
 574 -33 l 1
EndSplineSet
Colour: ff
EndChar
StartChar: uF1F52
Encoding: 991058 991058 293
Width: 1000
VWidth: 1000
Flags: MW
LayerCount: 2
Fore
SplineSet
804 227 m 0
 804 189 791 153 764 126 c 0
 737 99 700 85 662 85 c 0
 627 85 594 97 565 121 c 0
 539 143 517 171 504 201 c 1
 512 202 l 1
 514 196 l 1
 513 39 587 -40 743 -46 c 1
 748 -80 l 1
 252 -80 l 1
 257 -46 l 1
 412 -40 485 38 484 196 c 1
 486 202 l 1
 494 201 l 1
 482 171 461 143 435 121 c 0
 405 97 371 85 336 85 c 0
 297 85 263 99 236 126 c 0
 209 153 196 189 196 227 c 0
 196 267 210 309 240 347 c 0
 255 367 286 398 331 438 c 0
 378 481 411 516 432 545 c 0
 463 585 481 629 500 683 c 1
 519 629 537 585 568 545 c 0
 589 516 622 481 669 438 c 0
 713 398 743 367 758 347 c 0
 788 309 804 267 804 227 c 0
748 227 m 0
 748 255 737 283 714 313 c 0
 697 336 660 374 601 429 c 0
 551 476 514 519 500 554 c 1
 486 519 448 476 399 429 c 0
 340 374 301 336 284 313 c 0
 262 283 252 256 252 227 c 0
 252 202 259 183 276 166 c 0
 293 149 312 141 336 141 c 0
 376 141 425 177 486 253 c 1
 501 265 l 1
 512 253 l 1
 573 177 622 141 662 141 c 0
 687 141 706 149 723 166 c 0
 740 183 748 202 748 227 c 0
552 -32 m 1
 528 -20 508 6 500 32 c 1
 492 7 470 -19 446 -32 c 1
 552 -32 l 1
EndSplineSet
Colour: ff
EndChar
StartChar: uF1F53
Encoding: 991059 991059 265
Width: 1000
VWidth: 940
Flags: MW
LayerCount: 2
Fore
SplineSet
500 -100 m 1
 135 305 l 1
 500 710 l 1
 865 305 l 1
 500 -100 l 1
500 -10 m 1
 784 305 l 1
 500 620 l 1
 216 305 l 1
 500 -10 l 1
EndSplineSet
Colour: ff
EndChar
StartChar: uF1FE6
Encoding: 991206 991206 0
Width: 1000
Flags: MW
LayerCount: 2
Fore
SplineSet
200 56 m 0
 200 59 200 63 200 66 c 0
 201 151 222 272 310 291 c 0
 322 294 335 294 347 294 c 2
 1000 294 l 1
 1000 180 l 5
 350 180 l 2
 338 180 326 180 314 177 c 0
 273 166 242 118 237 55 c 0
 236 45 237 28 219 28 c 0
 200 28 200 44 200 56 c 0
EndSplineSet
EndChar
StartChar: uF1FEC
Encoding: 991212 991212 6
Width: 1000
Flags: MW
LayerCount: 2
Fore
SplineSet
0 306 m 1
 0 420 l 1
 650 420 l 2
 663 420 676 420 689 424 c 0
 724 435 748 471 758 513 c 0
 766 544 758 572 782 572 c 0
 800 572 800 555 800 548 c 2
 800 543 l 2
 800 452 780 327 688 308 c 0
 677 306 665 306 653 306 c 2
 0 306 l 1
EndSplineSet
EndChar
StartChar: uF1FF8
Encoding: 991224 991224 147
Width: 1000
Flags: MW
LayerCount: 2
Fore
SplineSet
114 -131 m 0
 114 -124 118 -113 132 -97 c 2
 830 721 l 2
 840 732 854 748 868 748 c 0
 877 748 885 740 885 731 c 0
 885 722 876 712 871 706 c 2
 171 -121 l 2
 165 -129 146 -149 131 -149 c 0
 122 -149 114 -140 114 -131 c 0
557 -153 m 1
 557 -65 l 1
 558 -46 564 -43 585 -34 c 0
 734 34 814 60 814 128 c 0
 814 158 796 198 728 210 c 0
 718 212 707 213 695 213 c 1
 699 201 701 195 701 183 c 0
 701 140 669 111 629 111 c 0
 587 111 557 144 557 183 c 0
 557 197 560 208 566 217 c 0
 577 235 596 246 620 252 c 0
 655 261 699 261 735 261 c 0
 918 261 953 181 953 128 c 8
 953 47 825 18 786 6 c 1
 763 0 723 -16 692 -27 c 1
 760 -27 l 2
 838 -27 874 -27 882 -19 c 0
 888 -14 891 -6 893 1 c 0
 896 11 900 31 902 41 c 9
 949 41 l 1
 922 -153 l 1
 557 -153 l 1
80 638 m 1
 80 686 l 1
 251 690 262 761 298 761 c 0
 322 761 323 744 323 728 c 2
 323 395 l 1
 323 395 l 1
 431 395 l 1
 431 395 l 1
 431 347 l 1
 372 347 l 1
 416 348 l 1
 313 350 l 1
 194 349 l 1
 111 347 l 1
 96 347 l 1
 96 395 l 1
 96 395 l 1
 203 395 l 1
 203 395 l 1
 203 659 l 1
 156 643 129 639 80 638 c 1
EndSplineSet
EndChar
StartChar: uF1FF9
Encoding: 991225 991225 148
Width: 1000
Flags: MW
LayerCount: 2
Fore
SplineSet
114 -131 m 0
 114 -124 118 -113 132 -97 c 2
 830 721 l 2
 840 732 854 748 868 748 c 0
 877 748 885 740 885 731 c 0
 885 722 876 712 871 706 c 2
 171 -121 l 2
 165 -129 146 -149 131 -149 c 0
 122 -149 114 -140 114 -131 c 0
640 -4 m 1
 777 -4 l 1
 777 137 l 1
 640 -4 l 1
549 -54 m 1
 549 -14 l 1
 823 250 l 2
 834 262 833 263 856 263 c 0
 884 263 887 260 887 238 c 2
 887 -4 l 1
 953 -4 l 1
 953 -54 l 1
 887 -54 l 1
 887 -99 l 1
 955 -99 l 1
 955 -99 l 1
 955 -150 l 1
 935 -148 851 -148 824 -148 c 0
 793 -148 701 -148 677 -150 c 1
 677 -99 l 1
 677 -99 l 1
 766 -99 l 1
 766 -54 l 1
 549 -54 l 1
80 638 m 1
 80 686 l 1
 251 690 262 761 298 761 c 0
 322 761 323 744 323 728 c 2
 323 395 l 1
 323 395 l 1
 431 395 l 1
 431 395 l 1
 431 347 l 1
 372 347 l 1
 416 348 l 1
 313 350 l 1
 194 349 l 1
 111 347 l 1
 96 347 l 1
 96 395 l 1
 96 395 l 1
 203 395 l 1
 203 395 l 1
 203 659 l 1
 156 643 129 639 80 638 c 1
EndSplineSet
EndChar
StartChar: uF2003
Encoding: 991235 991235 296
Width: 1000
VWidth: 1000
Flags: MW
LayerCount: 2
Fore
SplineSet
1027 690 m 0
 1026 660 1008 642 977 641 c 0
 947 642 929 660 928 690 c 0
 929 718 944 733 964 734 c 1
 964 738 950 745 938 745 c 0
 905 745 886 730 872 694 c 0
 860 666 852 623 846 565 c 0
 843 520 840 474 836 428 c 0
 826 305 806 175 777 -3 c 0
 768 -58 751 -104 724 -140 c 0
 689 -188 664 -214 611 -214 c 0
 582 -214 555 -206 533 -192 c 0
 507 -175 493 -150 493 -121 c 0
 494 -91 512 -73 542 -73 c 0
 573 -74 591 -91 592 -121 c 0
 591 -149 575 -164 555 -165 c 1
 557 -169 562 -175 580 -175 c 0
 618 -175 641 -162 657 -126 c 0
 673 -94 684 -28 692 72 c 0
 704 217 718 322 734 427 c 0
 740 468 747 516 756 570 c 0
 766 629 783 676 806 711 c 0
 837 757 859 782 908 782 c 0
 937 782 964 774 986 760 c 0
 1012 743 1027 719 1027 690 c 0
767 690 m 0
 766 660 748 642 717 641 c 0
 687 642 669 660 668 690 c 0
 669 718 684 733 704 734 c 1
 704 738 690 745 678 745 c 0
 645 745 626 730 612 694 c 0
 600 666 592 623 586 565 c 0
 583 520 580 474 576 428 c 0
 566 305 546 175 517 -3 c 0
 508 -58 491 -104 464 -140 c 0
 429 -188 404 -214 351 -214 c 0
 322 -214 295 -206 273 -192 c 0
 247 -175 233 -150 233 -121 c 0
 234 -91 252 -73 282 -73 c 0
 313 -74 331 -91 332 -121 c 0
 331 -149 315 -164 295 -165 c 1
 297 -169 302 -175 320 -175 c 0
 358 -175 381 -162 397 -126 c 0
 413 -94 424 -28 432 72 c 0
 444 217 458 322 474 427 c 0
 480 468 487 516 496 570 c 0
 506 629 523 676 546 711 c 0
 577 757 599 782 648 782 c 0
 677 782 704 774 726 760 c 0
 752 743 767 719 767 690 c 0
507 690 m 0
 506 660 488 642 457 641 c 0
 427 642 409 660 408 690 c 0
 409 718 424 733 444 734 c 1
 444 738 430 745 418 745 c 0
 385 745 366 730 352 694 c 0
 340 666 332 623 326 565 c 0
 323 520 320 474 316 428 c 0
 306 305 286 175 257 -3 c 0
 248 -58 231 -104 204 -140 c 0
 169 -188 144 -214 91 -214 c 0
 62 -214 35 -206 13 -192 c 0
 -13 -175 -27 -150 -27 -121 c 0
 -26 -91 -8 -73 22 -73 c 0
 53 -74 71 -91 72 -121 c 0
 71 -149 55 -164 35 -165 c 1
 37 -169 42 -175 60 -175 c 0
 98 -175 121 -162 137 -126 c 0
 153 -94 164 -28 172 72 c 0
 184 217 198 322 214 427 c 0
 220 468 227 516 236 570 c 0
 246 629 263 676 286 711 c 0
 317 757 339 782 388 782 c 0
 417 782 444 774 466 760 c 0
 492 743 507 719 507 690 c 0
EndSplineSet
Colour: ff
EndChar
StartChar: uF2010
Encoding: 991248 991248 215
Width: 1000
VWidth: 940
Flags: MW
LayerCount: 2
Fore
SplineSet
110 274 m 0
 110 276 111 279 112 280 c 2
 492 717 l 2
 496 722 504 721 508 717 c 2
 888 280 l 2
 892 276 891 268 886 265 c 0
 884 264 881 263 880 263 c 2
 677 263 l 1
 677 -60 l 2
 677 -66 671 -70 667 -70 c 2
 367 -70 l 1
 333 -70 l 2
 327 -70 323 -64 323 -60 c 2
 323 263 l 1
 120 263 l 2
 114 263 110 268 110 274 c 0
EndSplineSet
Colour: ff
EndChar
StartChar: uF2011
Encoding: 991249 991249 216
Width: 1000
VWidth: 940
Flags: MW
LayerCount: 2
Fore
SplineSet
112 330 m 2
 108 334 109 342 114 345 c 0
 116 346 119 347 120 347 c 2
 323 347 l 1
 323 670 l 2
 323 676 329 680 333 680 c 2
 367 680 l 1
 667 680 l 2
 673 680 677 674 677 670 c 2
 677 347 l 1
 880 347 l 2
 886 347 890 342 890 336 c 0
 890 334 889 331 888 330 c 2
 508 -107 l 2
 504 -112 496 -111 492 -107 c 2
 112 330 l 2
EndSplineSet
Colour: ff
EndChar
StartChar: uF2016
Encoding: 991254 991254 221
Width: 1000
Flags: MW
LayerCount: 2
Fore
SplineSet
500 -100 m 1
 135 305 l 1
 500 710 l 1
 865 305 l 1
 500 -100 l 1
EndSplineSet
Colour: ff
EndChar
StartChar: uF2019
Encoding: 991257 991257 324
Width: 1000
VWidth: 0
LayerCount: 2
Fore
SplineSet
530 658 m 1
 748 632 911 536 914 300 c 1
 906 300 l 1
 901 322 l 1
 870 337 828 357 782 357 c 24
 739 357 701 346 676 327 c 1
 674 300 l 1
 666 300 l 1
 661 330 l 1
 624 343 578 357 530 359 c 1
 530 0 l 2
 530 -65 476 -116 408 -116 c 27
 326 -116 297 -59 285 14 c 1
 344 16 l 1
 351 -24 364 -56 410 -56 c 27
 453 -56 470 -26 470 10 c 2
 470 359 l 1
 422 357 375 343 338 330 c 1
 334 300 l 1
 326 300 l 1
 324 327 l 1
 297 343 260 358 217 358 c 27
 169 358 132 341 99 326 c 1
 94 300 l 1
 86 300 l 1
 89 537 252 632 470 658 c 1
 470 715 l 1
 530 715 l 1
 530 658 l 1
EndSplineSet
Colour: 8080ff
EndChar
StartChar: uF201A
Encoding: 991258 991258 324
Width: 1000
VWidth: 0
LayerCount: 2
Fore
SplineSet
320 560 m 24
 365 605 436 622 524 622 c 0
 625 622 696 595 736 534 c 24
 760 499 771 453 771 394 c 0
 771 344 765 294 742 277 c 1
 820 243 865 182 865 71 c 0
 865 -15 821 -63 765 -95 c 16
 706 -127 619 -140 530 -140 c 0
 432 -140 331 -124 262 -96 c 8
 201 -72 153 -32 153 53 c 0
 153 148 184 214 242 251 c 24
 258 260 271 267 290 272 c 1
 265 301 260 346 260 399 c 0
 260 472 283 523 320 560 c 24
362 518 m 24
 334 490 319 448 319 393 c 0
 319 318 337 286 412 285 c 1
 412 226 l 1
 403 226 375 226 364 226 c 0
 330 226 297 213 275 200 c 8
 233 171 213 121 213 50 c 0
 213 -4 247 -26 285 -41 c 16
 346 -66 436 -81 524 -81 c 0
 604 -81 683 -69 737 -42 c 8
 775 -23 805 12 805 68 c 0
 805 124 791 172 760 199 c 24
 738 218 705 231 665 231 c 27
 652 231 611 230 611 230 c 1
 612 290 l 1
 688 293 711 314 711 397 c 0
 711 440 703 474 686 501 c 24
 657 548 594 562 518 562 c 0
 451 562 398 549 362 518 c 24
932 268 m 27
 932 241 915 227 892 227 c 27
 871 227 852 245 852 268 c 27
 852 293 870 308 892 308 c 27
 916 308 932 293 932 268 c 27
247 298 m 27
 247 271 231 257 208 257 c 27
 182 257 168 275 168 298 c 27
 168 323 182 338 208 338 c 27
 232 338 247 323 247 298 c 27
372 413 m 27
 372 440 390 458 418 458 c 27
 444 458 463 439 463 413 c 27
 463 385 444 368 418 368 c 27
 389 368 372 384 372 413 c 27
556 415 m 27
 556 443 577 460 602 460 c 27
 628 460 648 443 648 415 c 27
 648 389 628 370 602 370 c 27
 577 370 556 389 556 415 c 27
147 438 m 27
 147 411 131 397 108 397 c 27
 82 397 68 415 68 438 c 27
 68 463 82 478 108 478 c 27
 132 478 147 463 147 438 c 27
867 598 m 27
 867 571 851 557 828 557 c 27
 802 557 788 575 788 598 c 27
 788 623 802 638 828 638 c 27
 852 638 867 623 867 598 c 27
592 672 m 27
 592 645 575 632 552 632 c 27
 531 632 512 649 512 672 c 27
 512 694 531 714 552 714 c 27
 575 714 592 694 592 672 c 27
257 682 m 27
 257 655 241 642 218 642 c 27
 192 642 178 659 178 682 c 27
 178 703 193 724 218 724 c 27
 241 724 257 704 257 682 c 27
EndSplineSet
Colour: 8080ff
EndChar
StartChar: uF201B
Encoding: 991259 991259 222
Width: 1000
Flags: MW
LayerCount: 2
Fore
SplineSet
496 503 m 1
 549 507 655 513 720 513 c 24
 783 513 851 513 896 492 c 16
 924 480 939 457 939 435 c 0
 939 413 924 392 890 384 c 8
 852 373 804 371 757 371 c 0
 732 371 695 373 681 373 c 1
 691 366 697 352 697 336 c 24
 695 318 685 304 674 294 c 1
 674 294 l 2
 701 294 725 267 725 238 c 0
 725 216 716 199 704 187 c 1
 725 183 741 161 741 137 c 0
 741 97 708 74 681 60 c 24
 666 51 648 46 630 40 c 24
 611 34 591 29 568 29 c 24
 536 29 517 40 507 63 c 1
 507 63 495 63 481 63 c 0
 409 63 359 81 313 106 c 24
 289 121 263 144 227 144 c 0
 222 144 218 143 218 143 c 1
 218 85 l 1
 145 82 l 1
 145 50 l 1
 85 50 l 1
 85 465 l 1
 218 465 l 1
 218 428 l 1
 260 430 287 462 312 484 c 16
 346 514 381 534 418 534 c 0
 443 534 470 525 496 503 c 1
661 150 m 24
 642 137 619 129 594 122 c 24
 576 116 559 113 539 110 c 1
 536 104 529 90 529 79 c 0
 529 58 547 54 567 54 c 24
 588 54 605 60 622 64 c 24
 638 69 655 75 670 82 c 24
 689 91 716 109 716 136 c 0
 716 156 700 164 685 168 c 1
 685 168 671 156 661 150 c 24
328 464 m 8
 300 437 269 405 218 403 c 1
 218 168 l 1
 218 168 224 169 229 169 c 0
 270 169 299 144 326 128 c 24
 371 104 418 87 487 87 c 0
 497 87 504 88 504 88 c 1
 505 95 508 101 510 108 c 1
 510 108 l 0
 485 108 465 115 453 129 c 24
 446 137 441 146 441 159 c 0
 441 168 447 187 447 188 c 1
 447 188 444 188 440 188 c 0
 406 188 378 203 378 237 c 0
 378 246 385 266 385 269 c 1
 380 268 359 265 348 265 c 24
 328 265 306 274 294 279 c 1
 306 302 l 1
 316 298 333 290 349 290 c 24
 375 290 393 297 410 306 c 24
 424 314 436 324 449 333 c 1
 435 342 406 368 396 376 c 1
 413 394 l 1
 428 381 457 357 477 345 c 16
 490 338 513 324 534 324 c 0
 550 324 567 334 567 350 c 0
 567 359 562 369 558 378 c 8
 540 415 517 449 489 476 c 16
 464 499 440 509 417 509 c 0
 387 509 357 491 328 464 c 8
145 108 m 1
 192 108 l 1
 192 442 l 1
 145 443 l 1
 145 108 l 1
600 240 m 24
 575 227 552 215 524 205 c 24
 508 199 496 195 477 192 c 1
 473 186 466 172 466 161 c 0
 466 155 468 149 472 145 c 24
 480 137 495 132 511 132 c 0
 540 132 563 138 586 146 c 24
 618 156 648 168 670 188 c 24
 683 199 701 216 701 239 c 0
 701 266 671 268 650 273 c 1
 638 264 615 248 600 240 c 24
536 300 m 0
 513 300 488 311 471 320 c 1
 456 307 438 292 420 283 c 1
 417 277 403 254 403 240 c 0
 403 218 420 212 441 212 c 0
 470 212 494 219 516 228 c 24
 541 237 565 250 587 262 c 24
 610 277 672 304 672 338 c 24
 672 360 644 367 631 375 c 1
 621 375 588 377 586 377 c 0
 586 377 l 0
 586 377 l 0
 590 367 591 358 591 349 c 0
 591 321 566 300 536 300 c 0
519 479 m 1
 539 457 560 430 574 402 c 1
 624 400 687 396 744 396 c 0
 794 396 843 399 884 408 c 16
 905 414 915 425 915 436 c 0
 915 448 904 459 885 468 c 8
 843 487 780 488 720 488 c 24
 658 488 575 480 519 479 c 1
EndSplineSet
Colour: 8080ff
EndChar
StartChar: uF201C
Encoding: 991260 991260 223
Width: 1000
VWidth: 1000
Flags: MW
LayerCount: 2
Fore
SplineSet
918 306 m 0
 918 267 908 223 888 176 c 1
 862 187 l 1
 881 231 890 271 890 306 c 0
 890 346 879 388 858 431 c 1
 884 444 l 1
 892 431 l 2
 910 393 918 351 918 306 c 0
854 306 m 0
 854 269 847 232 832 195 c 1
 762 195 l 1
 725 154 687 126 652 109 c 1
 639 108 629 107 622 107 c 0
 604 107 586 110 566 117 c 1
 548 109 l 1
 530 108 l 2
 481 105 457 123 456 161 c 0
 456 162 457 165 458 168 c 1
 421 173 403 192 404 223 c 0
 404 230 405 238 408 247 c 1
 379 255 364 272 364 297 c 0
 364 316 373 330 390 339 c 1
 372 343 l 1
 196 345 l 2
 120 346 82 363 82 397 c 0
 82 417 91 431 110 440 c 0
 126 447 158 451 206 452 c 2
 406 457 l 1
 426 475 l 1
 560 487 l 1
 622 469 676 448 724 424 c 1
 830 424 l 1
 847 387 854 348 854 306 c 0
830 309 m 0
 830 340 824 370 812 400 c 1
 724 400 l 1
 641 433 586 454 558 462 c 1
 434 452 l 1
 358 381 l 1
 372 368 387 362 406 362 c 0
 434 362 462 377 490 406 c 1
 523 387 553 379 582 380 c 2
 590 381 l 1
 590 356 l 1
 578 356 l 2
 551 355 524 362 496 377 c 1
 477 362 459 352 442 345 c 1
 486 345 l 1
 503 354 519 359 536 359 c 0
 573 359 604 337 626 294 c 1
 592 279 l 1
 613 272 632 254 650 223 c 1
 620 209 l 1
 638 194 651 177 660 158 c 1
 600 132 l 1
 617 130 627 129 632 129 c 0
 635 129 640 130 648 131 c 1
 686 153 719 183 748 220 c 1
 814 220 l 1
 825 251 830 280 830 309 c 0
592 304 m 1
 579 325 561 336 536 335 c 0
 522 335 507 330 492 320 c 1
 430 320 l 2
 403 320 390 312 390 297 c 0
 390 276 409 265 448 266 c 2
 500 266 l 1
 592 304 l 1
616 233 m 1
 605 250 585 261 558 265 c 1
 508 242 l 1
 436 243 l 1
 431 235 428 228 428 222 c 0
 428 201 444 190 476 191 c 2
 520 192 l 1
 616 233 l 1
626 170 m 1
 619 179 607 188 594 197 c 1
 528 168 l 1
 482 168 l 1
 482 143 496 131 526 132 c 2
 546 132 l 1
 626 170 l 1
380 433 m 1
 202 428 l 2
 139 427 107 416 106 397 c 0
 106 379 145 370 224 369 c 2
 334 369 l 1
 331 372 328 376 324 381 c 1
 380 433 l 1
EndSplineSet
Colour: ff
EndChar
StartChar: uF201D
Encoding: 991261 991261 224
Width: 1000
VWidth: 1000
Flags: MW
LayerCount: 2
Fore
SplineSet
690 238 m 1
 672 176 652 121 628 73 c 1
 628 -32 l 1
 591 -49 552 -58 510 -58 c 0
 473 -58 435 -50 398 -34 c 1
 398 36 l 1
 357 73 328 110 312 145 c 1
 310 158 310 168 310 174 c 0
 310 192 313 211 320 232 c 1
 312 250 l 1
 310 267 l 2
 307 316 326 340 364 340 c 0
 365 340 368 340 372 339 c 1
 377 376 395 394 426 394 c 0
 433 394 441 392 450 389 c 1
 458 418 475 433 500 433 c 0
 519 433 532 425 542 408 c 1
 546 426 l 1
 548 602 l 2
 549 678 566 716 600 715 c 0
 620 715 635 706 644 688 c 0
 651 672 655 640 656 592 c 2
 660 392 l 1
 678 372 l 1
 690 238 l 1
646 -87 m 1
 634 -94 l 2
 596 -112 555 -121 510 -121 c 0
 471 -121 426 -111 378 -91 c 1
 390 -64 l 1
 434 -83 475 -92 510 -92 c 0
 550 -92 591 -82 634 -61 c 1
 646 -87 l 1
636 417 m 1
 632 596 l 2
 631 659 619 691 600 691 c 0
 582 691 573 652 572 573 c 2
 572 462 l 1
 575 465 579 469 584 474 c 1
 636 417 l 1
538 261 m 0
 538 275 533 290 522 305 c 1
 522 368 l 2
 522 395 515 408 500 408 c 0
 479 408 468 389 468 350 c 2
 470 298 l 1
 506 205 l 1
 527 218 538 236 538 261 c 0
468 239 m 1
 446 290 l 1
 446 361 l 1
 438 366 431 368 426 369 c 0
 405 369 393 353 394 321 c 2
 396 277 l 1
 436 182 l 1
 453 193 465 212 468 239 c 1
666 239 m 1
 654 363 l 1
 584 439 l 1
 571 425 566 409 566 391 c 0
 566 363 579 335 608 307 c 1
 589 274 582 244 584 215 c 2
 584 207 l 1
 560 208 l 1
 560 219 l 2
 559 246 565 274 580 302 c 1
 565 321 555 339 548 355 c 1
 548 312 l 1
 557 295 562 278 562 261 c 0
 562 224 541 194 498 171 c 1
 482 206 l 1
 475 185 457 165 426 146 c 1
 412 177 l 1
 397 159 381 146 362 137 c 1
 336 198 l 1
 334 181 333 171 332 166 c 0
 332 163 333 157 334 149 c 1
 356 111 386 77 424 48 c 1
 424 -18 l 1
 454 -28 483 -33 512 -33 c 0
 543 -33 574 -27 604 -16 c 1
 604 73 l 1
 637 156 658 211 666 239 c 1
400 203 m 1
 372 269 l 1
 372 316 l 1
 347 316 333 301 334 271 c 2
 336 251 l 1
 372 171 l 1
 382 178 391 189 400 203 c 1
EndSplineSet
Colour: ff
EndChar
StartChar: uF2026
Encoding: 991270 991270 358
Width: 1000
VWidth: 940
Flags: W
LayerCount: 2
Fore
SplineSet
0 -75 m 1
 1000 -75 l 1
 1000 -200 l 1
 0 -200 l 1
 0 -75 l 1
EndSplineSet
Colour: ff
EndChar
StartChar: uF202A
Encoding: 991274 991274 367
Width: 1000
VWidth: 940
Flags: W
LayerCount: 2
Fore
SplineSet
0 -200 m 1
 0 425 l 1
 1000 425 l 1
 1000 -200 l 1
 0 -200 l 1
EndSplineSet
Colour: ff
EndChar
StartChar: uF202F
Encoding: 991279 991279 366
Width: 1000
Flags: W
LayerCount: 2
Fore
SplineSet
0 -200 m 1
 0 800 l 1
 250 800 l 1
 250 -200 l 1
 0 -200 l 1
EndSplineSet
Colour: ff
EndChar
StartChar: uF2033
Encoding: 991283 991283 416
Width: 1000
VWidth: 940
Flags: W
LayerCount: 2
Fore
SplineSet
0 -200 m 1
 0 800 l 1
 750 800 l 1
 750 -200 l 1
 0 -200 l 1
EndSplineSet
Colour: ff
EndChar
StartChar: uF2038
Encoding: 991288 991288 379
Width: 1000
Flags: W
LayerCount: 2
Fore
SplineSet
0 270 m 5
 0 330 l 1
 292.72 330 530 92.72 530 -200 c 1
 470 -200 l 1
 470 59.58 259.58 270 0 270 c 5
EndSplineSet
Colour: ff
EndChar
StartChar: uF2039
Encoding: 991289 991289 383
Width: 1000
Flags: W
LayerCount: 2
Fore
SplineSet
470 800 m 1
 530 800 l 1
 530 540.42 740.42 330 1000 330 c 1
 1000 270 l 1
 707.28 270 470 507.28 470 800 c 1
EndSplineSet
Colour: ff
EndChar
StartChar: uF203A
Encoding: 991290 991290 392
Width: 1000
Flags: W
LayerCount: 2
Fore
SplineSet
0 270 m 1
 0 330 l 1
 259.58 330 470 540.42 470 800 c 1
 530 800 l 5
 530 507.28 292.72 270 0 270 c 1
EndSplineSet
Colour: ff
EndChar
StartChar: uF203D
Encoding: 991293 991293 378
Width: 1000
Flags: W
LayerCount: 2
Fore
SplineSet
0 140 m 1
 0 200 l 1
 470 200 l 1
 470 400 l 1
 0 400 l 1
 0 460 l 1
 470 460 l 1
 470 800 l 1
 530 800 l 1
 530 460 l 1
 1000 460 l 1
 1000 400 l 1
 530 400 l 1
 530 200 l 1
 1000 200 l 1
 1000 140 l 1
 530 140 l 1
 530 -200 l 1
 470 -200 l 1
 470 140 l 1
 0 140 l 1
EndSplineSet
Colour: ff
EndChar
StartChar: uF203E
Encoding: 991294 991294 379
Width: 1000
Flags: W
LayerCount: 2
Fore
SplineSet
0 140 m 1
 0 200 l 1
 470 200 l 1
 470 400 l 1
 0 400 l 1
 0 460 l 1
 470 460 l 1
 470 800 l 1
 530 800 l 1
 530 -200 l 1
 470 -200 l 1
 470 140 l 1
 0 140 l 1
EndSplineSet
Colour: ff
EndChar
StartChar: uF2045
Encoding: 991301 991301 392
Width: 1000
Flags: W
LayerCount: 2
Fore
SplineSet
-21.212890625 -178.786132812 m 1
 978.786132812 821.212890625 l 1
 1021.21289062 778.786132812 l 1
 21.2138671875 -221.212890625 l 1
 -21.212890625 -178.786132812 l 1
EndSplineSet
Colour: ff
EndChar
StartChar: uF2074
Encoding: 991348 991348 400
Width: 1000
Flags: W
LayerCount: 2
Fore
SplineSet
516 139 m 1
 480 139 l 1
 480 158.333007812 474.666992188 177.333007812 464 196 c 0
 450.666992188 217.333007812 433.333007812 228 412 228 c 0
 390 228 372.333007812 221.333007812 359 208 c 0
 343 192 335 173 335 151 c 0
 335 124.333007812 347 99 371 75 c 0
 409 37 428 3.6669921875 428 -25 c 0
 428 -52.3330078125 420 -74 404 -90 c 0
 382.666992188 -111.333007812 353 -122 315 -122 c 0
 268.333007812 -122 217.666992188 -93.6669921875 163 -37 c 0
 74.3330078125 55 30 167.333007812 30 300 c 0
 30 436 74.3330078125 548.333007812 163 637 c 128
 251.666992188 725.666992188 364 770 500 770 c 1
 500 738 l 1
 374.666992188 738 270.333007812 696.333007812 187 613 c 0
 101 527 59.3330078125 422.666992188 62 300 c 0
 64.6669921875 172 107.666992188 66.3330078125 191 -17 c 0
 239.666992188 -65.6669921875 281 -90 315 -90 c 0
 339 -90 359 -82 375 -66 c 0
 386.333007812 -54.6669921875 390.666992188 -39.6669921875 388 -21 c 0
 385.333007812 -3 369 22.3330078125 339 55 c 0
 312.333007812 83.6669921875 299 117 299 155 c 0
 299 185 309.666992188 210.666992188 331 232 c 128
 352.333007812 253.333007812 379.333007812 264 412 264 c 128
 444.666992188 264 467.333007812 254.666992188 480 236 c 1
 480 505 l 1
 516 505 l 1
 527.333007812 480.333007812 544.666992188 456.333007812 568 433 c 0
 582 419 599.666992188 412 621 412 c 0
 639 412 656.333007812 420.333007812 673 437 c 0
 689 453 697 485 697 533 c 2
 697 734 l 1
 743 718.666992188 789.666992188 686.333007812 837 637 c 0
 925.666992188 542.333007812 970 430 970 300 c 0
 970 164 925.666992188 51.6669921875 837 -37 c 128
 748.333007812 -125.666992188 636 -170 500 -170 c 1
 500 -138 l 1
 625.333007812 -138 729.666992188 -96.3330078125 813 -13 c 128
 896.333007812 70.3330078125 938 174.666992188 938 300 c 128
 938 425.333007812 896.333007812 529.666992188 813 613 c 0
 784.333007812 641.666992188 757.666992188 662 733 674 c 1
 733 489 l 2
 733 456.333007812 722.333007812 429.333007812 701 408 c 128
 679.666992188 386.666992188 653 376 621 376 c 0
 588.333007812 376 564 384 548 400 c 0
 536 412 525.333007812 425.666992188 516 441 c 1
 516 139 l 1
EndSplineSet
Colour: ff
EndChar
StartChar: uF2075
Encoding: 991349 991349 297
Width: 1000
VWidth: 1000
Flags: MW
LayerCount: 2
Fore
SplineSet
952 466 m 0
 952 450 941 439 926 438 c 2
 202 444 l 1
 247 423 286 381 314 329 c 0
 324 310 335 282 344 248 c 0
 344 246 343 248 344 247 c 0
 344 234 338 226 328 225 c 0
 308 225 292 229 289 238 c 0
 287 245 284 256 280 269 c 0
 265 311 242 346 209 377 c 0
 176 408 138 429 95 440 c 0
 88 441 78 444 64 447 c 0
 55 449 48 457 48 466 c 0
 48 474 54 482 63 485 c 0
 75 487 75 487 96 491 c 0
 138 502 176 523 209 554 c 0
 242 585 265 620 280 662 c 0
 282 669 285 681 289 695 c 0
 292 702 300 707 306 707 c 0
 314 707 318 707 327 707 c 0
 336 705 344 699 345 687 c 1
 344 683 l 2
 335 649 324 621 314 602 c 0
 286 550 247 509 202 488 c 1
 926 494 l 2
 941 493 952 482 952 466 c 0
952 133 m 0
 952 124 945 116 936 114 c 0
 929 113 919 110 905 107 c 0
 863 96 825 75 791 44 c 0
 757 13 735 -22 720 -64 c 0
 718 -71 715 -82 711 -95 c 0
 709 -102 701 -108 694 -108 c 0
 688 -108 683 -109 675 -109 c 0
 664 -107 656 -99 655 -88 c 2
 656 -84 l 2
 669 -39 686 1 707 32 c 0
 733 68 765 98 798 111 c 1
 74 105 l 2
 59 106 48 117 48 133 c 0
 48 149 59 160 74 161 c 2
 798 155 l 1
 764 168 733 197 708 233 c 0
 687 263 668 302 656 351 c 1
 657 350 656 351 655 355 c 0
 655 365 662 373 672 374 c 0
 692 374 707 371 711 362 c 0
 713 355 716 343 720 329 c 0
 741 267 778 222 833 189 c 0
 857 174 883 164 911 157 c 0
 918 156 924 155 932 154 c 0
 943 150 951 142 952 133 c 0
EndSplineSet
Colour: ff
EndChar
StartChar: uF2076
Encoding: 991350 991350 268
Width: 1000
Flags: MW
LayerCount: 2
Fore
SplineSet
153 443 m 2
 153 488 l 2
 153 494 159 498 163 498 c 2
 762 498 l 1
 572 664 l 2
 567 668 569 676 572 679 c 2
 600 710 l 2
 604 714 610 714 614 711 c 2
 884 474 l 2
 889 470 888 462 884 458 c 2
 614 220 l 2
 609 216 602 218 599 221 c 2
 571 253 l 2
 567 257 568 265 572 268 c 2
 761 433 l 1
 163 433 l 2
 157 433 153 439 153 443 c 2
238 112 m 1
 428 -54 l 2
 433 -58 431 -66 428 -69 c 2
 400 -100 l 2
 396 -104 390 -104 386 -101 c 2
 116 136 l 2
 111 140 112 148 116 152 c 2
 386 390 l 2
 391 394 398 392 401 389 c 2
 429 357 l 2
 433 353 432 345 428 342 c 2
 239 177 l 1
 837 177 l 2
 843 177 847 171 847 167 c 2
 847 122 l 2
 847 116 841 112 837 112 c 2
 238 112 l 1
EndSplineSet
Colour: ff
EndChar
StartChar: uF2077
Encoding: 991351 991351 299
Width: 1000
Flags: MW
LayerCount: 2
Fore
SplineSet
126 377 m 2
 95 405 l 2
 91 409 91 415 94 419 c 2
 331 689 l 2
 335 694 343 693 347 689 c 2
 585 419 l 2
 589 414 587 407 584 404 c 2
 552 376 l 2
 548 372 540 373 537 377 c 2
 372 566 l 1
 372 -32 l 2
 372 -38 366 -42 362 -42 c 2
 317 -42 l 2
 311 -42 307 -36 307 -32 c 2
 307 567 l 1
 141 377 l 2
 137 372 129 374 126 377 c 2
693 43 m 1
 859 233 l 2
 863 238 871 236 874 233 c 2
 905 205 l 2
 909 201 909 195 906 191 c 2
 669 -79 l 2
 665 -84 657 -83 653 -79 c 2
 415 191 l 2
 411 196 413 203 416 206 c 2
 448 234 l 2
 452 238 460 237 463 233 c 2
 628 44 l 1
 628 642 l 2
 628 648 634 652 638 652 c 2
 683 652 l 2
 689 652 693 646 693 642 c 2
 693 43 l 1
EndSplineSet
Colour: ff
EndChar
StartChar: uF2634
Encoding: 992820 992820 55
Width: 1000
Flags: MW
LayerCount: 2
Fore
SplineSet
60 557 m 0
 60 587 63 662 116 721 c 24
 149 758 174 769 251 769 c 0
 328 769 355 749 374 737 c 0
 440 695 443 591 443 557 c 0
 443 521 447 436 372 378 c 0
 346 358 326 350 252 350 c 0
 174 350 142 362 117 387 c 0
 72 432 60 520 60 557 c 0
181 564 m 0
 181 531 181 466 186 437 c 0
 192 405 229 392 252 392 c 0
 262 392 310 391 319 450 c 0
 321 476 322 540 322 564 c 0
 322 630 323 694 306 706 c 0
 295 714 281 726 252 726 c 0
 236 726 190 719 186 681 c 0
 180 649 181 616 181 564 c 0
547 -27 m 0
 547 19 582 49 624 49 c 0
 666 49 700 19 700 -27 c 0
 700 -65 678 -83 668 -91 c 1
 695 -98 724 -99 738 -99 c 0
 798 -99 809 -69 809 -26 c 0
 809 37 780 49 746 51 c 0
 738 51 730 51 722 51 c 0
 702 51 699 53 694 60 c 1
 690 68 692 77 698 83 c 0
 713 96 745 78 772 109 c 0
 787 126 792 149 792 171 c 0
 792 199 783 221 741 221 c 0
 716 221 698 217 674 206 c 1
 678 204 682 202 687 199 c 0
 703 189 719 171 719 141 c 0
 719 100 687 72 649 72 c 0
 612 72 580 98 580 142 c 0
 580 158 584 175 594 192 c 0
 615 229 662 261 746 261 c 0
 877 261 930 214 930 167 c 0
 930 113 886 87 841 70 c 1
 895 60 962 32 962 -25 c 0
 962 -72 913 -143 744 -143 c 0
 584 -143 547 -74 547 -27 c 0
114 -131 m 4
 114 -124 118 -113 132 -97 c 6
 830 721 l 6
 840 732 854 748 868 748 c 4
 877 748 885 740 885 731 c 4
 885 722 876 712 871 706 c 6
 171 -121 l 6
 165 -129 146 -149 131 -149 c 4
 122 -149 114 -140 114 -131 c 4
EndSplineSet
EndChar
StartChar: uF2635
Encoding: 992821 992821 56
Width: 1000
Flags: MW
LayerCount: 2
Fore
SplineSet
80 638 m 1
 80 686 l 1
 251 690 262 761 298 761 c 0
 322 761 323 744 323 728 c 2
 323 395 l 1
 323 395 l 1
 431 395 l 1
 431 395 l 1
 431 347 l 1
 372 347 l 1
 416 348 l 1
 313 350 l 1
 194 349 l 1
 111 347 l 1
 96 347 l 1
 96 395 l 1
 96 395 l 1
 203 395 l 1
 203 395 l 1
 203 659 l 1
 156 643 129 639 80 638 c 1
547 -27 m 4
 547 19 582 49 624 49 c 4
 666 49 700 19 700 -27 c 4
 700 -65 678 -83 668 -91 c 5
 695 -98 724 -99 738 -99 c 4
 798 -99 809 -69 809 -26 c 4
 809 37 780 49 746 51 c 4
 738 51 730 51 722 51 c 4
 702 51 699 53 694 60 c 5
 690 68 692 77 698 83 c 4
 713 96 745 78 772 109 c 4
 787 126 792 149 792 171 c 4
 792 199 783 221 741 221 c 4
 716 221 698 217 674 206 c 5
 678 204 682 202 687 199 c 4
 703 189 719 171 719 141 c 4
 719 100 687 72 649 72 c 4
 612 72 580 98 580 142 c 4
 580 158 584 175 594 192 c 4
 615 229 662 261 746 261 c 4
 877 261 930 214 930 167 c 4
 930 113 886 87 841 70 c 5
 895 60 962 32 962 -25 c 4
 962 -72 913 -143 744 -143 c 4
 584 -143 547 -74 547 -27 c 4
114 -131 m 4
 114 -124 118 -113 132 -97 c 6
 830 721 l 6
 840 732 854 748 868 748 c 4
 877 748 885 740 885 731 c 4
 885 722 876 712 871 706 c 6
 171 -121 l 6
 165 -129 146 -149 131 -149 c 4
 122 -149 114 -140 114 -131 c 4
EndSplineSet
EndChar
StartChar: uF2636
Encoding: 992822 992822 57
Width: 1000
Flags: MW
LayerCount: 2
Fore
SplineSet
57 347 m 1
 57 435 l 1
 58 454 64 457 85 466 c 0
 234 534 314 560 314 628 c 0
 314 658 296 698 228 710 c 0
 218 712 207 713 195 713 c 1
 199 701 201 695 201 683 c 0
 201 640 169 611 129 611 c 0
 87 611 57 644 57 683 c 0
 57 697 60 708 66 717 c 0
 77 735 96 746 120 752 c 4
 155 761 199 761 235 761 c 0
 418 761 453 681 453 628 c 8
 453 547 325 518 286 506 c 1
 263 500 223 484 192 473 c 1
 260 473 l 2
 338 473 374 473 382 481 c 0
 388 486 391 494 393 501 c 0
 396 511 400 531 402 541 c 9
 449 541 l 1
 422 347 l 1
 57 347 l 1
547 -27 m 4
 547 19 582 49 624 49 c 4
 666 49 700 19 700 -27 c 4
 700 -65 678 -83 668 -91 c 5
 695 -98 724 -99 738 -99 c 4
 798 -99 809 -69 809 -26 c 4
 809 37 780 49 746 51 c 4
 738 51 730 51 722 51 c 4
 702 51 699 53 694 60 c 5
 690 68 692 77 698 83 c 4
 713 96 745 78 772 109 c 4
 787 126 792 149 792 171 c 4
 792 199 783 221 741 221 c 4
 716 221 698 217 674 206 c 5
 678 204 682 202 687 199 c 4
 703 189 719 171 719 141 c 4
 719 100 687 72 649 72 c 4
 612 72 580 98 580 142 c 4
 580 158 584 175 594 192 c 4
 615 229 662 261 746 261 c 4
 877 261 930 214 930 167 c 4
 930 113 886 87 841 70 c 5
 895 60 962 32 962 -25 c 4
 962 -72 913 -143 744 -143 c 4
 584 -143 547 -74 547 -27 c 4
114 -131 m 4
 114 -124 118 -113 132 -97 c 6
 830 721 l 6
 840 732 854 748 868 748 c 4
 877 748 885 740 885 731 c 4
 885 722 876 712 871 706 c 6
 171 -121 l 6
 165 -129 146 -149 131 -149 c 4
 122 -149 114 -140 114 -131 c 4
EndSplineSet
EndChar
StartChar: uF2637
Encoding: 992823 992823 58
Width: 1000
Flags: MW
LayerCount: 2
Fore
SplineSet
47 473 m 0
 47 519 82 549 124 549 c 0
 166 549 200 519 200 473 c 0
 200 435 178 417 168 409 c 1
 195 402 224 401 238 401 c 0
 298 401 309 431 309 474 c 0
 309 537 280 549 246 551 c 0
 238 551 230 551 222 551 c 0
 202 551 199 553 194 560 c 1
 190 568 192 577 198 583 c 0
 213 596 245 578 272 609 c 0
 287 626 292 649 292 671 c 0
 292 699 283 721 241 721 c 0
 216 721 198 717 174 706 c 1
 178 704 182 702 187 699 c 0
 203 689 219 671 219 641 c 0
 219 600 187 572 149 572 c 0
 112 572 80 598 80 642 c 0
 80 658 84 675 94 692 c 4
 115 729 162 761 246 761 c 0
 377 761 430 714 430 667 c 0
 430 613 386 587 341 570 c 1
 395 560 462 532 462 475 c 0
 462 428 413 357 244 357 c 0
 84 357 47 426 47 473 c 0
549 -54 m 5
 549 -14 l 5
 823 250 l 6
 834 262 833 263 856 263 c 4
 884 263 887 260 887 238 c 6
 887 -4 l 5
 953 -4 l 5
 953 -54 l 5
 887 -54 l 5
 887 -99 l 5
 955 -99 l 5
 955 -99 l 5
 955 -150 l 5
 935 -148 851 -148 824 -148 c 4
 793 -148 701 -148 677 -150 c 5
 677 -99 l 5
 677 -99 l 5
 766 -99 l 5
 766 -54 l 5
 549 -54 l 5
640 -4 m 5
 777 -4 l 5
 777 137 l 5
 640 -4 l 5
114 -131 m 4
 114 -124 118 -113 132 -97 c 6
 830 721 l 6
 840 732 854 748 868 748 c 4
 877 748 885 740 885 731 c 4
 885 722 876 712 871 706 c 6
 171 -121 l 6
 165 -129 146 -149 131 -149 c 4
 122 -149 114 -140 114 -131 c 4
EndSplineSet
EndChar
StartChar: uF2638
Encoding: 992824 992824 59
Width: 1000
Flags: MW
LayerCount: 2
Fore
SplineSet
80 638 m 1
 80 686 l 1
 251 690 262 761 298 761 c 0
 322 761 323 744 323 728 c 2
 323 395 l 1
 323 395 l 1
 431 395 l 1
 431 395 l 1
 431 347 l 1
 372 347 l 1
 416 348 l 1
 313 350 l 1
 194 349 l 1
 111 347 l 1
 96 347 l 1
 96 395 l 1
 96 395 l 1
 203 395 l 1
 203 395 l 1
 203 659 l 1
 156 643 129 639 80 638 c 1
569 -48 m 0
 569 1 617 9 628 9 c 0
 638 9 687 5 687 -48 c 0
 687 -79 678 -78 670 -82 c 0
 665 -84 658 -83 653 -84 c 1
 667 -96 703 -97 721 -97 c 0
 748 -97 772 -95 780 -86 c 0
 796 -68 797 -57 797 -19 c 0
 797 12 792 24 785 34 c 0
 775 48 755 56 744 56 c 0
 724 56 663 54 647 39 c 0
 640 33 639 29 626 29 c 0
 605 29 604 41 604 53 c 2
 604 250 l 2
 604 260 604 269 617 269 c 0
 620 269 620 268 627 266 c 0
 631 268 673 248 751 248 c 0
 764 248 804 242 870 265 c 0
 882 268 881 269 885 269 c 0
 897 269 898 257 898 252 c 0
 898 228 818 141 700 141 c 0
 675 141 682 138 657 141 c 1
 657 96 l 1
 681 108 742 109 749 109 c 0
 881 109 934 53 934 -19 c 0
 934 -95 868 -150 725 -150 c 0
 630 -150 569 -103 569 -48 c 0
114 -131 m 4
 114 -124 118 -113 132 -97 c 6
 830 721 l 6
 840 732 854 748 868 748 c 4
 877 748 885 740 885 731 c 4
 885 722 876 712 871 706 c 6
 171 -121 l 6
 165 -129 146 -149 131 -149 c 4
 122 -149 114 -140 114 -131 c 4
EndSplineSet
EndChar
StartChar: uF2639
Encoding: 992825 992825 60
Width: 1000
Flags: MW
LayerCount: 2
Fore
SplineSet
57 347 m 1
 57 435 l 1
 58 454 64 457 85 466 c 0
 234 534 314 560 314 628 c 0
 314 658 296 698 228 710 c 0
 218 712 207 713 195 713 c 1
 199 701 201 695 201 683 c 0
 201 640 169 611 129 611 c 0
 87 611 57 644 57 683 c 0
 57 697 60 708 66 717 c 0
 77 735 96 746 120 752 c 4
 155 761 199 761 235 761 c 0
 418 761 453 681 453 628 c 8
 453 547 325 518 286 506 c 1
 263 500 223 484 192 473 c 1
 260 473 l 2
 338 473 374 473 382 481 c 0
 388 486 391 494 393 501 c 0
 396 511 400 531 402 541 c 9
 449 541 l 1
 422 347 l 1
 57 347 l 1
569 -48 m 4
 569 1 617 9 628 9 c 4
 638 9 687 5 687 -48 c 4
 687 -79 678 -78 670 -82 c 4
 665 -84 658 -83 653 -84 c 5
 667 -96 703 -97 721 -97 c 4
 748 -97 772 -95 780 -86 c 4
 796 -68 797 -57 797 -19 c 4
 797 12 792 24 785 34 c 4
 775 48 755 56 744 56 c 4
 724 56 663 54 647 39 c 4
 640 33 639 29 626 29 c 4
 605 29 604 41 604 53 c 6
 604 250 l 6
 604 260 604 269 617 269 c 4
 620 269 620 268 627 266 c 4
 631 268 673 248 751 248 c 4
 764 248 804 242 870 265 c 4
 882 268 881 269 885 269 c 4
 897 269 898 257 898 252 c 4
 898 228 818 141 700 141 c 4
 675 141 682 138 657 141 c 5
 657 96 l 5
 681 108 742 109 749 109 c 4
 881 109 934 53 934 -19 c 4
 934 -95 868 -150 725 -150 c 4
 630 -150 569 -103 569 -48 c 4
114 -131 m 4
 114 -124 118 -113 132 -97 c 6
 830 721 l 6
 840 732 854 748 868 748 c 4
 877 748 885 740 885 731 c 4
 885 722 876 712 871 706 c 6
 171 -121 l 6
 165 -129 146 -149 131 -149 c 4
 122 -149 114 -140 114 -131 c 4
EndSplineSet
EndChar
StartChar: uF263A
Encoding: 992826 992826 61
Width: 1000
Flags: MW
LayerCount: 2
Fore
SplineSet
47 473 m 0
 47 519 82 549 124 549 c 0
 166 549 200 519 200 473 c 0
 200 435 178 417 168 409 c 1
 195 402 224 401 238 401 c 0
 298 401 309 431 309 474 c 0
 309 537 280 549 246 551 c 0
 238 551 230 551 222 551 c 0
 202 551 199 553 194 560 c 1
 190 568 192 577 198 583 c 0
 213 596 245 578 272 609 c 0
 287 626 292 649 292 671 c 0
 292 699 283 721 241 721 c 0
 216 721 198 717 174 706 c 1
 178 704 182 702 187 699 c 0
 203 689 219 671 219 641 c 0
 219 600 187 572 149 572 c 0
 112 572 80 598 80 642 c 0
 80 658 84 675 94 692 c 4
 115 729 162 761 246 761 c 0
 377 761 430 714 430 667 c 0
 430 613 386 587 341 570 c 1
 395 560 462 532 462 475 c 0
 462 428 413 357 244 357 c 0
 84 357 47 426 47 473 c 0
569 -48 m 4
 569 1 617 9 628 9 c 4
 638 9 687 5 687 -48 c 4
 687 -79 678 -78 670 -82 c 4
 665 -84 658 -83 653 -84 c 5
 667 -96 703 -97 721 -97 c 4
 748 -97 772 -95 780 -86 c 4
 796 -68 797 -57 797 -19 c 4
 797 12 792 24 785 34 c 4
 775 48 755 56 744 56 c 4
 724 56 663 54 647 39 c 4
 640 33 639 29 626 29 c 4
 605 29 604 41 604 53 c 6
 604 250 l 6
 604 260 604 269 617 269 c 4
 620 269 620 268 627 266 c 4
 631 268 673 248 751 248 c 4
 764 248 804 242 870 265 c 4
 882 268 881 269 885 269 c 4
 897 269 898 257 898 252 c 4
 898 228 818 141 700 141 c 4
 675 141 682 138 657 141 c 5
 657 96 l 5
 681 108 742 109 749 109 c 4
 881 109 934 53 934 -19 c 4
 934 -95 868 -150 725 -150 c 4
 630 -150 569 -103 569 -48 c 4
114 -131 m 4
 114 -124 118 -113 132 -97 c 6
 830 721 l 6
 840 732 854 748 868 748 c 4
 877 748 885 740 885 731 c 4
 885 722 876 712 871 706 c 6
 171 -121 l 6
 165 -129 146 -149 131 -149 c 4
 122 -149 114 -140 114 -131 c 4
EndSplineSet
EndChar
StartChar: uF263B
Encoding: 992827 992827 62
Width: 1000
Flags: MW
LayerCount: 2
Fore
SplineSet
49 446 m 1
 49 486 l 1
 323 750 l 2
 334 762 333 763 356 763 c 0
 384 763 387 760 387 738 c 2
 387 496 l 1
 453 496 l 1
 453 446 l 1
 387 446 l 1
 387 401 l 1
 455 401 l 1
 455 401 l 1
 455 350 l 1
 435 352 351 352 324 352 c 0
 293 352 201 352 177 350 c 1
 177 401 l 1
 177 401 l 1
 266 401 l 1
 266 446 l 1
 49 446 l 1
140 496 m 1
 277 496 l 1
 277 637 l 1
 140 496 l 1
569 -48 m 4
 569 1 617 9 628 9 c 4
 638 9 687 5 687 -48 c 4
 687 -79 678 -78 670 -82 c 4
 665 -84 658 -83 653 -84 c 5
 667 -96 703 -97 721 -97 c 4
 748 -97 772 -95 780 -86 c 4
 796 -68 797 -57 797 -19 c 4
 797 12 792 24 785 34 c 4
 775 48 755 56 744 56 c 4
 724 56 663 54 647 39 c 4
 640 33 639 29 626 29 c 4
 605 29 604 41 604 53 c 6
 604 250 l 6
 604 260 604 269 617 269 c 4
 620 269 620 268 627 266 c 4
 631 268 673 248 751 248 c 4
 764 248 804 242 870 265 c 4
 882 268 881 269 885 269 c 4
 897 269 898 257 898 252 c 4
 898 228 818 141 700 141 c 4
 675 141 682 138 657 141 c 5
 657 96 l 5
 681 108 742 109 749 109 c 4
 881 109 934 53 934 -19 c 4
 934 -95 868 -150 725 -150 c 4
 630 -150 569 -103 569 -48 c 4
114 -131 m 4
 114 -124 118 -113 132 -97 c 6
 830 721 l 6
 840 732 854 748 868 748 c 4
 877 748 885 740 885 731 c 4
 885 722 876 712 871 706 c 6
 171 -121 l 6
 165 -129 146 -149 131 -149 c 4
 122 -149 114 -140 114 -131 c 4
EndSplineSet
EndChar
StartChar: uF263C
Encoding: 992828 992828 63
Width: 1000
Flags: MW
LayerCount: 2
Fore
SplineSet
80 638 m 1
 80 686 l 1
 251 690 262 761 298 761 c 0
 322 761 323 744 323 728 c 2
 323 395 l 1
 323 395 l 1
 431 395 l 1
 431 395 l 1
 431 347 l 1
 372 347 l 1
 416 348 l 1
 313 350 l 1
 194 349 l 1
 111 347 l 1
 96 347 l 1
 96 395 l 1
 96 395 l 1
 203 395 l 1
 203 395 l 1
 203 659 l 1
 156 643 129 639 80 638 c 1
562 57 m 0
 562 241 698 269 799 269 c 0
 889 269 917 218 917 176 c 0
 917 152 904 124 861 124 c 0
 822 124 807 151 807 175 c 0
 807 185 804 210 844 216 c 1
 827 224 808 224 800 224 c 0
 736 224 700 196 695 176 c 0
 691 159 689 146 689 90 c 2
 689 81 l 1
 712 117 753 116 770 116 c 0
 862 116 940 83 940 -16 c 0
 940 -104 873 -150 756 -150 c 0
 698 -150 636 -136 600 -90 c 1
 562 -34 562 22 562 57 c 0
691 -24 m 0
 691 -36 691 -70 700 -80 c 0
 709 -90 724 -102 753 -102 c 0
 780 -102 801 -100 808 -72 c 0
 812 -55 813 -46 813 -14 c 0
 813 22 813 38 806 54 c 0
 798 73 784 74 758 74 c 0
 744 74 691 71 691 -24 c 0
114 -131 m 4
 114 -124 118 -113 132 -97 c 6
 830 721 l 6
 840 732 854 748 868 748 c 4
 877 748 885 740 885 731 c 4
 885 722 876 712 871 706 c 6
 171 -121 l 6
 165 -129 146 -149 131 -149 c 4
 122 -149 114 -140 114 -131 c 4
EndSplineSet
EndChar
StartChar: uF263D
Encoding: 992829 992829 64
Width: 1000
Flags: MW
LayerCount: 2
Fore
SplineSet
69 452 m 0
 69 501 117 509 128 509 c 0
 138 509 187 505 187 452 c 0
 187 421 178 422 170 418 c 0
 165 416 158 417 153 416 c 1
 167 404 203 403 221 403 c 0
 248 403 272 405 280 414 c 0
 296 432 297 443 297 481 c 0
 297 512 292 524 285 534 c 0
 275 548 255 556 244 556 c 0
 224 556 163 554 147 539 c 0
 140 533 139 529 126 529 c 0
 105 529 104 541 104 553 c 2
 104 750 l 2
 104 760 104 769 117 769 c 0
 120 769 124 767 127 766 c 8
 173 751 173 748 251 748 c 0
 264 748 324 751 370 765 c 0
 382 769 381 769 385 769 c 0
 397 769 398 757 398 752 c 0
 398 728 318 641 200 641 c 2
 157 641 l 1
 157 596 l 1
 181 608 242 609 249 609 c 0
 381 609 434 553 434 481 c 0
 434 405 368 350 225 350 c 0
 130 350 69 397 69 452 c 0
562 57 m 4
 562 241 698 269 799 269 c 4
 889 269 917 218 917 176 c 4
 917 152 904 124 861 124 c 4
 822 124 807 151 807 175 c 4
 807 185 804 210 844 216 c 5
 827 224 808 224 800 224 c 4
 736 224 700 196 695 176 c 4
 691 159 689 146 689 90 c 6
 689 81 l 5
 712 117 753 116 770 116 c 4
 862 116 940 83 940 -16 c 4
 940 -104 873 -150 756 -150 c 4
 698 -150 636 -136 600 -90 c 5
 562 -34 562 22 562 57 c 4
691 -24 m 4
 691 -36 691 -70 700 -80 c 4
 709 -90 724 -102 753 -102 c 4
 780 -102 801 -100 808 -72 c 4
 812 -55 813 -46 813 -14 c 4
 813 22 813 38 806 54 c 4
 798 73 784 74 758 74 c 4
 744 74 691 71 691 -24 c 4
114 -131 m 4
 114 -124 118 -113 132 -97 c 6
 830 721 l 6
 840 732 854 748 868 748 c 4
 877 748 885 740 885 731 c 4
 885 722 876 712 871 706 c 6
 171 -121 l 6
 165 -129 146 -149 131 -149 c 4
 122 -149 114 -140 114 -131 c 4
EndSplineSet
EndChar
StartChar: uF263F
Encoding: 992831 992831 66
Width: 1000
Flags: MW
LayerCount: 2
Fore
SplineSet
57 347 m 1
 57 435 l 1
 58 454 64 457 85 466 c 0
 234 534 314 560 314 628 c 0
 314 658 296 698 228 710 c 0
 218 712 207 713 195 713 c 1
 199 701 201 695 201 683 c 0
 201 640 169 611 129 611 c 0
 87 611 57 644 57 683 c 0
 57 697 60 708 66 717 c 0
 77 735 96 746 120 752 c 4
 155 761 199 761 235 761 c 0
 418 761 453 681 453 628 c 8
 453 547 325 518 286 506 c 1
 263 500 223 484 192 473 c 1
 260 473 l 2
 338 473 374 473 382 481 c 0
 388 486 391 494 393 501 c 0
 396 511 400 531 402 541 c 9
 449 541 l 1
 422 347 l 1
 57 347 l 1
574 93 m 5
 600 289 l 5
 659 289 l 5
 660 284 660 279 668 277 c 5
 674 274 850 269 850 269 c 6
 966 269 l 5
 966 237 966 235 958 229 c 6
 836 118 l 6
 820 103 794 54 788 12 c 4
 784 -14 782 -40 782 -67 c 6
 782 -93 l 6
 782 -152 736 -156 726 -156 c 4
 702 -156 671 -151 671 -95 c 4
 671 31 731 98 802 156 c 13
 802 156 l 5
 727 156 l 6
 712 156 663 156 653 152 c 4
 640 147 641 150 633 93 c 5
 574 93 l 5
114 -131 m 4
 114 -124 118 -113 132 -97 c 6
 830 721 l 6
 840 732 854 748 868 748 c 4
 877 748 885 740 885 731 c 4
 885 722 876 712 871 706 c 6
 171 -121 l 6
 165 -129 146 -149 131 -149 c 4
 122 -149 114 -140 114 -131 c 4
EndSplineSet
EndChar
StartChar: uF2640
Encoding: 992832 992832 67
Width: 1000
Flags: MW
LayerCount: 2
Fore
SplineSet
47 473 m 0
 47 519 82 549 124 549 c 0
 166 549 200 519 200 473 c 0
 200 435 178 417 168 409 c 1
 195 402 224 401 238 401 c 0
 298 401 309 431 309 474 c 0
 309 537 280 549 246 551 c 0
 238 551 230 551 222 551 c 0
 202 551 199 553 194 560 c 1
 190 568 192 577 198 583 c 0
 213 596 245 578 272 609 c 0
 287 626 292 649 292 671 c 0
 292 699 283 721 241 721 c 0
 216 721 198 717 174 706 c 1
 178 704 182 702 187 699 c 0
 203 689 219 671 219 641 c 0
 219 600 187 572 149 572 c 0
 112 572 80 598 80 642 c 0
 80 658 84 675 94 692 c 4
 115 729 162 761 246 761 c 0
 377 761 430 714 430 667 c 0
 430 613 386 587 341 570 c 1
 395 560 462 532 462 475 c 0
 462 428 413 357 244 357 c 0
 84 357 47 426 47 473 c 0
574 93 m 5
 600 289 l 5
 659 289 l 5
 660 284 660 279 668 277 c 5
 674 274 850 269 850 269 c 6
 966 269 l 5
 966 237 966 235 958 229 c 6
 836 118 l 6
 820 103 794 54 788 12 c 4
 784 -14 782 -40 782 -67 c 6
 782 -93 l 6
 782 -152 736 -156 726 -156 c 4
 702 -156 671 -151 671 -95 c 4
 671 31 731 98 802 156 c 13
 802 156 l 5
 727 156 l 6
 712 156 663 156 653 152 c 4
 640 147 641 150 633 93 c 5
 574 93 l 5
114 -131 m 4
 114 -124 118 -113 132 -97 c 6
 830 721 l 6
 840 732 854 748 868 748 c 4
 877 748 885 740 885 731 c 4
 885 722 876 712 871 706 c 6
 171 -121 l 6
 165 -129 146 -149 131 -149 c 4
 122 -149 114 -140 114 -131 c 4
EndSplineSet
EndChar
StartChar: uF2641
Encoding: 992833 992833 68
Width: 1000
Flags: MW
LayerCount: 2
Fore
SplineSet
49 446 m 1
 49 486 l 1
 323 750 l 2
 334 762 333 763 356 763 c 0
 384 763 387 760 387 738 c 2
 387 496 l 1
 453 496 l 1
 453 446 l 1
 387 446 l 1
 387 401 l 1
 455 401 l 1
 455 401 l 1
 455 350 l 1
 435 352 351 352 324 352 c 0
 293 352 201 352 177 350 c 1
 177 401 l 1
 177 401 l 1
 266 401 l 1
 266 446 l 1
 49 446 l 1
140 496 m 1
 277 496 l 1
 277 637 l 1
 140 496 l 1
574 93 m 5
 600 289 l 5
 659 289 l 5
 660 284 660 279 668 277 c 5
 674 274 850 269 850 269 c 6
 966 269 l 5
 966 237 966 235 958 229 c 6
 836 118 l 6
 820 103 794 54 788 12 c 4
 784 -14 782 -40 782 -67 c 6
 782 -93 l 6
 782 -152 736 -156 726 -156 c 4
 702 -156 671 -151 671 -95 c 4
 671 31 731 98 802 156 c 13
 802 156 l 5
 727 156 l 6
 712 156 663 156 653 152 c 4
 640 147 641 150 633 93 c 5
 574 93 l 5
114 -131 m 4
 114 -124 118 -113 132 -97 c 6
 830 721 l 6
 840 732 854 748 868 748 c 4
 877 748 885 740 885 731 c 4
 885 722 876 712 871 706 c 6
 171 -121 l 6
 165 -129 146 -149 131 -149 c 4
 122 -149 114 -140 114 -131 c 4
EndSplineSet
EndChar
StartChar: uF2642
Encoding: 992834 992834 69
Width: 1000
Flags: MW
LayerCount: 2
Fore
SplineSet
69 452 m 0
 69 501 117 509 128 509 c 0
 138 509 187 505 187 452 c 0
 187 421 178 422 170 418 c 0
 165 416 158 417 153 416 c 1
 167 404 203 403 221 403 c 0
 248 403 272 405 280 414 c 0
 296 432 297 443 297 481 c 0
 297 512 292 524 285 534 c 0
 275 548 255 556 244 556 c 0
 224 556 163 554 147 539 c 0
 140 533 139 529 126 529 c 0
 105 529 104 541 104 553 c 2
 104 750 l 2
 104 760 104 769 117 769 c 0
 120 769 124 767 127 766 c 8
 173 751 173 748 251 748 c 0
 264 748 324 751 370 765 c 0
 382 769 381 769 385 769 c 0
 397 769 398 757 398 752 c 0
 398 728 318 641 200 641 c 2
 157 641 l 1
 157 596 l 1
 181 608 242 609 249 609 c 0
 381 609 434 553 434 481 c 0
 434 405 368 350 225 350 c 0
 130 350 69 397 69 452 c 0
574 93 m 5
 600 289 l 5
 659 289 l 5
 660 284 660 279 668 277 c 5
 674 274 850 269 850 269 c 6
 966 269 l 5
 966 237 966 235 958 229 c 6
 836 118 l 6
 820 103 794 54 788 12 c 4
 784 -14 782 -40 782 -67 c 6
 782 -93 l 6
 782 -152 736 -156 726 -156 c 4
 702 -156 671 -151 671 -95 c 4
 671 31 731 98 802 156 c 13
 802 156 l 5
 727 156 l 6
 712 156 663 156 653 152 c 4
 640 147 641 150 633 93 c 5
 574 93 l 5
114 -131 m 4
 114 -124 118 -113 132 -97 c 6
 830 721 l 6
 840 732 854 748 868 748 c 4
 877 748 885 740 885 731 c 4
 885 722 876 712 871 706 c 6
 171 -121 l 6
 165 -129 146 -149 131 -149 c 4
 122 -149 114 -140 114 -131 c 4
EndSplineSet
EndChar
StartChar: uF2643
Encoding: 992835 992835 70
Width: 1000
Flags: MW
LayerCount: 2
Fore
SplineSet
62 557 m 0
 62 741 198 769 299 769 c 0
 389 769 417 718 417 676 c 0
 417 652 404 624 361 624 c 0
 322 624 307 651 307 675 c 0
 307 685 304 710 344 716 c 1
 327 724 308 724 300 724 c 0
 236 724 200 696 195 676 c 0
 191 659 189 646 189 590 c 2
 189 581 l 1
 212 617 253 616 270 616 c 0
 362 616 440 583 440 484 c 0
 440 396 373 350 256 350 c 0
 198 350 136 364 100 410 c 1
 62 466 62 522 62 557 c 0
191 476 m 0
 191 464 191 430 200 420 c 0
 209 410 224 398 253 398 c 0
 280 398 301 400 308 428 c 0
 312 445 313 454 313 486 c 0
 313 522 313 538 306 554 c 0
 298 573 284 574 258 574 c 0
 244 574 191 571 191 476 c 0
574 93 m 5
 600 289 l 5
 659 289 l 5
 660 284 660 279 668 277 c 5
 674 274 850 269 850 269 c 6
 966 269 l 5
 966 237 966 235 958 229 c 6
 836 118 l 6
 820 103 794 54 788 12 c 4
 784 -14 782 -40 782 -67 c 6
 782 -93 l 6
 782 -152 736 -156 726 -156 c 4
 702 -156 671 -151 671 -95 c 4
 671 31 731 98 802 156 c 13
 802 156 l 5
 727 156 l 6
 712 156 663 156 653 152 c 4
 640 147 641 150 633 93 c 5
 574 93 l 5
114 -131 m 4
 114 -124 118 -113 132 -97 c 6
 830 721 l 6
 840 732 854 748 868 748 c 4
 877 748 885 740 885 731 c 4
 885 722 876 712 871 706 c 6
 171 -121 l 6
 165 -129 146 -149 131 -149 c 4
 122 -149 114 -140 114 -131 c 4
EndSplineSet
EndChar
StartChar: uF2644
Encoding: 992836 992836 71
Width: 1000
Flags: MW
LayerCount: 2
Fore
SplineSet
80 638 m 1
 80 686 l 1
 251 690 262 761 298 761 c 0
 322 761 323 744 323 728 c 2
 323 395 l 1
 323 395 l 1
 431 395 l 1
 431 395 l 1
 431 347 l 1
 372 347 l 1
 416 348 l 1
 313 350 l 1
 194 349 l 1
 111 347 l 1
 96 347 l 1
 96 395 l 1
 96 395 l 1
 203 395 l 1
 203 395 l 1
 203 659 l 1
 156 643 129 639 80 638 c 1
562 -39 m 0
 562 -7 563 31 640 60 c 1
 622 67 615 72 603 86 c 0
 592 99 588 123 588 150 c 0
 588 214 629 269 754 269 c 0
 850 269 915 247 915 174 c 0
 915 142 906 119 858 96 c 1
 865 94 878 89 901 69 c 0
 916 59 940 36 940 -16 c 0
 940 -89 894 -150 749 -150 c 0
 642 -150 562 -127 562 -39 c 0
647 -39 m 0
 647 -86 677 -102 754 -102 c 0
 790 -102 855 -89 855 -64 c 0
 855 -41 836 -34 794 -14 c 1
 717 26 737 12 688 35 c 1
 679 31 647 10 647 -39 c 0
672 201 m 0
 672 182 688 176 688 176 c 2
 812 118 l 1
 832 133 840 146 840 173 c 0
 840 215 815 224 749 224 c 0
 743 224 672 224 672 201 c 0
114 -131 m 4
 114 -124 118 -113 132 -97 c 6
 830 721 l 6
 840 732 854 748 868 748 c 4
 877 748 885 740 885 731 c 4
 885 722 876 712 871 706 c 6
 171 -121 l 6
 165 -129 146 -149 131 -149 c 4
 122 -149 114 -140 114 -131 c 4
EndSplineSet
EndChar
StartChar: uF2645
Encoding: 992837 992837 72
Width: 1000
Flags: MW
LayerCount: 2
Fore
SplineSet
47 473 m 0
 47 519 82 549 124 549 c 0
 166 549 200 519 200 473 c 0
 200 435 178 417 168 409 c 1
 195 402 224 401 238 401 c 0
 298 401 309 431 309 474 c 0
 309 537 280 549 246 551 c 0
 238 551 230 551 222 551 c 0
 202 551 199 553 194 560 c 1
 190 568 192 577 198 583 c 0
 213 596 245 578 272 609 c 0
 287 626 292 649 292 671 c 0
 292 699 283 721 241 721 c 0
 216 721 198 717 174 706 c 1
 178 704 182 702 187 699 c 0
 203 689 219 671 219 641 c 0
 219 600 187 572 149 572 c 0
 112 572 80 598 80 642 c 0
 80 658 84 675 94 692 c 4
 115 729 162 761 246 761 c 0
 377 761 430 714 430 667 c 0
 430 613 386 587 341 570 c 1
 395 560 462 532 462 475 c 0
 462 428 413 357 244 357 c 0
 84 357 47 426 47 473 c 0
562 -39 m 4
 562 -7 563 31 640 60 c 5
 622 67 615 72 603 86 c 4
 592 99 588 123 588 150 c 4
 588 214 629 269 754 269 c 4
 850 269 915 247 915 174 c 4
 915 142 906 119 858 96 c 5
 865 94 878 89 901 69 c 4
 916 59 940 36 940 -16 c 4
 940 -89 894 -150 749 -150 c 4
 642 -150 562 -127 562 -39 c 4
647 -39 m 4
 647 -86 677 -102 754 -102 c 4
 790 -102 855 -89 855 -64 c 4
 855 -41 836 -34 794 -14 c 5
 717 26 737 12 688 35 c 5
 679 31 647 10 647 -39 c 4
672 201 m 4
 672 182 688 176 688 176 c 6
 812 118 l 5
 832 133 840 146 840 173 c 4
 840 215 815 224 749 224 c 4
 743 224 672 224 672 201 c 4
114 -131 m 4
 114 -124 118 -113 132 -97 c 6
 830 721 l 6
 840 732 854 748 868 748 c 4
 877 748 885 740 885 731 c 4
 885 722 876 712 871 706 c 6
 171 -121 l 6
 165 -129 146 -149 131 -149 c 4
 122 -149 114 -140 114 -131 c 4
EndSplineSet
EndChar
StartChar: uF2646
Encoding: 992838 992838 73
Width: 1000
Flags: MW
LayerCount: 2
Fore
SplineSet
69 452 m 0
 69 501 117 509 128 509 c 0
 138 509 187 505 187 452 c 0
 187 421 178 422 170 418 c 0
 165 416 158 417 153 416 c 1
 167 404 203 403 221 403 c 0
 248 403 272 405 280 414 c 0
 296 432 297 443 297 481 c 0
 297 512 292 524 285 534 c 0
 275 548 255 556 244 556 c 0
 224 556 163 554 147 539 c 0
 140 533 139 529 126 529 c 0
 105 529 104 541 104 553 c 2
 104 750 l 2
 104 760 104 769 117 769 c 0
 120 769 124 767 127 766 c 8
 173 751 173 748 251 748 c 0
 264 748 324 751 370 765 c 0
 382 769 381 769 385 769 c 0
 397 769 398 757 398 752 c 0
 398 728 318 641 200 641 c 2
 157 641 l 1
 157 596 l 1
 181 608 242 609 249 609 c 0
 381 609 434 553 434 481 c 0
 434 405 368 350 225 350 c 0
 130 350 69 397 69 452 c 0
562 -39 m 4
 562 -7 563 31 640 60 c 5
 622 67 615 72 603 86 c 4
 592 99 588 123 588 150 c 4
 588 214 629 269 754 269 c 4
 850 269 915 247 915 174 c 4
 915 142 906 119 858 96 c 5
 865 94 878 89 901 69 c 4
 916 59 940 36 940 -16 c 4
 940 -89 894 -150 749 -150 c 4
 642 -150 562 -127 562 -39 c 4
647 -39 m 4
 647 -86 677 -102 754 -102 c 4
 790 -102 855 -89 855 -64 c 4
 855 -41 836 -34 794 -14 c 5
 717 26 737 12 688 35 c 5
 679 31 647 10 647 -39 c 4
672 201 m 4
 672 182 688 176 688 176 c 6
 812 118 l 5
 832 133 840 146 840 173 c 4
 840 215 815 224 749 224 c 4
 743 224 672 224 672 201 c 4
114 -131 m 4
 114 -124 118 -113 132 -97 c 6
 830 721 l 6
 840 732 854 748 868 748 c 4
 877 748 885 740 885 731 c 4
 885 722 876 712 871 706 c 6
 171 -121 l 6
 165 -129 146 -149 131 -149 c 4
 122 -149 114 -140 114 -131 c 4
EndSplineSet
EndChar
StartChar: uF2647
Encoding: 992839 992839 74
Width: 1000
Flags: MW
LayerCount: 2
Fore
SplineSet
74 593 m 1
 100 789 l 1
 159 789 l 1
 160 784 160 779 168 777 c 1
 174 774 350 769 350 769 c 2
 466 769 l 1
 466 737 466 735 458 729 c 2
 336 618 l 2
 320 603 294 554 288 512 c 0
 284 486 282 460 282 433 c 2
 282 407 l 2
 282 348 236 344 226 344 c 0
 202 344 171 349 171 405 c 0
 171 531 231 598 302 656 c 9
 302 656 l 1
 227 656 l 2
 212 656 163 656 153 652 c 0
 140 647 141 650 133 593 c 1
 74 593 l 1
562 -39 m 4
 562 -7 563 31 640 60 c 5
 622 67 615 72 603 86 c 4
 592 99 588 123 588 150 c 4
 588 214 629 269 754 269 c 4
 850 269 915 247 915 174 c 4
 915 142 906 119 858 96 c 5
 865 94 878 89 901 69 c 4
 916 59 940 36 940 -16 c 4
 940 -89 894 -150 749 -150 c 4
 642 -150 562 -127 562 -39 c 4
647 -39 m 4
 647 -86 677 -102 754 -102 c 4
 790 -102 855 -89 855 -64 c 4
 855 -41 836 -34 794 -14 c 5
 717 26 737 12 688 35 c 5
 679 31 647 10 647 -39 c 4
672 201 m 4
 672 182 688 176 688 176 c 6
 812 118 l 5
 832 133 840 146 840 173 c 4
 840 215 815 224 749 224 c 4
 743 224 672 224 672 201 c 4
114 -131 m 4
 114 -124 118 -113 132 -97 c 6
 830 721 l 6
 840 732 854 748 868 748 c 4
 877 748 885 740 885 731 c 4
 885 722 876 712 871 706 c 6
 171 -121 l 6
 165 -129 146 -149 131 -149 c 4
 122 -149 114 -140 114 -131 c 4
EndSplineSet
EndChar
StartChar: uF2648
Encoding: 992840 992840 75
Width: 1000
Flags: MW
LayerCount: 2
Fore
SplineSet
80 638 m 1
 80 686 l 1
 251 690 262 761 298 761 c 0
 322 761 323 744 323 728 c 2
 323 395 l 1
 323 395 l 1
 431 395 l 1
 431 395 l 1
 431 347 l 1
 372 347 l 1
 416 348 l 1
 313 350 l 1
 194 349 l 1
 111 347 l 1
 96 347 l 1
 96 395 l 1
 96 395 l 1
 203 395 l 1
 203 395 l 1
 203 659 l 1
 156 643 129 639 80 638 c 1
562 135 m 4
 562 177 585 224 621 243 c 5
 650 257 697 269 752 269 c 4
 924 269 940 152 940 64 c 4
 940 -129 806 -150 714 -150 c 4
 618 -150 585 -103 585 -58 c 4
 585 -34 598 -6 641 -6 c 4
 680 -6 696 -32 696 -56 c 4
 696 -97 663 -97 663 -97 c 5
 686 -101 699 -102 712 -102 c 4
 785 -102 810 -64 809 -53 c 4
 813 -36 813 -1 813 31 c 6
 813 38 l 5
 788 5 739 3 733 3 c 4
 639 3 562 37 562 135 c 4
689 133 m 4
 689 95 690 69 698 60 c 4
 708 48 719 45 744 45 c 4
 800 45 813 105 813 133 c 4
 813 147 813 184 808 196 c 4
 799 217 788 224 754 224 c 4
 719 224 703 212 698 198 c 4
 694 186 689 167 689 133 c 4
114 -131 m 4
 114 -124 118 -113 132 -97 c 6
 830 721 l 6
 840 732 854 748 868 748 c 4
 877 748 885 740 885 731 c 4
 885 722 876 712 871 706 c 6
 171 -121 l 6
 165 -129 146 -149 131 -149 c 4
 122 -149 114 -140 114 -131 c 4
EndSplineSet
EndChar
StartChar: uF2649
Encoding: 992841 992841 76
Width: 1000
Flags: MW
LayerCount: 2
Fore
SplineSet
57 347 m 1
 57 435 l 1
 58 454 64 457 85 466 c 0
 234 534 314 560 314 628 c 0
 314 658 296 698 228 710 c 0
 218 712 207 713 195 713 c 1
 199 701 201 695 201 683 c 0
 201 640 169 611 129 611 c 0
 87 611 57 644 57 683 c 0
 57 697 60 708 66 717 c 0
 77 735 96 746 120 752 c 4
 155 761 199 761 235 761 c 0
 418 761 453 681 453 628 c 8
 453 547 325 518 286 506 c 1
 263 500 223 484 192 473 c 1
 260 473 l 2
 338 473 374 473 382 481 c 0
 388 486 391 494 393 501 c 0
 396 511 400 531 402 541 c 9
 449 541 l 1
 422 347 l 1
 57 347 l 1
562 135 m 4
 562 177 585 224 621 243 c 5
 650 257 697 269 752 269 c 4
 924 269 940 152 940 64 c 4
 940 -129 806 -150 714 -150 c 4
 618 -150 585 -103 585 -58 c 4
 585 -34 598 -6 641 -6 c 4
 680 -6 696 -32 696 -56 c 4
 696 -97 663 -97 663 -97 c 5
 686 -101 699 -102 712 -102 c 4
 785 -102 810 -64 809 -53 c 4
 813 -36 813 -1 813 31 c 6
 813 38 l 5
 788 5 739 3 733 3 c 4
 639 3 562 37 562 135 c 4
689 133 m 4
 689 95 690 69 698 60 c 4
 708 48 719 45 744 45 c 4
 800 45 813 105 813 133 c 4
 813 147 813 184 808 196 c 4
 799 217 788 224 754 224 c 4
 719 224 703 212 698 198 c 4
 694 186 689 167 689 133 c 4
114 -131 m 4
 114 -124 118 -113 132 -97 c 6
 830 721 l 6
 840 732 854 748 868 748 c 4
 877 748 885 740 885 731 c 4
 885 722 876 712 871 706 c 6
 171 -121 l 6
 165 -129 146 -149 131 -149 c 4
 122 -149 114 -140 114 -131 c 4
EndSplineSet
EndChar
StartChar: uF264A
Encoding: 992842 992842 77
Width: 1000
Flags: MW
LayerCount: 2
Fore
SplineSet
49 446 m 1
 49 486 l 1
 323 750 l 2
 334 762 333 763 356 763 c 0
 384 763 387 760 387 738 c 2
 387 496 l 1
 453 496 l 1
 453 446 l 1
 387 446 l 1
 387 401 l 1
 455 401 l 1
 455 401 l 1
 455 350 l 1
 435 352 351 352 324 352 c 0
 293 352 201 352 177 350 c 1
 177 401 l 1
 177 401 l 1
 266 401 l 1
 266 446 l 1
 49 446 l 1
140 496 m 1
 277 496 l 1
 277 637 l 1
 140 496 l 1
562 135 m 4
 562 177 585 224 621 243 c 5
 650 257 697 269 752 269 c 4
 924 269 940 152 940 64 c 4
 940 -129 806 -150 714 -150 c 4
 618 -150 585 -103 585 -58 c 4
 585 -34 598 -6 641 -6 c 4
 680 -6 696 -32 696 -56 c 4
 696 -97 663 -97 663 -97 c 5
 686 -101 699 -102 712 -102 c 4
 785 -102 810 -64 809 -53 c 4
 813 -36 813 -1 813 31 c 6
 813 38 l 5
 788 5 739 3 733 3 c 4
 639 3 562 37 562 135 c 4
689 133 m 4
 689 95 690 69 698 60 c 4
 708 48 719 45 744 45 c 4
 800 45 813 105 813 133 c 4
 813 147 813 184 808 196 c 4
 799 217 788 224 754 224 c 4
 719 224 703 212 698 198 c 4
 694 186 689 167 689 133 c 4
114 -131 m 4
 114 -124 118 -113 132 -97 c 6
 830 721 l 6
 840 732 854 748 868 748 c 4
 877 748 885 740 885 731 c 4
 885 722 876 712 871 706 c 6
 171 -121 l 6
 165 -129 146 -149 131 -149 c 4
 122 -149 114 -140 114 -131 c 4
EndSplineSet
EndChar
StartChar: uF264B
Encoding: 992843 992843 78
Width: 1000
Flags: MW
LayerCount: 2
Fore
SplineSet
69 452 m 0
 69 501 117 509 128 509 c 0
 138 509 187 505 187 452 c 0
 187 421 178 422 170 418 c 0
 165 416 158 417 153 416 c 1
 167 404 203 403 221 403 c 0
 248 403 272 405 280 414 c 0
 296 432 297 443 297 481 c 0
 297 512 292 524 285 534 c 0
 275 548 255 556 244 556 c 0
 224 556 163 554 147 539 c 0
 140 533 139 529 126 529 c 0
 105 529 104 541 104 553 c 2
 104 750 l 2
 104 760 104 769 117 769 c 0
 120 769 124 767 127 766 c 8
 173 751 173 748 251 748 c 0
 264 748 324 751 370 765 c 0
 382 769 381 769 385 769 c 0
 397 769 398 757 398 752 c 0
 398 728 318 641 200 641 c 2
 157 641 l 1
 157 596 l 1
 181 608 242 609 249 609 c 0
 381 609 434 553 434 481 c 0
 434 405 368 350 225 350 c 0
 130 350 69 397 69 452 c 0
562 135 m 4
 562 177 585 224 621 243 c 5
 650 257 697 269 752 269 c 4
 924 269 940 152 940 64 c 4
 940 -129 806 -150 714 -150 c 4
 618 -150 585 -103 585 -58 c 4
 585 -34 598 -6 641 -6 c 4
 680 -6 696 -32 696 -56 c 4
 696 -97 663 -97 663 -97 c 5
 686 -101 699 -102 712 -102 c 4
 785 -102 810 -64 809 -53 c 4
 813 -36 813 -1 813 31 c 6
 813 38 l 5
 788 5 739 3 733 3 c 4
 639 3 562 37 562 135 c 4
689 133 m 4
 689 95 690 69 698 60 c 4
 708 48 719 45 744 45 c 4
 800 45 813 105 813 133 c 4
 813 147 813 184 808 196 c 4
 799 217 788 224 754 224 c 4
 719 224 703 212 698 198 c 4
 694 186 689 167 689 133 c 4
114 -131 m 4
 114 -124 118 -113 132 -97 c 6
 830 721 l 6
 840 732 854 748 868 748 c 4
 877 748 885 740 885 731 c 4
 885 722 876 712 871 706 c 6
 171 -121 l 6
 165 -129 146 -149 131 -149 c 4
 122 -149 114 -140 114 -131 c 4
EndSplineSet
EndChar
StartChar: uF264C
Encoding: 992844 992844 79
Width: 1000
Flags: MW
LayerCount: 2
Fore
SplineSet
74 593 m 1
 100 789 l 1
 159 789 l 1
 160 784 160 779 168 777 c 1
 174 774 350 769 350 769 c 2
 466 769 l 1
 466 737 466 735 458 729 c 2
 336 618 l 2
 320 603 294 554 288 512 c 0
 284 486 282 460 282 433 c 2
 282 407 l 2
 282 348 236 344 226 344 c 0
 202 344 171 349 171 405 c 0
 171 531 231 598 302 656 c 9
 302 656 l 1
 227 656 l 2
 212 656 163 656 153 652 c 0
 140 647 141 650 133 593 c 1
 74 593 l 1
562 135 m 4
 562 177 585 224 621 243 c 5
 650 257 697 269 752 269 c 4
 924 269 940 152 940 64 c 4
 940 -129 806 -150 714 -150 c 4
 618 -150 585 -103 585 -58 c 4
 585 -34 598 -6 641 -6 c 4
 680 -6 696 -32 696 -56 c 4
 696 -97 663 -97 663 -97 c 5
 686 -101 699 -102 712 -102 c 4
 785 -102 810 -64 809 -53 c 4
 813 -36 813 -1 813 31 c 6
 813 38 l 5
 788 5 739 3 733 3 c 4
 639 3 562 37 562 135 c 4
689 133 m 4
 689 95 690 69 698 60 c 4
 708 48 719 45 744 45 c 4
 800 45 813 105 813 133 c 4
 813 147 813 184 808 196 c 4
 799 217 788 224 754 224 c 4
 719 224 703 212 698 198 c 4
 694 186 689 167 689 133 c 4
114 -131 m 4
 114 -124 118 -113 132 -97 c 6
 830 721 l 6
 840 732 854 748 868 748 c 4
 877 748 885 740 885 731 c 4
 885 722 876 712 871 706 c 6
 171 -121 l 6
 165 -129 146 -149 131 -149 c 4
 122 -149 114 -140 114 -131 c 4
EndSplineSet
EndChar
StartChar: uF264D
Encoding: 992845 992845 80
Width: 1000
Flags: MW
LayerCount: 2
Fore
SplineSet
62 461 m 0
 62 493 63 531 140 560 c 1
 122 567 115 572 103 586 c 0
 92 599 88 623 88 650 c 0
 88 714 129 769 254 769 c 0
 350 769 415 747 415 674 c 0
 415 642 406 619 358 596 c 1
 365 594 378 589 401 569 c 0
 416 559 440 536 440 484 c 0
 440 411 394 350 249 350 c 0
 142 350 62 373 62 461 c 0
147 461 m 0
 147 414 177 398 254 398 c 0
 290 398 355 411 355 436 c 0
 355 459 336 466 294 486 c 1
 217 526 237 512 188 535 c 1
 179 531 147 510 147 461 c 0
172 701 m 0
 172 682 188 676 188 676 c 2
 312 618 l 1
 332 633 340 646 340 673 c 0
 340 715 315 724 249 724 c 0
 243 724 172 724 172 701 c 0
562 135 m 4
 562 177 585 224 621 243 c 5
 650 257 697 269 752 269 c 4
 924 269 940 152 940 64 c 4
 940 -129 806 -150 714 -150 c 4
 618 -150 585 -103 585 -58 c 4
 585 -34 598 -6 641 -6 c 4
 680 -6 696 -32 696 -56 c 4
 696 -97 663 -97 663 -97 c 5
 686 -101 699 -102 712 -102 c 4
 785 -102 810 -64 809 -53 c 4
 813 -36 813 -1 813 31 c 6
 813 38 l 5
 788 5 739 3 733 3 c 4
 639 3 562 37 562 135 c 4
689 133 m 4
 689 95 690 69 698 60 c 4
 708 48 719 45 744 45 c 4
 800 45 813 105 813 133 c 4
 813 147 813 184 808 196 c 4
 799 217 788 224 754 224 c 4
 719 224 703 212 698 198 c 4
 694 186 689 167 689 133 c 4
114 -131 m 4
 114 -124 118 -113 132 -97 c 6
 830 721 l 6
 840 732 854 748 868 748 c 4
 877 748 885 740 885 731 c 4
 885 722 876 712 871 706 c 6
 171 -121 l 6
 165 -129 146 -149 131 -149 c 4
 122 -149 114 -140 114 -131 c 4
EndSplineSet
EndChar
StartChar: uF264E
Encoding: 992846 992846 81
Width: 1000
Flags: MW
LayerCount: 2
Fore
SplineSet
114 -131 m 0
 114 -124 118 -113 132 -97 c 2
 830 721 l 2
 840 732 854 748 868 748 c 0
 877 748 885 740 885 731 c 0
 885 722 876 712 871 706 c 2
 171 -121 l 2
 165 -129 146 -149 131 -149 c 0
 122 -149 114 -140 114 -131 c 0
799 64 m 0
 799 31 799 -34 801 -63 c 0
 804 -95 819 -108 829 -108 c 0
 833 -108 853 -109 857 -50 c 0
 858 -24 859 40 859 64 c 0
 859 130 859 194 852 206 c 0
 847 214 841 226 829 226 c 0
 822 226 803 219 801 181 c 0
 798 149 799 116 799 64 c 0
703 57 m 0
 703 87 705 162 740 221 c 24
 762 258 778 269 828 269 c 0
 878 269 897 249 909 237 c 0
 952 195 954 91 954 57 c 0
 954 21 957 -64 908 -122 c 0
 891 -142 877 -150 829 -150 c 0
 778 -150 757 -138 741 -113 c 0
 712 -68 703 20 703 57 c 0
489 138 m 1
 489 186 l 1
 591 190 597 261 627 261 c 0
 647 261 647 244 647 228 c 2
 647 -105 l 1
 647 -105 l 1
 697 -105 l 1
 697 -105 l 1
 697 -153 l 1
 662 -153 l 1
 689 -152 l 1
 627 -150 l 1
 556 -151 l 1
 507 -153 l 1
 498 -153 l 1
 498 -105 l 1
 498 -105 l 1
 548 -105 l 1
 548 -105 l 1
 548 154 l 1
 518 139 518 139 489 138 c 1
80 638 m 1
 80 686 l 1
 251 690 262 761 298 761 c 0
 322 761 323 744 323 728 c 2
 323 395 l 1
 323 395 l 1
 431 395 l 1
 431 395 l 1
 431 347 l 1
 372 347 l 1
 416 348 l 1
 313 350 l 1
 194 349 l 1
 111 347 l 1
 96 347 l 1
 96 395 l 1
 96 395 l 1
 203 395 l 1
 203 395 l 1
 203 659 l 1
 156 643 129 639 80 638 c 1
EndSplineSet
EndChar
StartChar: uF264F
Encoding: 992847 992847 82
Width: 1000
Flags: MW
LayerCount: 2
Fore
SplineSet
114 -131 m 0
 114 -124 118 -113 132 -97 c 2
 830 721 l 2
 840 732 854 748 868 748 c 0
 877 748 885 740 885 731 c 0
 885 722 876 712 871 706 c 2
 171 -121 l 2
 165 -129 146 -149 131 -149 c 0
 122 -149 114 -140 114 -131 c 0
799 64 m 0
 799 31 799 -34 801 -63 c 0
 804 -95 819 -108 829 -108 c 0
 833 -108 853 -109 857 -50 c 0
 858 -24 859 40 859 64 c 0
 859 130 859 194 852 206 c 0
 847 214 841 226 829 226 c 0
 822 226 803 219 801 181 c 0
 798 149 799 116 799 64 c 0
703 57 m 0
 703 87 705 162 740 221 c 24
 762 258 778 269 828 269 c 0
 878 269 897 249 909 237 c 0
 952 195 954 91 954 57 c 0
 954 21 957 -64 908 -122 c 0
 891 -142 877 -150 829 -150 c 0
 778 -150 757 -138 741 -113 c 0
 712 -68 703 20 703 57 c 0
489 138 m 1
 489 186 l 1
 591 190 597 261 627 261 c 0
 647 261 647 244 647 228 c 2
 647 -105 l 1
 647 -105 l 1
 697 -105 l 1
 697 -105 l 1
 697 -153 l 1
 662 -153 l 1
 689 -152 l 1
 627 -150 l 1
 556 -151 l 1
 507 -153 l 1
 498 -153 l 1
 498 -105 l 1
 498 -105 l 1
 548 -105 l 1
 548 -105 l 1
 548 154 l 1
 518 139 518 139 489 138 c 1
47 473 m 0
 47 519 82 549 124 549 c 0
 166 549 200 519 200 473 c 0
 200 435 178 417 168 409 c 1
 195 402 224 401 238 401 c 0
 298 401 309 431 309 474 c 0
 309 537 280 549 246 551 c 0
 238 551 230 551 222 551 c 0
 202 551 199 553 194 560 c 1
 190 568 192 577 198 583 c 0
 213 596 245 578 272 609 c 0
 287 626 292 649 292 671 c 0
 292 699 283 721 241 721 c 0
 216 721 198 717 174 706 c 1
 178 704 182 702 187 699 c 0
 203 689 219 671 219 641 c 0
 219 600 187 572 149 572 c 0
 112 572 80 598 80 642 c 0
 80 658 84 675 94 692 c 0
 115 729 162 761 246 761 c 0
 377 761 430 714 430 667 c 0
 430 613 386 587 341 570 c 1
 395 560 462 532 462 475 c 0
 462 428 413 357 244 357 c 0
 84 357 47 426 47 473 c 0
EndSplineSet
EndChar
StartChar: uF2650
Encoding: 992848 992848 83
Width: 1000
Flags: MW
LayerCount: 2
Fore
SplineSet
114 -131 m 0
 114 -124 118 -113 132 -97 c 2
 830 721 l 2
 840 732 854 748 868 748 c 0
 877 748 885 740 885 731 c 0
 885 722 876 712 871 706 c 2
 171 -121 l 2
 165 -129 146 -149 131 -149 c 0
 122 -149 114 -140 114 -131 c 0
799 64 m 0
 799 31 799 -34 801 -63 c 0
 804 -95 819 -108 829 -108 c 0
 833 -108 853 -109 857 -50 c 0
 858 -24 859 40 859 64 c 0
 859 130 859 194 852 206 c 0
 847 214 841 226 829 226 c 0
 822 226 803 219 801 181 c 0
 798 149 799 116 799 64 c 0
703 57 m 0
 703 87 705 162 740 221 c 24
 762 258 778 269 828 269 c 0
 878 269 897 249 909 237 c 0
 952 195 954 91 954 57 c 0
 954 21 957 -64 908 -122 c 0
 891 -142 877 -150 829 -150 c 0
 778 -150 757 -138 741 -113 c 0
 712 -68 703 20 703 57 c 0
489 138 m 1
 489 186 l 1
 591 190 597 261 627 261 c 0
 647 261 647 244 647 228 c 2
 647 -105 l 1
 647 -105 l 1
 697 -105 l 1
 697 -105 l 1
 697 -153 l 1
 662 -153 l 1
 689 -152 l 1
 627 -150 l 1
 556 -151 l 1
 507 -153 l 1
 498 -153 l 1
 498 -105 l 1
 498 -105 l 1
 548 -105 l 1
 548 -105 l 1
 548 154 l 1
 518 139 518 139 489 138 c 1
74 593 m 1
 100 789 l 1
 159 789 l 1
 160 784 160 779 168 777 c 1
 174 774 350 769 350 769 c 2
 466 769 l 1
 466 737 466 735 458 729 c 2
 336 618 l 2
 320 603 294 554 288 512 c 0
 284 486 282 460 282 433 c 2
 282 407 l 2
 282 348 236 344 226 344 c 0
 202 344 171 349 171 405 c 0
 171 531 231 598 302 656 c 9
 302 656 l 1
 227 656 l 2
 212 656 163 656 153 652 c 0
 140 647 141 650 133 593 c 1
 74 593 l 1
EndSplineSet
EndChar
StartChar: uF2651
Encoding: 992849 992849 84
Width: 1000
Flags: MW
LayerCount: 2
Fore
SplineSet
114 -131 m 0
 114 -124 118 -113 132 -97 c 2
 830 721 l 2
 840 732 854 748 868 748 c 0
 877 748 885 740 885 731 c 0
 885 722 876 712 871 706 c 2
 171 -121 l 2
 165 -129 146 -149 131 -149 c 0
 122 -149 114 -140 114 -131 c 0
799 64 m 0
 799 31 799 -34 801 -63 c 0
 804 -95 819 -108 829 -108 c 0
 833 -108 853 -109 857 -50 c 0
 858 -24 859 40 859 64 c 0
 859 130 859 194 852 206 c 0
 847 214 841 226 829 226 c 0
 822 226 803 219 801 181 c 0
 798 149 799 116 799 64 c 0
703 57 m 0
 703 87 705 162 740 221 c 24
 762 258 778 269 828 269 c 0
 878 269 897 249 909 237 c 0
 952 195 954 91 954 57 c 0
 954 21 957 -64 908 -122 c 0
 891 -142 877 -150 829 -150 c 0
 778 -150 757 -138 741 -113 c 0
 712 -68 703 20 703 57 c 0
489 138 m 1
 489 186 l 1
 591 190 597 261 627 261 c 0
 647 261 647 244 647 228 c 2
 647 -105 l 1
 647 -105 l 1
 697 -105 l 1
 697 -105 l 1
 697 -153 l 1
 662 -153 l 1
 689 -152 l 1
 627 -150 l 1
 556 -151 l 1
 507 -153 l 1
 498 -153 l 1
 498 -105 l 1
 498 -105 l 1
 548 -105 l 1
 548 -105 l 1
 548 154 l 1
 518 139 518 139 489 138 c 1
189 633 m 0
 189 595 190 569 198 560 c 0
 208 548 219 545 244 545 c 0
 300 545 313 605 313 633 c 0
 313 647 313 684 308 696 c 0
 299 717 288 724 254 724 c 0
 219 724 203 712 198 698 c 0
 194 686 189 667 189 633 c 0
62 635 m 0
 62 677 85 724 121 743 c 1
 150 757 197 769 252 769 c 0
 424 769 440 652 440 564 c 0
 440 371 306 350 214 350 c 0
 118 350 85 397 85 442 c 0
 85 466 98 494 141 494 c 0
 180 494 196 468 196 444 c 0
 196 403 163 403 163 403 c 1
 186 399 199 398 212 398 c 0
 285 398 310 436 309 447 c 0
 313 464 313 499 313 531 c 2
 313 538 l 1
 288 505 239 503 233 503 c 0
 139 503 62 537 62 635 c 0
EndSplineSet
EndChar
StartChar: uF2652
Encoding: 992850 992850 85
Width: 1000
Flags: MW
LayerCount: 2
Fore
SplineSet
470 138 m 1
 470 186 l 1
 583 190 590 261 623 261 c 0
 645 261 647 244 647 228 c 2
 647 -105 l 1
 647 -105 l 1
 702 -105 l 1
 702 -105 l 1
 702 -153 l 1
 663 -153 l 1
 692 -152 l 1
 624 -150 l 1
 545 -151 l 1
 490 -153 l 1
 480 -153 l 1
 480 -105 l 1
 480 -105 l 1
 535 -105 l 1
 535 -105 l 1
 535 154 l 1
 502 139 502 139 470 138 c 1
80 638 m 1
 80 686 l 1
 251 690 262 761 298 761 c 0
 322 761 323 744 323 728 c 2
 323 395 l 1
 323 395 l 1
 431 395 l 1
 431 395 l 1
 431 347 l 1
 372 347 l 1
 416 348 l 1
 313 350 l 1
 194 349 l 1
 111 347 l 1
 96 347 l 1
 96 395 l 1
 96 395 l 1
 203 395 l 1
 203 395 l 1
 203 659 l 1
 156 643 129 639 80 638 c 1
702 138 m 1
 702 186 l 1
 815 190 822 261 855 261 c 0
 877 261 878 244 878 228 c 2
 878 -105 l 1
 878 -105 l 1
 934 -105 l 1
 934 -105 l 1
 934 -153 l 1
 895 -153 l 1
 924 -152 l 1
 856 -150 l 1
 777 -151 l 1
 722 -153 l 1
 712 -153 l 1
 712 -105 l 1
 712 -105 l 1
 767 -105 l 1
 767 -105 l 1
 767 154 l 1
 734 139 734 139 702 138 c 1
114 -131 m 4
 114 -124 118 -113 132 -97 c 6
 830 721 l 6
 840 732 854 748 868 748 c 4
 877 748 885 740 885 731 c 4
 885 722 876 712 871 706 c 6
 171 -121 l 6
 165 -129 146 -149 131 -149 c 4
 122 -149 114 -140 114 -131 c 4
EndSplineSet
EndChar
StartChar: uF2653
Encoding: 992851 992851 86
Width: 1000
Flags: MW
LayerCount: 2
Fore
SplineSet
57 347 m 1
 57 435 l 1
 58 454 64 457 85 466 c 0
 234 534 314 560 314 628 c 0
 314 658 296 698 228 710 c 0
 218 712 207 713 195 713 c 1
 199 701 201 695 201 683 c 0
 201 640 169 611 129 611 c 0
 87 611 57 644 57 683 c 0
 57 697 60 708 66 717 c 0
 77 735 96 746 120 752 c 4
 155 761 199 761 235 761 c 0
 418 761 453 681 453 628 c 8
 453 547 325 518 286 506 c 1
 263 500 223 484 192 473 c 1
 260 473 l 2
 338 473 374 473 382 481 c 0
 388 486 391 494 393 501 c 0
 396 511 400 531 402 541 c 9
 449 541 l 1
 422 347 l 1
 57 347 l 1
470 138 m 5
 470 186 l 5
 583 190 590 261 623 261 c 4
 645 261 647 244 647 228 c 6
 647 -105 l 5
 647 -105 l 5
 702 -105 l 5
 702 -105 l 5
 702 -153 l 5
 663 -153 l 5
 692 -152 l 5
 624 -150 l 5
 545 -151 l 5
 490 -153 l 5
 480 -153 l 5
 480 -105 l 5
 480 -105 l 5
 535 -105 l 5
 535 -105 l 5
 535 154 l 5
 502 139 502 139 470 138 c 5
702 138 m 5
 702 186 l 5
 815 190 822 261 855 261 c 4
 877 261 878 244 878 228 c 6
 878 -105 l 5
 878 -105 l 5
 934 -105 l 5
 934 -105 l 5
 934 -153 l 5
 895 -153 l 5
 924 -152 l 5
 856 -150 l 5
 777 -151 l 5
 722 -153 l 5
 712 -153 l 5
 712 -105 l 5
 712 -105 l 5
 767 -105 l 5
 767 -105 l 5
 767 154 l 5
 734 139 734 139 702 138 c 5
114 -131 m 4
 114 -124 118 -113 132 -97 c 6
 830 721 l 6
 840 732 854 748 868 748 c 4
 877 748 885 740 885 731 c 4
 885 722 876 712 871 706 c 6
 171 -121 l 6
 165 -129 146 -149 131 -149 c 4
 122 -149 114 -140 114 -131 c 4
EndSplineSet
EndChar
StartChar: uF2654
Encoding: 992852 992852 87
Width: 1000
Flags: MW
LayerCount: 2
Fore
SplineSet
114 -131 m 0
 114 -124 118 -113 132 -97 c 2
 830 721 l 2
 840 732 854 748 868 748 c 0
 877 748 885 740 885 731 c 0
 885 722 876 712 871 706 c 2
 171 -121 l 2
 165 -129 146 -149 131 -149 c 0
 122 -149 114 -140 114 -131 c 0
702 138 m 1
 702 186 l 1
 815 190 822 261 855 261 c 0
 877 261 878 244 878 228 c 2
 878 -105 l 1
 878 -105 l 1
 934 -105 l 1
 934 -105 l 1
 934 -153 l 1
 895 -153 l 1
 924 -152 l 1
 856 -150 l 1
 777 -151 l 1
 722 -153 l 1
 712 -153 l 1
 712 -105 l 1
 712 -105 l 1
 767 -105 l 1
 767 -105 l 1
 767 154 l 1
 734 139 734 139 702 138 c 1
470 138 m 1
 470 186 l 1
 583 190 590 261 623 261 c 0
 645 261 647 244 647 228 c 2
 647 -105 l 1
 647 -105 l 1
 702 -105 l 1
 702 -105 l 1
 702 -153 l 1
 663 -153 l 1
 692 -152 l 1
 624 -150 l 1
 545 -151 l 1
 490 -153 l 1
 480 -153 l 1
 480 -105 l 1
 480 -105 l 1
 535 -105 l 1
 535 -105 l 1
 535 154 l 1
 502 139 502 139 470 138 c 1
47 473 m 0
 47 519 82 549 124 549 c 0
 166 549 200 519 200 473 c 0
 200 435 178 417 168 409 c 1
 195 402 224 401 238 401 c 0
 298 401 309 431 309 474 c 0
 309 537 280 549 246 551 c 0
 238 551 230 551 222 551 c 0
 202 551 199 553 194 560 c 1
 190 568 192 577 198 583 c 0
 213 596 245 578 272 609 c 0
 287 626 292 649 292 671 c 0
 292 699 283 721 241 721 c 0
 216 721 198 717 174 706 c 1
 178 704 182 702 187 699 c 0
 203 689 219 671 219 641 c 0
 219 600 187 572 149 572 c 0
 112 572 80 598 80 642 c 0
 80 658 84 675 94 692 c 0
 115 729 162 761 246 761 c 0
 377 761 430 714 430 667 c 0
 430 613 386 587 341 570 c 1
 395 560 462 532 462 475 c 0
 462 428 413 357 244 357 c 0
 84 357 47 426 47 473 c 0
EndSplineSet
EndChar
StartChar: uF2655
Encoding: 992853 992853 88
Width: 1000
Flags: MW
LayerCount: 2
Fore
SplineSet
114 -131 m 0
 114 -124 118 -113 132 -97 c 2
 830 721 l 2
 840 732 854 748 868 748 c 0
 877 748 885 740 885 731 c 0
 885 722 876 712 871 706 c 2
 171 -121 l 2
 165 -129 146 -149 131 -149 c 0
 122 -149 114 -140 114 -131 c 0
702 138 m 1
 702 186 l 1
 815 190 822 261 855 261 c 0
 877 261 878 244 878 228 c 2
 878 -105 l 1
 878 -105 l 1
 934 -105 l 1
 934 -105 l 1
 934 -153 l 1
 895 -153 l 1
 924 -152 l 1
 856 -150 l 1
 777 -151 l 1
 722 -153 l 1
 712 -153 l 1
 712 -105 l 1
 712 -105 l 1
 767 -105 l 1
 767 -105 l 1
 767 154 l 1
 734 139 734 139 702 138 c 1
470 138 m 1
 470 186 l 1
 583 190 590 261 623 261 c 0
 645 261 647 244 647 228 c 2
 647 -105 l 1
 647 -105 l 1
 702 -105 l 1
 702 -105 l 1
 702 -153 l 1
 663 -153 l 1
 692 -152 l 1
 624 -150 l 1
 545 -151 l 1
 490 -153 l 1
 480 -153 l 1
 480 -105 l 1
 480 -105 l 1
 535 -105 l 1
 535 -105 l 1
 535 154 l 1
 502 139 502 139 470 138 c 1
140 496 m 1
 277 496 l 1
 277 637 l 1
 140 496 l 1
49 446 m 1
 49 486 l 1
 323 750 l 2
 334 762 333 763 356 763 c 0
 384 763 387 760 387 738 c 2
 387 496 l 1
 453 496 l 1
 453 446 l 1
 387 446 l 1
 387 401 l 1
 455 401 l 1
 455 401 l 1
 455 350 l 1
 435 352 351 352 324 352 c 0
 293 352 201 352 177 350 c 1
 177 401 l 1
 177 401 l 1
 266 401 l 1
 266 446 l 1
 49 446 l 1
EndSplineSet
EndChar
StartChar: uF2656
Encoding: 992854 992854 89
Width: 1000
Flags: MW
LayerCount: 2
Fore
SplineSet
114 -131 m 0
 114 -124 118 -113 132 -97 c 2
 830 721 l 2
 840 732 854 748 868 748 c 0
 877 748 885 740 885 731 c 0
 885 722 876 712 871 706 c 2
 171 -121 l 2
 165 -129 146 -149 131 -149 c 0
 122 -149 114 -140 114 -131 c 0
702 138 m 1
 702 186 l 1
 815 190 822 261 855 261 c 0
 877 261 878 244 878 228 c 2
 878 -105 l 1
 878 -105 l 1
 934 -105 l 1
 934 -105 l 1
 934 -153 l 1
 895 -153 l 1
 924 -152 l 1
 856 -150 l 1
 777 -151 l 1
 722 -153 l 1
 712 -153 l 1
 712 -105 l 1
 712 -105 l 1
 767 -105 l 1
 767 -105 l 1
 767 154 l 1
 734 139 734 139 702 138 c 1
470 138 m 1
 470 186 l 1
 583 190 590 261 623 261 c 0
 645 261 647 244 647 228 c 2
 647 -105 l 1
 647 -105 l 1
 702 -105 l 1
 702 -105 l 1
 702 -153 l 1
 663 -153 l 1
 692 -152 l 1
 624 -150 l 1
 545 -151 l 1
 490 -153 l 1
 480 -153 l 1
 480 -105 l 1
 480 -105 l 1
 535 -105 l 1
 535 -105 l 1
 535 154 l 1
 502 139 502 139 470 138 c 1
69 452 m 0
 69 501 117 509 128 509 c 0
 138 509 187 505 187 452 c 0
 187 421 178 422 170 418 c 0
 165 416 158 417 153 416 c 1
 167 404 203 403 221 403 c 0
 248 403 272 405 280 414 c 0
 296 432 297 443 297 481 c 0
 297 512 292 524 285 534 c 0
 275 548 255 556 244 556 c 0
 224 556 163 554 147 539 c 0
 140 533 139 529 126 529 c 0
 105 529 104 541 104 553 c 2
 104 750 l 2
 104 760 104 769 117 769 c 0
 120 769 124 767 127 766 c 8
 173 751 173 748 251 748 c 0
 264 748 324 751 370 765 c 0
 382 769 381 769 385 769 c 0
 397 769 398 757 398 752 c 0
 398 728 318 641 200 641 c 2
 157 641 l 1
 157 596 l 1
 181 608 242 609 249 609 c 0
 381 609 434 553 434 481 c 0
 434 405 368 350 225 350 c 0
 130 350 69 397 69 452 c 0
EndSplineSet
EndChar
StartChar: uF2657
Encoding: 992855 992855 90
Width: 1000
Flags: MW
LayerCount: 2
Fore
SplineSet
114 -131 m 0
 114 -124 118 -113 132 -97 c 2
 830 721 l 2
 840 732 854 748 868 748 c 0
 877 748 885 740 885 731 c 0
 885 722 876 712 871 706 c 2
 171 -121 l 2
 165 -129 146 -149 131 -149 c 0
 122 -149 114 -140 114 -131 c 0
702 138 m 1
 702 186 l 1
 815 190 822 261 855 261 c 0
 877 261 878 244 878 228 c 2
 878 -105 l 1
 878 -105 l 1
 934 -105 l 1
 934 -105 l 1
 934 -153 l 1
 895 -153 l 1
 924 -152 l 1
 856 -150 l 1
 777 -151 l 1
 722 -153 l 1
 712 -153 l 1
 712 -105 l 1
 712 -105 l 1
 767 -105 l 1
 767 -105 l 1
 767 154 l 1
 734 139 734 139 702 138 c 1
470 138 m 1
 470 186 l 1
 583 190 590 261 623 261 c 0
 645 261 647 244 647 228 c 2
 647 -105 l 1
 647 -105 l 1
 702 -105 l 1
 702 -105 l 1
 702 -153 l 1
 663 -153 l 1
 692 -152 l 1
 624 -150 l 1
 545 -151 l 1
 490 -153 l 1
 480 -153 l 1
 480 -105 l 1
 480 -105 l 1
 535 -105 l 1
 535 -105 l 1
 535 154 l 1
 502 139 502 139 470 138 c 1
191 476 m 0
 191 464 191 430 200 420 c 0
 209 410 224 398 253 398 c 0
 280 398 301 400 308 428 c 0
 312 445 313 454 313 486 c 0
 313 522 313 538 306 554 c 0
 298 573 284 574 258 574 c 0
 244 574 191 571 191 476 c 0
62 557 m 0
 62 741 198 769 299 769 c 0
 389 769 417 718 417 676 c 0
 417 652 404 624 361 624 c 0
 322 624 307 651 307 675 c 0
 307 685 304 710 344 716 c 1
 327 724 308 724 300 724 c 0
 236 724 200 696 195 676 c 0
 191 659 189 646 189 590 c 2
 189 581 l 1
 212 617 253 616 270 616 c 0
 362 616 440 583 440 484 c 0
 440 396 373 350 256 350 c 0
 198 350 136 364 100 410 c 1
 62 466 62 522 62 557 c 0
EndSplineSet
EndChar
StartChar: uF2658
Encoding: 992856 992856 91
Width: 1000
Flags: MW
LayerCount: 2
Fore
SplineSet
114 -131 m 0
 114 -124 118 -113 132 -97 c 2
 830 721 l 2
 840 732 854 748 868 748 c 0
 877 748 885 740 885 731 c 0
 885 722 876 712 871 706 c 2
 171 -121 l 2
 165 -129 146 -149 131 -149 c 0
 122 -149 114 -140 114 -131 c 0
702 138 m 1
 702 186 l 1
 815 190 822 261 855 261 c 0
 877 261 878 244 878 228 c 2
 878 -105 l 1
 878 -105 l 1
 934 -105 l 1
 934 -105 l 1
 934 -153 l 1
 895 -153 l 1
 924 -152 l 1
 856 -150 l 1
 777 -151 l 1
 722 -153 l 1
 712 -153 l 1
 712 -105 l 1
 712 -105 l 1
 767 -105 l 1
 767 -105 l 1
 767 154 l 1
 734 139 734 139 702 138 c 1
470 138 m 1
 470 186 l 1
 583 190 590 261 623 261 c 0
 645 261 647 244 647 228 c 2
 647 -105 l 1
 647 -105 l 1
 702 -105 l 1
 702 -105 l 1
 702 -153 l 1
 663 -153 l 1
 692 -152 l 1
 624 -150 l 1
 545 -151 l 1
 490 -153 l 1
 480 -153 l 1
 480 -105 l 1
 480 -105 l 1
 535 -105 l 1
 535 -105 l 1
 535 154 l 1
 502 139 502 139 470 138 c 1
74 593 m 1
 100 789 l 1
 159 789 l 1
 160 784 160 779 168 777 c 1
 174 774 350 769 350 769 c 2
 466 769 l 1
 466 737 466 735 458 729 c 2
 336 618 l 2
 320 603 294 554 288 512 c 0
 284 486 282 460 282 433 c 2
 282 407 l 2
 282 348 236 344 226 344 c 0
 202 344 171 349 171 405 c 0
 171 531 231 598 302 656 c 9
 302 656 l 1
 227 656 l 2
 212 656 163 656 153 652 c 0
 140 647 141 650 133 593 c 1
 74 593 l 1
EndSplineSet
EndChar
StartChar: uF2659
Encoding: 992857 992857 92
Width: 1000
Flags: MW
LayerCount: 2
Fore
SplineSet
114 -131 m 0
 114 -124 118 -113 132 -97 c 2
 830 721 l 2
 840 732 854 748 868 748 c 0
 877 748 885 740 885 731 c 0
 885 722 876 712 871 706 c 2
 171 -121 l 2
 165 -129 146 -149 131 -149 c 0
 122 -149 114 -140 114 -131 c 0
702 138 m 1
 702 186 l 1
 815 190 822 261 855 261 c 0
 877 261 878 244 878 228 c 2
 878 -105 l 1
 878 -105 l 1
 934 -105 l 1
 934 -105 l 1
 934 -153 l 1
 895 -153 l 1
 924 -152 l 1
 856 -150 l 1
 777 -151 l 1
 722 -153 l 1
 712 -153 l 1
 712 -105 l 1
 712 -105 l 1
 767 -105 l 1
 767 -105 l 1
 767 154 l 1
 734 139 734 139 702 138 c 1
470 138 m 1
 470 186 l 1
 583 190 590 261 623 261 c 0
 645 261 647 244 647 228 c 2
 647 -105 l 1
 647 -105 l 1
 702 -105 l 1
 702 -105 l 1
 702 -153 l 1
 663 -153 l 1
 692 -152 l 1
 624 -150 l 1
 545 -151 l 1
 490 -153 l 1
 480 -153 l 1
 480 -105 l 1
 480 -105 l 1
 535 -105 l 1
 535 -105 l 1
 535 154 l 1
 502 139 502 139 470 138 c 1
147 461 m 0
 147 414 177 398 254 398 c 0
 290 398 355 411 355 436 c 0
 355 459 336 466 294 486 c 1
 217 526 237 512 188 535 c 1
 179 531 147 510 147 461 c 0
172 701 m 0
 172 682 188 676 188 676 c 2
 312 618 l 1
 332 633 340 646 340 673 c 0
 340 715 315 724 249 724 c 0
 243 724 172 724 172 701 c 0
62 461 m 0
 62 493 63 531 140 560 c 1
 122 567 115 572 103 586 c 0
 92 599 88 623 88 650 c 0
 88 714 129 769 254 769 c 0
 350 769 415 747 415 674 c 0
 415 642 406 619 358 596 c 1
 365 594 378 589 401 569 c 0
 416 559 440 536 440 484 c 0
 440 411 394 350 249 350 c 0
 142 350 62 373 62 461 c 0
EndSplineSet
EndChar
StartChar: uF265A
Encoding: 992858 992858 93
Width: 1000
Flags: MW
LayerCount: 2
Fore
SplineSet
114 -131 m 0
 114 -124 118 -113 132 -97 c 2
 830 721 l 2
 840 732 854 748 868 748 c 0
 877 748 885 740 885 731 c 0
 885 722 876 712 871 706 c 2
 171 -121 l 2
 165 -129 146 -149 131 -149 c 0
 122 -149 114 -140 114 -131 c 0
702 138 m 1
 702 186 l 1
 815 190 822 261 855 261 c 0
 877 261 878 244 878 228 c 2
 878 -105 l 1
 878 -105 l 1
 934 -105 l 1
 934 -105 l 1
 934 -153 l 1
 895 -153 l 1
 924 -152 l 1
 856 -150 l 1
 777 -151 l 1
 722 -153 l 1
 712 -153 l 1
 712 -105 l 1
 712 -105 l 1
 767 -105 l 1
 767 -105 l 1
 767 154 l 1
 734 139 734 139 702 138 c 1
470 138 m 1
 470 186 l 1
 583 190 590 261 623 261 c 0
 645 261 647 244 647 228 c 2
 647 -105 l 1
 647 -105 l 1
 702 -105 l 1
 702 -105 l 1
 702 -153 l 1
 663 -153 l 1
 692 -152 l 1
 624 -150 l 1
 545 -151 l 1
 490 -153 l 1
 480 -153 l 1
 480 -105 l 1
 480 -105 l 1
 535 -105 l 1
 535 -105 l 1
 535 154 l 1
 502 139 502 139 470 138 c 1
189 633 m 0
 189 595 190 569 198 560 c 0
 208 548 219 545 244 545 c 0
 300 545 313 605 313 633 c 0
 313 647 313 684 308 696 c 0
 299 717 288 724 254 724 c 0
 219 724 203 712 198 698 c 0
 194 686 189 667 189 633 c 0
62 635 m 0
 62 677 85 724 121 743 c 1
 150 757 197 769 252 769 c 0
 424 769 440 652 440 564 c 0
 440 371 306 350 214 350 c 0
 118 350 85 397 85 442 c 0
 85 466 98 494 141 494 c 0
 180 494 196 468 196 444 c 0
 196 403 163 403 163 403 c 1
 186 399 199 398 212 398 c 0
 285 398 310 436 309 447 c 0
 313 464 313 499 313 531 c 2
 313 538 l 1
 288 505 239 503 233 503 c 0
 139 503 62 537 62 635 c 0
EndSplineSet
EndChar
StartChar: uF265B
Encoding: 992859 992859 94
Width: 1000
Flags: MW
LayerCount: 2
Fore
SplineSet
114 -131 m 0
 114 -124 118 -113 132 -97 c 2
 830 721 l 2
 840 732 854 748 868 748 c 0
 877 748 885 740 885 731 c 0
 885 722 876 712 871 706 c 2
 171 -121 l 2
 165 -129 146 -149 131 -149 c 0
 122 -149 114 -140 114 -131 c 0
702 138 m 1
 702 186 l 1
 815 190 822 261 855 261 c 0
 877 261 878 244 878 228 c 2
 878 -105 l 1
 878 -105 l 1
 934 -105 l 1
 934 -105 l 1
 934 -153 l 1
 895 -153 l 1
 924 -152 l 1
 856 -150 l 1
 777 -151 l 1
 722 -153 l 1
 712 -153 l 1
 712 -105 l 1
 712 -105 l 1
 767 -105 l 1
 767 -105 l 1
 767 154 l 1
 734 139 734 139 702 138 c 1
470 138 m 1
 470 186 l 1
 583 190 590 261 623 261 c 0
 645 261 647 244 647 228 c 2
 647 -105 l 1
 647 -105 l 1
 702 -105 l 1
 702 -105 l 1
 702 -153 l 1
 663 -153 l 1
 692 -152 l 1
 624 -150 l 1
 545 -151 l 1
 490 -153 l 1
 480 -153 l 1
 480 -105 l 1
 480 -105 l 1
 535 -105 l 1
 535 -105 l 1
 535 154 l 1
 502 139 502 139 470 138 c 1
349 564 m 0
 349 531 349 466 351 437 c 0
 354 405 369 392 379 392 c 0
 383 392 403 391 407 450 c 0
 408 476 409 540 409 564 c 0
 409 630 409 694 402 706 c 0
 397 714 391 726 379 726 c 0
 372 726 353 719 351 681 c 0
 348 649 349 616 349 564 c 0
253 557 m 0
 253 587 255 662 290 721 c 24
 312 758 328 769 378 769 c 0
 428 769 447 749 459 737 c 0
 502 695 504 591 504 557 c 0
 504 521 507 436 458 378 c 0
 441 358 427 350 379 350 c 0
 328 350 307 362 291 387 c 0
 262 432 253 520 253 557 c 0
39 638 m 1
 39 686 l 1
 141 690 147 761 177 761 c 0
 197 761 197 744 197 728 c 2
 197 395 l 1
 197 395 l 1
 247 395 l 1
 247 395 l 1
 247 347 l 1
 212 347 l 1
 239 348 l 1
 177 350 l 1
 106 349 l 1
 57 347 l 1
 48 347 l 1
 48 395 l 1
 48 395 l 1
 98 395 l 1
 98 395 l 1
 98 659 l 1
 59 643 68 639 39 638 c 1
EndSplineSet
EndChar
StartChar: uF265D
Encoding: 992861 992861 96
Width: 1000
Flags: MW
LayerCount: 2
Fore
SplineSet
701 -153 m 1
 701 -65 l 1
 702 -46 706 -43 719 -34 c 0
 814 34 853 60 853 128 c 0
 853 158 845 198 817 210 c 0
 813 212 808 213 803 213 c 1
 805 201 806 195 806 183 c 0
 806 140 778 111 752 111 c 0
 725 111 701 144 701 183 c 0
 701 197 703 208 707 217 c 0
 714 235 727 246 742 252 c 0
 764 261 792 261 815 261 c 0
 932 261 955 181 955 128 c 8
 955 65 873 18 848 6 c 1
 833 0 808 -16 788 -27 c 1
 831 -27 l 2
 881 -27 904 -27 909 -19 c 0
 913 -14 915 -6 916 1 c 0
 918 11 921 31 922 41 c 9
 952 41 l 1
 935 -153 l 1
 701 -153 l 1
460 138 m 1
 460 186 l 1
 569 190 577 261 609 261 c 0
 631 261 631 244 631 228 c 2
 631 -105 l 1
 631 -105 l 1
 685 -105 l 1
 685 -105 l 1
 685 -153 l 1
 647 -153 l 1
 675 -152 l 1
 609 -150 l 1
 533 -151 l 1
 480 -153 l 1
 470 -153 l 1
 470 -105 l 1
 470 -105 l 1
 523 -105 l 1
 523 -105 l 1
 523 154 l 1
 491 139 491 139 460 138 c 1
69 452 m 0
 69 501 117 509 128 509 c 0
 138 509 187 505 187 452 c 0
 187 421 178 422 170 418 c 0
 165 416 158 417 153 416 c 1
 167 404 203 403 221 403 c 0
 248 403 272 405 280 414 c 0
 296 432 297 443 297 481 c 0
 297 512 292 524 285 534 c 0
 275 548 255 556 244 556 c 0
 224 556 163 554 147 539 c 0
 140 533 139 529 126 529 c 0
 105 529 104 541 104 553 c 2
 104 750 l 2
 104 760 104 769 117 769 c 0
 120 769 124 767 127 766 c 8
 173 751 173 748 251 748 c 0
 264 748 324 751 370 765 c 0
 382 769 381 769 385 769 c 0
 397 769 398 757 398 752 c 0
 398 728 318 641 200 641 c 2
 157 641 l 1
 157 596 l 1
 181 608 242 609 249 609 c 0
 381 609 434 553 434 481 c 0
 434 405 368 350 225 350 c 0
 130 350 69 397 69 452 c 0
114 -131 m 0
 114 -124 118 -113 132 -97 c 2
 830 721 l 2
 840 732 854 748 868 748 c 0
 877 748 885 740 885 731 c 0
 885 722 876 712 871 706 c 2
 171 -121 l 2
 165 -129 146 -149 131 -149 c 0
 122 -149 114 -140 114 -131 c 0
EndSplineSet
EndChar
StartChar: uF265E
Encoding: 992862 992862 97
Width: 1000
Flags: MW
LayerCount: 2
Fore
SplineSet
701 -153 m 1
 701 -65 l 1
 702 -46 706 -43 719 -34 c 0
 814 34 853 60 853 128 c 0
 853 158 845 198 817 210 c 0
 813 212 808 213 803 213 c 1
 805 201 806 195 806 183 c 0
 806 140 778 111 752 111 c 0
 725 111 701 144 701 183 c 0
 701 197 703 208 707 217 c 0
 714 235 727 246 742 252 c 0
 764 261 792 261 815 261 c 0
 932 261 955 181 955 128 c 8
 955 65 873 18 848 6 c 1
 833 0 808 -16 788 -27 c 1
 831 -27 l 2
 881 -27 904 -27 909 -19 c 0
 913 -14 915 -6 916 1 c 0
 918 11 921 31 922 41 c 9
 952 41 l 1
 935 -153 l 1
 701 -153 l 1
460 138 m 1
 460 186 l 1
 569 190 577 261 609 261 c 0
 631 261 631 244 631 228 c 2
 631 -105 l 1
 631 -105 l 1
 685 -105 l 1
 685 -105 l 1
 685 -153 l 1
 647 -153 l 1
 675 -152 l 1
 609 -150 l 1
 533 -151 l 1
 480 -153 l 1
 470 -153 l 1
 470 -105 l 1
 470 -105 l 1
 523 -105 l 1
 523 -105 l 1
 523 154 l 1
 491 139 491 139 460 138 c 1
74 593 m 1
 100 789 l 1
 159 789 l 1
 160 784 160 779 168 777 c 1
 174 774 350 769 350 769 c 2
 466 769 l 1
 466 737 466 735 458 729 c 2
 336 618 l 2
 320 603 294 554 288 512 c 0
 284 486 282 460 282 433 c 2
 282 407 l 2
 282 348 236 344 226 344 c 0
 202 344 171 349 171 405 c 0
 171 531 231 598 302 656 c 9
 302 656 l 1
 227 656 l 2
 212 656 163 656 153 652 c 0
 140 647 141 650 133 593 c 1
 74 593 l 1
114 -131 m 0
 114 -124 118 -113 132 -97 c 2
 830 721 l 2
 840 732 854 748 868 748 c 0
 877 748 885 740 885 731 c 0
 885 722 876 712 871 706 c 2
 171 -121 l 2
 165 -129 146 -149 131 -149 c 0
 122 -149 114 -140 114 -131 c 0
EndSplineSet
EndChar
StartChar: uF265F
Encoding: 992863 992863 98
Width: 1000
Flags: MW
LayerCount: 2
Fore
SplineSet
701 -153 m 1
 701 -65 l 1
 702 -46 706 -43 719 -34 c 0
 814 34 853 60 853 128 c 0
 853 158 845 198 817 210 c 0
 813 212 808 213 803 213 c 1
 805 201 806 195 806 183 c 0
 806 140 778 111 752 111 c 0
 725 111 701 144 701 183 c 0
 701 197 703 208 707 217 c 0
 714 235 727 246 742 252 c 0
 764 261 792 261 815 261 c 0
 932 261 955 181 955 128 c 8
 955 65 873 18 848 6 c 1
 833 0 808 -16 788 -27 c 1
 831 -27 l 2
 881 -27 904 -27 909 -19 c 0
 913 -14 915 -6 916 1 c 0
 918 11 921 31 922 41 c 9
 952 41 l 1
 935 -153 l 1
 701 -153 l 1
460 138 m 1
 460 186 l 1
 569 190 577 261 609 261 c 0
 631 261 631 244 631 228 c 2
 631 -105 l 1
 631 -105 l 1
 685 -105 l 1
 685 -105 l 1
 685 -153 l 1
 647 -153 l 1
 675 -152 l 1
 609 -150 l 1
 533 -151 l 1
 480 -153 l 1
 470 -153 l 1
 470 -105 l 1
 470 -105 l 1
 523 -105 l 1
 523 -105 l 1
 523 154 l 1
 491 139 491 139 460 138 c 1
20 638 m 1
 20 686 l 1
 133 690 140 761 173 761 c 0
 195 761 197 744 197 728 c 2
 197 395 l 1
 197 395 l 1
 252 395 l 1
 252 395 l 1
 252 347 l 1
 213 347 l 1
 242 348 l 1
 174 350 l 1
 95 349 l 1
 40 347 l 1
 30 347 l 1
 30 395 l 1
 30 395 l 1
 85 395 l 1
 85 395 l 1
 85 654 l 1
 52 639 52 639 20 638 c 1
252 638 m 1
 252 686 l 1
 365 690 372 761 405 761 c 0
 427 761 428 744 428 728 c 2
 428 395 l 1
 428 395 l 1
 484 395 l 1
 484 395 l 1
 484 347 l 1
 445 347 l 1
 474 348 l 1
 406 350 l 1
 327 349 l 1
 272 347 l 1
 262 347 l 1
 262 395 l 1
 262 395 l 1
 317 395 l 1
 317 395 l 1
 317 654 l 1
 284 639 284 639 252 638 c 1
114 -131 m 0
 114 -124 118 -113 132 -97 c 2
 830 721 l 2
 840 732 854 748 868 748 c 0
 877 748 885 740 885 731 c 0
 885 722 876 712 871 706 c 2
 171 -121 l 2
 165 -129 146 -149 131 -149 c 0
 122 -149 114 -140 114 -131 c 0
EndSplineSet
EndChar
StartChar: uF2660
Encoding: 992864 992864 99
Width: 1000
Flags: MW
LayerCount: 2
Fore
SplineSet
114 -131 m 0
 114 -124 116.502929688 -114.181640625 129 -97 c 2
 729 721 l 2
 739 732 751 748 765 748 c 0
 774 748 782 740 782 731 c 0
 782 722 776 712 771 706 c 2
 169 -121 l 2
 163.15234375 -129.100585938 146 -149 131 -149 c 0
 122 -149 114 -140 114 -131 c 0
844 14 m 0
 844 -19 844 -84 846 -113 c 0
 848 -145 858 -158 865 -158 c 0
 868 -158 881 -159 884 -100 c 0
 884 -74 885 -10 885 14 c 0
 885 80 885 144 880 156 c 0
 877 164 873 176 865 176 c 0
 860 176 847 169 846 131 c 0
 844 99 844 66 844 14 c 0
781 7 m 0
 781 37 782 112 805 171 c 24
 819 208 831 219 865 219 c 0
 899 219 910 199 918 187 c 0
 947 145 948 41 948 7 c 0
 948 -29 950 -114 917 -172 c 0
 906 -192 897 -200 865 -200 c 0
 831 -200 817 -188 806 -163 c 0
 786 -118 781 -30 781 7 c 0
647 14 m 0
 647 -19 647 -84 649 -113 c 0
 651 -145 661 -158 668 -158 c 0
 671 -158 684 -159 687 -100 c 0
 687 -74 688 -10 688 14 c 0
 688 80 688 144 683 156 c 0
 680 164 676 176 668 176 c 0
 663 176 650 169 649 131 c 0
 647 99 647 66 647 14 c 0
584 7 m 0
 584 37 586 112 609 171 c 24
 623 208 634 219 668 219 c 0
 702 219 713 199 721 187 c 0
 750 145 751 41 751 7 c 0
 751 -29 754 -114 721 -172 c 0
 710 -192 700 -200 668 -200 c 0
 634 -200 620 -188 609 -163 c 0
 589 -118 584 -30 584 7 c 0
418 88 m 1
 418 136 l 1
 493 140 497 211 519 211 c 0
 534 211 535 194 535 178 c 2
 535 -155 l 1
 535 -155 l 1
 571 -155 l 1
 571 -155 l 1
 571 -203 l 1
 546 -203 l 1
 565 -202 l 1
 519 -200 l 1
 468 -201 l 1
 431 -203 l 1
 425 -203 l 1
 425 -155 l 1
 425 -155 l 1
 461 -155 l 1
 461 -155 l 1
 461 104 l 1
 439 89 439 89 418 88 c 1
80 638 m 1
 80 686 l 1
 251 690 262 761 298 761 c 0
 322 761 323 744 323 728 c 2
 323 395 l 1
 323 395 l 1
 431 395 l 1
 431 395 l 1
 431 347 l 1
 372 347 l 1
 416 348 l 1
 313 350 l 1
 194 349 l 1
 111 347 l 1
 96 347 l 1
 96 395 l 1
 96 395 l 1
 203 395 l 1
 203 395 l 1
 203 659 l 1
 156 643 129 639 80 638 c 1
EndSplineSet
EndChar
StartChar: uF2662
Encoding: 992866 992866 101
Width: 1000
Flags: MW
LayerCount: 2
Fore
SplineSet
302 -203 m 1
 302 -115 l 1
 303 -96 309 -93 330 -84 c 0
 479 -16 559 10 559 78 c 0
 559 108 541 148 473 160 c 0
 463 162 452 163 440 163 c 1
 444 151 446 145 446 133 c 0
 446 90 414 61 374 61 c 0
 332 61 302 94 302 133 c 0
 302 147 305 158 311 167 c 0
 322 185 341 196 365 202 c 4
 400 211 444 211 480 211 c 0
 663 211 698 131 698 78 c 8
 698 -3 570 -32 531 -44 c 1
 508 -50 468 -66 437 -77 c 1
 505 -77 l 2
 583 -77 619 -77 627 -69 c 0
 633 -64 636 -56 638 -49 c 0
 641 -39 645 -19 647 -9 c 9
 694 -9 l 1
 667 -203 l 1
 302 -203 l 1
324 638 m 1
 324 686 l 1
 495 690 506 761 542 761 c 0
 566 761 568 744 568 728 c 2
 568 395 l 1
 568 395 l 1
 676 395 l 1
 676 395 l 1
 676 347 l 1
 616 347 l 1
 660 348 l 1
 558 350 l 1
 438 349 l 1
 356 347 l 1
 340 347 l 1
 340 395 l 1
 340 395 l 1
 448 395 l 1
 448 395 l 1
 448 659 l 1
 401 643 373 639 324 638 c 1
52 278 m 0
 52 305 81 308 92 308 c 2
 905 308 l 2
 915 308 924 308 933 304 c 0
 943 299 950 288 950 277 c 0
 950 266 944 247 910 247 c 2
 90 247 l 1
 56 248 52 268 52 278 c 0
EndSplineSet
EndChar
StartChar: uF2663
Encoding: 992867 992867 102
Width: 1000
Flags: MW
LayerCount: 2
Fore
SplineSet
292 -77 m 0
 292 -31 328 -1 370 -1 c 0
 412 -1 446 -31 446 -77 c 0
 446 -115 424 -133 414 -141 c 1
 441 -148 470 -149 484 -149 c 0
 544 -149 554 -119 554 -76 c 0
 554 -13 526 -1 492 1 c 0
 484 1 476 1 468 1 c 0
 448 1 445 3 440 10 c 1
 436 18 438 27 444 33 c 0
 459 46 491 28 518 59 c 0
 533 76 538 99 538 121 c 0
 538 149 528 171 486 171 c 0
 461 171 444 167 420 156 c 1
 424 154 427 152 432 149 c 0
 448 139 464 121 464 91 c 0
 464 50 432 22 394 22 c 0
 357 22 326 48 326 92 c 0
 326 108 330 125 340 142 c 4
 361 179 408 211 492 211 c 0
 623 211 676 164 676 117 c 0
 676 63 631 37 586 20 c 1
 640 10 708 -18 708 -75 c 0
 708 -122 659 -193 490 -193 c 0
 330 -193 292 -124 292 -77 c 0
324 638 m 1
 324 686 l 1
 495 690 506 761 542 761 c 0
 566 761 568 744 568 728 c 2
 568 395 l 1
 568 395 l 1
 676 395 l 1
 676 395 l 1
 676 347 l 1
 616 347 l 1
 660 348 l 1
 558 350 l 1
 438 349 l 1
 356 347 l 1
 340 347 l 1
 340 395 l 1
 340 395 l 1
 448 395 l 1
 448 395 l 1
 448 659 l 1
 401 643 373 639 324 638 c 1
52 278 m 0
 52 305 81 308 92 308 c 2
 905 308 l 2
 915 308 924 308 933 304 c 0
 943 299 950 288 950 277 c 0
 950 266 944 247 910 247 c 2
 90 247 l 1
 56 248 52 268 52 278 c 0
EndSplineSet
EndChar
StartChar: uF2664
Encoding: 992868 992868 103
Width: 1000
Flags: MW
LayerCount: 2
Fore
SplineSet
292 -77 m 0
 292 -31 328 -1 370 -1 c 0
 412 -1 446 -31 446 -77 c 0
 446 -115 424 -133 414 -141 c 1
 441 -148 470 -149 484 -149 c 0
 544 -149 554 -119 554 -76 c 0
 554 -13 526 -1 492 1 c 0
 484 1 476 1 468 1 c 0
 448 1 445 3 440 10 c 1
 436 18 438 27 444 33 c 0
 459 46 491 28 518 59 c 0
 533 76 538 99 538 121 c 0
 538 149 528 171 486 171 c 0
 461 171 444 167 420 156 c 1
 424 154 427 152 432 149 c 0
 448 139 464 121 464 91 c 0
 464 50 432 22 394 22 c 0
 357 22 326 48 326 92 c 0
 326 108 330 125 340 142 c 4
 361 179 408 211 492 211 c 0
 623 211 676 164 676 117 c 0
 676 63 631 37 586 20 c 1
 640 10 708 -18 708 -75 c 0
 708 -122 659 -193 490 -193 c 0
 330 -193 292 -124 292 -77 c 0
302 347 m 1
 302 435 l 1
 303 454 309 457 330 466 c 0
 479 534 559 560 559 628 c 0
 559 658 541 698 473 710 c 0
 463 712 452 713 440 713 c 1
 444 701 446 695 446 683 c 0
 446 640 414 611 374 611 c 0
 332 611 302 644 302 683 c 0
 302 697 305 708 311 717 c 0
 322 735 341 746 365 752 c 4
 400 761 444 761 480 761 c 0
 663 761 698 681 698 628 c 8
 698 547 570 518 531 506 c 1
 508 500 468 484 437 473 c 1
 505 473 l 2
 583 473 619 473 627 481 c 0
 633 486 636 494 638 501 c 0
 641 511 645 531 647 541 c 9
 694 541 l 1
 667 347 l 1
 302 347 l 1
52 278 m 0
 52 305 81 308 92 308 c 2
 905 308 l 2
 915 308 924 308 933 304 c 0
 943 299 950 288 950 277 c 0
 950 266 944 247 910 247 c 2
 90 247 l 1
 56 248 52 268 52 278 c 0
EndSplineSet
EndChar
StartChar: uF2665
Encoding: 992869 992869 104
Width: 1000
Flags: MW
LayerCount: 2
Fore
SplineSet
297 -104 m 1
 297 -64 l 1
 571 200 l 2
 582 212 581 213 604 213 c 0
 632 213 635 210 635 188 c 2
 635 -54 l 1
 701 -54 l 1
 701 -104 l 1
 635 -104 l 1
 635 -149 l 1
 703 -149 l 1
 703 -149 l 1
 703 -200 l 1
 683 -198 599 -198 572 -198 c 0
 541 -198 449 -198 425 -200 c 1
 425 -149 l 1
 425 -149 l 1
 514 -149 l 1
 514 -104 l 1
 297 -104 l 1
388 -54 m 1
 525 -54 l 1
 525 87 l 1
 388 -54 l 1
324 638 m 1
 324 686 l 1
 495 690 506 761 542 761 c 0
 566 761 568 744 568 728 c 2
 568 395 l 1
 568 395 l 1
 676 395 l 1
 676 395 l 1
 676 347 l 1
 616 347 l 1
 660 348 l 1
 558 350 l 1
 438 349 l 1
 356 347 l 1
 340 347 l 1
 340 395 l 1
 340 395 l 1
 448 395 l 1
 448 395 l 1
 448 659 l 1
 401 643 373 639 324 638 c 1
52 278 m 0
 52 305 81 308 92 308 c 2
 905 308 l 2
 915 308 924 308 933 304 c 0
 943 299 950 288 950 277 c 0
 950 266 944 247 910 247 c 2
 90 247 l 1
 56 248 52 268 52 278 c 0
EndSplineSet
EndChar
StartChar: uF2667
Encoding: 992871 992871 106
Width: 1000
Flags: MW
LayerCount: 2
Fore
SplineSet
318 -98 m 0
 318 -49 365 -41 376 -41 c 0
 386 -41 436 -45 436 -98 c 0
 436 -129 426 -128 418 -132 c 0
 413 -134 407 -133 402 -134 c 1
 416 -146 452 -147 470 -147 c 0
 497 -147 520 -145 528 -136 c 0
 544 -118 546 -107 546 -69 c 0
 546 -38 541 -26 534 -16 c 0
 524 -2 503 6 492 6 c 0
 472 6 412 4 396 -11 c 0
 389 -17 387 -21 374 -21 c 0
 353 -21 352 -9 352 3 c 2
 352 200 l 2
 352 210 353 219 366 219 c 0
 369 219 369 218 376 216 c 0
 380 218 422 198 500 198 c 0
 513 198 552 192 618 215 c 0
 630 218 630 219 634 219 c 0
 646 219 646 207 646 202 c 0
 646 178 566 91 448 91 c 0
 423 91 431 88 406 91 c 1
 406 46 l 1
 430 58 491 59 498 59 c 0
 630 59 682 3 682 -69 c 0
 682 -145 617 -200 474 -200 c 0
 379 -200 318 -153 318 -98 c 0
324 638 m 1
 324 686 l 1
 495 690 506 761 542 761 c 0
 566 761 568 744 568 728 c 2
 568 395 l 1
 568 395 l 1
 676 395 l 1
 676 395 l 1
 676 347 l 1
 616 347 l 1
 660 348 l 1
 558 350 l 1
 438 349 l 1
 356 347 l 1
 340 347 l 1
 340 395 l 1
 340 395 l 1
 448 395 l 1
 448 395 l 1
 448 659 l 1
 401 643 373 639 324 638 c 1
52 278 m 0
 52 305 81 308 92 308 c 2
 905 308 l 2
 915 308 924 308 933 304 c 0
 943 299 950 288 950 277 c 0
 950 266 944 247 910 247 c 2
 90 247 l 1
 56 248 52 268 52 278 c 0
EndSplineSet
EndChar
StartChar: uF2668
Encoding: 992872 992872 107
Width: 1000
Flags: MW
LayerCount: 2
Fore
SplineSet
318 -98 m 0
 318 -49 365 -41 376 -41 c 0
 386 -41 436 -45 436 -98 c 0
 436 -129 426 -128 418 -132 c 0
 413 -134 407 -133 402 -134 c 1
 416 -146 452 -147 470 -147 c 0
 497 -147 520 -145 528 -136 c 0
 544 -118 546 -107 546 -69 c 0
 546 -38 541 -26 534 -16 c 0
 524 -2 503 6 492 6 c 0
 472 6 412 4 396 -11 c 0
 389 -17 387 -21 374 -21 c 0
 353 -21 352 -9 352 3 c 2
 352 200 l 2
 352 210 353 219 366 219 c 0
 369 219 369 218 376 216 c 0
 380 218 422 198 500 198 c 0
 513 198 552 192 618 215 c 0
 630 218 630 219 634 219 c 0
 646 219 646 207 646 202 c 0
 646 178 566 91 448 91 c 0
 423 91 431 88 406 91 c 1
 406 46 l 1
 430 58 491 59 498 59 c 0
 630 59 682 3 682 -69 c 0
 682 -145 617 -200 474 -200 c 0
 379 -200 318 -153 318 -98 c 0
302 347 m 1
 302 435 l 1
 303 454 309 457 330 466 c 0
 479 534 559 560 559 628 c 0
 559 658 541 698 473 710 c 0
 463 712 452 713 440 713 c 1
 444 701 446 695 446 683 c 0
 446 640 414 611 374 611 c 0
 332 611 302 644 302 683 c 0
 302 697 305 708 311 717 c 0
 322 735 341 746 365 752 c 4
 400 761 444 761 480 761 c 0
 663 761 698 681 698 628 c 8
 698 547 570 518 531 506 c 1
 508 500 468 484 437 473 c 1
 505 473 l 2
 583 473 619 473 627 481 c 0
 633 486 636 494 638 501 c 0
 641 511 645 531 647 541 c 9
 694 541 l 1
 667 347 l 1
 302 347 l 1
52 278 m 0
 52 305 81 308 92 308 c 2
 905 308 l 2
 915 308 924 308 933 304 c 0
 943 299 950 288 950 277 c 0
 950 266 944 247 910 247 c 2
 90 247 l 1
 56 248 52 268 52 278 c 0
EndSplineSet
EndChar
StartChar: uF2669
Encoding: 992873 992873 108
Width: 1000
Flags: MW
LayerCount: 2
Fore
SplineSet
318 -98 m 0
 318 -49 365 -41 376 -41 c 0
 386 -41 436 -45 436 -98 c 0
 436 -129 426 -128 418 -132 c 0
 413 -134 407 -133 402 -134 c 1
 416 -146 452 -147 470 -147 c 0
 497 -147 520 -145 528 -136 c 0
 544 -118 546 -107 546 -69 c 0
 546 -38 541 -26 534 -16 c 0
 524 -2 503 6 492 6 c 0
 472 6 412 4 396 -11 c 0
 389 -17 387 -21 374 -21 c 0
 353 -21 352 -9 352 3 c 2
 352 200 l 2
 352 210 353 219 366 219 c 0
 369 219 369 218 376 216 c 0
 380 218 422 198 500 198 c 0
 513 198 552 192 618 215 c 0
 630 218 630 219 634 219 c 0
 646 219 646 207 646 202 c 0
 646 178 566 91 448 91 c 0
 423 91 431 88 406 91 c 1
 406 46 l 1
 430 58 491 59 498 59 c 0
 630 59 682 3 682 -69 c 0
 682 -145 617 -200 474 -200 c 0
 379 -200 318 -153 318 -98 c 0
292 473 m 0
 292 519 328 549 370 549 c 0
 412 549 446 519 446 473 c 0
 446 435 424 417 414 409 c 1
 441 402 470 401 484 401 c 0
 544 401 554 431 554 474 c 0
 554 537 526 549 492 551 c 0
 484 551 476 551 468 551 c 0
 448 551 445 553 440 560 c 1
 436 568 438 577 444 583 c 0
 459 596 491 578 518 609 c 0
 533 626 538 649 538 671 c 0
 538 699 528 721 486 721 c 0
 461 721 444 717 420 706 c 1
 424 704 427 702 432 699 c 0
 448 689 464 671 464 641 c 0
 464 600 432 572 394 572 c 0
 357 572 326 598 326 642 c 0
 326 658 330 675 340 692 c 4
 361 729 408 761 492 761 c 0
 623 761 676 714 676 667 c 0
 676 613 631 587 586 570 c 1
 640 560 708 532 708 475 c 0
 708 428 659 357 490 357 c 0
 330 357 292 426 292 473 c 0
52 278 m 0
 52 305 81 308 92 308 c 2
 905 308 l 2
 915 308 924 308 933 304 c 0
 943 299 950 288 950 277 c 0
 950 266 944 247 910 247 c 2
 90 247 l 1
 56 248 52 268 52 278 c 0
EndSplineSet
EndChar
StartChar: uF266A
Encoding: 992874 992874 109
Width: 1000
Flags: MW
LayerCount: 2
Fore
SplineSet
318 -98 m 0
 318 -49 365 -41 376 -41 c 0
 386 -41 436 -45 436 -98 c 0
 436 -129 426 -128 418 -132 c 0
 413 -134 407 -133 402 -134 c 1
 416 -146 452 -147 470 -147 c 0
 497 -147 520 -145 528 -136 c 0
 544 -118 546 -107 546 -69 c 0
 546 -38 541 -26 534 -16 c 0
 524 -2 503 6 492 6 c 0
 472 6 412 4 396 -11 c 0
 389 -17 387 -21 374 -21 c 0
 353 -21 352 -9 352 3 c 2
 352 200 l 2
 352 210 353 219 366 219 c 0
 369 219 369 218 376 216 c 0
 380 218 422 198 500 198 c 0
 513 198 552 192 618 215 c 0
 630 218 630 219 634 219 c 0
 646 219 646 207 646 202 c 0
 646 178 566 91 448 91 c 0
 423 91 431 88 406 91 c 1
 406 46 l 1
 430 58 491 59 498 59 c 0
 630 59 682 3 682 -69 c 0
 682 -145 617 -200 474 -200 c 0
 379 -200 318 -153 318 -98 c 0
297 446 m 1
 297 486 l 1
 571 750 l 2
 582 762 581 763 604 763 c 0
 632 763 635 760 635 738 c 2
 635 496 l 1
 701 496 l 1
 701 446 l 1
 635 446 l 1
 635 401 l 1
 703 401 l 1
 703 401 l 1
 703 350 l 1
 683 352 599 352 572 352 c 0
 541 352 449 352 425 350 c 1
 425 401 l 1
 425 401 l 1
 514 401 l 1
 514 446 l 1
 297 446 l 1
388 496 m 1
 525 496 l 1
 525 637 l 1
 388 496 l 1
52 278 m 0
 52 305 81 308 92 308 c 2
 905 308 l 2
 915 308 924 308 933 304 c 0
 943 299 950 288 950 277 c 0
 950 266 944 247 910 247 c 2
 90 247 l 1
 56 248 52 268 52 278 c 0
EndSplineSet
EndChar
StartChar: uF266B
Encoding: 992875 992875 110
Width: 1000
Flags: MW
LayerCount: 2
Fore
SplineSet
311 7 m 0
 311 191 447 219 548 219 c 0
 638 219 666 168 666 126 c 0
 666 102 653 74 610 74 c 0
 571 74 556 101 556 125 c 0
 556 135 553 160 593 166 c 1
 576 174 557 174 549 174 c 0
 485 174 449 146 444 126 c 0
 440 109 438 96 438 40 c 2
 438 31 l 1
 461 67 502 66 519 66 c 0
 611 66 689 33 689 -66 c 0
 689 -154 622 -200 505 -200 c 0
 447 -200 385 -186 349 -140 c 1
 311 -84 311 -28 311 7 c 0
440 -74 m 0
 440 -86 440 -120 449 -130 c 0
 458 -140 473 -152 502 -152 c 0
 529 -152 550 -150 557 -122 c 0
 561 -105 562 -96 562 -64 c 0
 562 -28 562 -12 555 4 c 0
 547 23 533 24 507 24 c 0
 493 24 440 21 440 -74 c 0
324 638 m 1
 324 686 l 1
 495 690 506 761 542 761 c 0
 566 761 568 744 568 728 c 2
 568 395 l 1
 568 395 l 1
 676 395 l 1
 676 395 l 1
 676 347 l 1
 616 347 l 1
 660 348 l 1
 558 350 l 1
 438 349 l 1
 356 347 l 1
 340 347 l 1
 340 395 l 1
 340 395 l 1
 448 395 l 1
 448 395 l 1
 448 659 l 1
 401 643 373 639 324 638 c 1
52 278 m 0
 52 305 81 308 92 308 c 2
 905 308 l 2
 915 308 924 308 933 304 c 0
 943 299 950 288 950 277 c 0
 950 266 944 247 910 247 c 2
 90 247 l 1
 56 248 52 268 52 278 c 0
EndSplineSet
EndChar
StartChar: uF266C
Encoding: 992876 992876 111
Width: 1000
Flags: MW
LayerCount: 2
Fore
SplineSet
311 7 m 0
 311 191 447 219 548 219 c 0
 638 219 666 168 666 126 c 0
 666 102 653 74 610 74 c 0
 571 74 556 101 556 125 c 0
 556 135 553 160 593 166 c 1
 576 174 557 174 549 174 c 0
 485 174 449 146 444 126 c 0
 440 109 438 96 438 40 c 2
 438 31 l 1
 461 67 502 66 519 66 c 0
 611 66 689 33 689 -66 c 0
 689 -154 622 -200 505 -200 c 0
 447 -200 385 -186 349 -140 c 1
 311 -84 311 -28 311 7 c 0
440 -74 m 0
 440 -86 440 -120 449 -130 c 0
 458 -140 473 -152 502 -152 c 0
 529 -152 550 -150 557 -122 c 0
 561 -105 562 -96 562 -64 c 0
 562 -28 562 -12 555 4 c 0
 547 23 533 24 507 24 c 0
 493 24 440 21 440 -74 c 0
318 452 m 0
 318 501 365 509 376 509 c 0
 386 509 436 505 436 452 c 0
 436 421 426 422 418 418 c 0
 413 416 407 417 402 416 c 1
 416 404 452 403 470 403 c 0
 497 403 520 405 528 414 c 0
 544 432 546 443 546 481 c 0
 546 512 541 524 534 534 c 0
 524 548 503 556 492 556 c 0
 472 556 412 554 396 539 c 0
 389 533 387 529 374 529 c 0
 353 529 352 541 352 553 c 2
 352 750 l 2
 352 760 353 769 366 769 c 0
 369 769 373 767 376 766 c 8
 422 751 422 748 500 748 c 0
 513 748 572 751 618 765 c 0
 630 769 630 769 634 769 c 0
 646 769 646 757 646 752 c 0
 646 728 566 641 448 641 c 2
 406 641 l 1
 406 596 l 1
 430 608 491 609 498 609 c 0
 630 609 682 553 682 481 c 0
 682 405 617 350 474 350 c 0
 379 350 318 397 318 452 c 0
52 278 m 0
 52 305 81 308 92 308 c 2
 905 308 l 2
 915 308 924 308 933 304 c 0
 943 299 950 288 950 277 c 0
 950 266 944 247 910 247 c 2
 90 247 l 1
 56 248 52 268 52 278 c 0
EndSplineSet
EndChar
StartChar: uF266D
Encoding: 992877 992877 112
Width: 1000
Flags: MW
LayerCount: 2
Fore
SplineSet
304 43 m 1
 330 239 l 1
 389 239 l 1
 390 234 390 229 398 227 c 1
 404 224 580 219 580 219 c 2
 696 219 l 1
 696 187 696 185 688 179 c 2
 566 68 l 2
 550 53 524 4 518 -38 c 0
 514 -64 512 -90 512 -117 c 2
 512 -143 l 2
 512 -202 466 -206 456 -206 c 0
 432 -206 401 -201 401 -145 c 0
 401 -19 461 48 532 106 c 9
 532 106 l 1
 457 106 l 2
 442 106 393 106 383 102 c 0
 370 97 371 100 363 43 c 1
 304 43 l 1
324 638 m 1
 324 686 l 1
 495 690 506 761 542 761 c 0
 566 761 568 744 568 728 c 2
 568 395 l 1
 568 395 l 1
 676 395 l 1
 676 395 l 1
 676 347 l 1
 616 347 l 1
 660 348 l 1
 558 350 l 1
 438 349 l 1
 356 347 l 1
 340 347 l 1
 340 395 l 1
 340 395 l 1
 448 395 l 1
 448 395 l 1
 448 659 l 1
 401 643 373 639 324 638 c 1
52 278 m 0
 52 305 81 308 92 308 c 2
 905 308 l 2
 915 308 924 308 933 304 c 0
 943 299 950 288 950 277 c 0
 950 266 944 247 910 247 c 2
 90 247 l 1
 56 248 52 268 52 278 c 0
EndSplineSet
EndChar
StartChar: uF266E
Encoding: 992878 992878 113
Width: 1000
Flags: MW
LayerCount: 2
Fore
SplineSet
304 43 m 1
 330 239 l 1
 389 239 l 1
 390 234 390 229 398 227 c 1
 404 224 580 219 580 219 c 2
 696 219 l 1
 696 187 696 185 688 179 c 2
 566 68 l 2
 550 53 524 4 518 -38 c 0
 514 -64 512 -90 512 -117 c 2
 512 -143 l 2
 512 -202 466 -206 456 -206 c 0
 432 -206 401 -201 401 -145 c 0
 401 -19 461 48 532 106 c 9
 532 106 l 1
 457 106 l 2
 442 106 393 106 383 102 c 0
 370 97 371 100 363 43 c 1
 304 43 l 1
302 347 m 1
 302 435 l 1
 303 454 309 457 330 466 c 0
 479 534 559 560 559 628 c 0
 559 658 541 698 473 710 c 0
 463 712 452 713 440 713 c 1
 444 701 446 695 446 683 c 0
 446 640 414 611 374 611 c 0
 332 611 302 644 302 683 c 0
 302 697 305 708 311 717 c 0
 322 735 341 746 365 752 c 4
 400 761 444 761 480 761 c 0
 663 761 698 681 698 628 c 8
 698 547 570 518 531 506 c 1
 508 500 468 484 437 473 c 1
 505 473 l 2
 583 473 619 473 627 481 c 0
 633 486 636 494 638 501 c 0
 641 511 645 531 647 541 c 9
 694 541 l 1
 667 347 l 1
 302 347 l 1
52 278 m 0
 52 305 81 308 92 308 c 2
 905 308 l 2
 915 308 924 308 933 304 c 0
 943 299 950 288 950 277 c 0
 950 266 944 247 910 247 c 2
 90 247 l 1
 56 248 52 268 52 278 c 0
EndSplineSet
EndChar
StartChar: uF266F
Encoding: 992879 992879 114
Width: 1000
Flags: MW
LayerCount: 2
Fore
SplineSet
304 43 m 1
 330 239 l 1
 389 239 l 1
 390 234 390 229 398 227 c 1
 404 224 580 219 580 219 c 2
 696 219 l 1
 696 187 696 185 688 179 c 2
 566 68 l 2
 550 53 524 4 518 -38 c 0
 514 -64 512 -90 512 -117 c 2
 512 -143 l 2
 512 -202 466 -206 456 -206 c 0
 432 -206 401 -201 401 -145 c 0
 401 -19 461 48 532 106 c 9
 532 106 l 1
 457 106 l 2
 442 106 393 106 383 102 c 0
 370 97 371 100 363 43 c 1
 304 43 l 1
292 473 m 0
 292 519 328 549 370 549 c 0
 412 549 446 519 446 473 c 0
 446 435 424 417 414 409 c 1
 441 402 470 401 484 401 c 0
 544 401 554 431 554 474 c 0
 554 537 526 549 492 551 c 0
 484 551 476 551 468 551 c 0
 448 551 445 553 440 560 c 1
 436 568 438 577 444 583 c 0
 459 596 491 578 518 609 c 0
 533 626 538 649 538 671 c 0
 538 699 528 721 486 721 c 0
 461 721 444 717 420 706 c 1
 424 704 427 702 432 699 c 0
 448 689 464 671 464 641 c 0
 464 600 432 572 394 572 c 0
 357 572 326 598 326 642 c 0
 326 658 330 675 340 692 c 4
 361 729 408 761 492 761 c 0
 623 761 676 714 676 667 c 0
 676 613 631 587 586 570 c 1
 640 560 708 532 708 475 c 0
 708 428 659 357 490 357 c 0
 330 357 292 426 292 473 c 0
52 278 m 0
 52 305 81 308 92 308 c 2
 905 308 l 2
 915 308 924 308 933 304 c 0
 943 299 950 288 950 277 c 0
 950 266 944 247 910 247 c 2
 90 247 l 1
 56 248 52 268 52 278 c 0
EndSplineSet
EndChar
StartChar: uF2670
Encoding: 992880 992880 115
Width: 1000
Flags: MW
LayerCount: 2
Fore
SplineSet
304 43 m 1
 330 239 l 1
 389 239 l 1
 390 234 390 229 398 227 c 1
 404 224 580 219 580 219 c 2
 696 219 l 1
 696 187 696 185 688 179 c 2
 566 68 l 2
 550 53 524 4 518 -38 c 0
 514 -64 512 -90 512 -117 c 2
 512 -143 l 2
 512 -202 466 -206 456 -206 c 0
 432 -206 401 -201 401 -145 c 0
 401 -19 461 48 532 106 c 9
 532 106 l 1
 457 106 l 2
 442 106 393 106 383 102 c 0
 370 97 371 100 363 43 c 1
 304 43 l 1
297 446 m 1
 297 486 l 1
 571 750 l 2
 582 762 581 763 604 763 c 0
 632 763 635 760 635 738 c 2
 635 496 l 1
 701 496 l 1
 701 446 l 1
 635 446 l 1
 635 401 l 1
 703 401 l 1
 703 401 l 1
 703 350 l 1
 683 352 599 352 572 352 c 0
 541 352 449 352 425 350 c 1
 425 401 l 1
 425 401 l 1
 514 401 l 1
 514 446 l 1
 297 446 l 1
388 496 m 1
 525 496 l 1
 525 637 l 1
 388 496 l 1
52 278 m 0
 52 305 81 308 92 308 c 2
 905 308 l 2
 915 308 924 308 933 304 c 0
 943 299 950 288 950 277 c 0
 950 266 944 247 910 247 c 2
 90 247 l 1
 56 248 52 268 52 278 c 0
EndSplineSet
EndChar
StartChar: uF2671
Encoding: 992881 992881 116
Width: 1000
Flags: MW
LayerCount: 2
Fore
SplineSet
304 43 m 1
 330 239 l 1
 389 239 l 1
 390 234 390 229 398 227 c 1
 404 224 580 219 580 219 c 2
 696 219 l 1
 696 187 696 185 688 179 c 2
 566 68 l 2
 550 53 524 4 518 -38 c 0
 514 -64 512 -90 512 -117 c 2
 512 -143 l 2
 512 -202 466 -206 456 -206 c 0
 432 -206 401 -201 401 -145 c 0
 401 -19 461 48 532 106 c 9
 532 106 l 1
 457 106 l 2
 442 106 393 106 383 102 c 0
 370 97 371 100 363 43 c 1
 304 43 l 1
318 452 m 0
 318 501 365 509 376 509 c 0
 386 509 436 505 436 452 c 0
 436 421 426 422 418 418 c 0
 413 416 407 417 402 416 c 1
 416 404 452 403 470 403 c 0
 497 403 520 405 528 414 c 0
 544 432 546 443 546 481 c 0
 546 512 541 524 534 534 c 0
 524 548 503 556 492 556 c 0
 472 556 412 554 396 539 c 0
 389 533 387 529 374 529 c 0
 353 529 352 541 352 553 c 2
 352 750 l 2
 352 760 353 769 366 769 c 0
 369 769 373 767 376 766 c 8
 422 751 422 748 500 748 c 0
 513 748 572 751 618 765 c 0
 630 769 630 769 634 769 c 0
 646 769 646 757 646 752 c 0
 646 728 566 641 448 641 c 2
 406 641 l 1
 406 596 l 1
 430 608 491 609 498 609 c 0
 630 609 682 553 682 481 c 0
 682 405 617 350 474 350 c 0
 379 350 318 397 318 452 c 0
52 278 m 0
 52 305 81 308 92 308 c 2
 905 308 l 2
 915 308 924 308 933 304 c 0
 943 299 950 288 950 277 c 0
 950 266 944 247 910 247 c 2
 90 247 l 1
 56 248 52 268 52 278 c 0
EndSplineSet
EndChar
StartChar: uF2672
Encoding: 992882 992882 117
Width: 1000
Flags: MW
LayerCount: 2
Fore
SplineSet
304 43 m 1
 330 239 l 1
 389 239 l 1
 390 234 390 229 398 227 c 1
 404 224 580 219 580 219 c 2
 696 219 l 1
 696 187 696 185 688 179 c 2
 566 68 l 2
 550 53 524 4 518 -38 c 0
 514 -64 512 -90 512 -117 c 2
 512 -143 l 2
 512 -202 466 -206 456 -206 c 0
 432 -206 401 -201 401 -145 c 0
 401 -19 461 48 532 106 c 9
 532 106 l 1
 457 106 l 2
 442 106 393 106 383 102 c 0
 370 97 371 100 363 43 c 1
 304 43 l 1
311 557 m 0
 311 741 447 769 548 769 c 0
 638 769 666 718 666 676 c 0
 666 652 653 624 610 624 c 0
 571 624 556 651 556 675 c 0
 556 685 553 710 593 716 c 1
 576 724 557 724 549 724 c 0
 485 724 449 696 444 676 c 0
 440 659 438 646 438 590 c 2
 438 581 l 1
 461 617 502 616 519 616 c 0
 611 616 689 583 689 484 c 0
 689 396 622 350 505 350 c 0
 447 350 385 364 349 410 c 1
 311 466 311 522 311 557 c 0
440 476 m 0
 440 464 440 430 449 420 c 0
 458 410 473 398 502 398 c 0
 529 398 550 400 557 428 c 0
 561 445 562 454 562 486 c 0
 562 522 562 538 555 554 c 0
 547 573 533 574 507 574 c 0
 493 574 440 571 440 476 c 0
52 278 m 0
 52 305 81 308 92 308 c 2
 905 308 l 2
 915 308 924 308 933 304 c 0
 943 299 950 288 950 277 c 0
 950 266 944 247 910 247 c 2
 90 247 l 1
 56 248 52 268 52 278 c 0
EndSplineSet
EndChar
StartChar: uF2673
Encoding: 992883 992883 118
Width: 1000
Flags: MW
LayerCount: 2
Fore
SplineSet
311 -89 m 0
 311 -57 312 -19 389 10 c 1
 371 17 364 22 352 36 c 0
 341 49 337 73 337 100 c 0
 337 164 378 219 503 219 c 0
 599 219 664 197 664 124 c 0
 664 92 655 69 607 46 c 1
 614 44 627 39 650 19 c 0
 665 9 689 -14 689 -66 c 0
 689 -139 643 -200 498 -200 c 0
 391 -200 311 -177 311 -89 c 0
396 -89 m 0
 396 -136 426 -152 503 -152 c 0
 539 -152 604 -139 604 -114 c 0
 604 -91 585 -84 543 -64 c 1
 466 -24 486 -38 437 -15 c 1
 428 -19 396 -40 396 -89 c 0
421 151 m 0
 421 132 437 126 437 126 c 2
 561 68 l 1
 581 83 589 96 589 123 c 0
 589 165 564 174 498 174 c 0
 492 174 421 174 421 151 c 0
324 638 m 1
 324 686 l 1
 495 690 506 761 542 761 c 0
 566 761 568 744 568 728 c 2
 568 395 l 1
 568 395 l 1
 676 395 l 1
 676 395 l 1
 676 347 l 1
 616 347 l 1
 660 348 l 1
 558 350 l 1
 438 349 l 1
 356 347 l 1
 340 347 l 1
 340 395 l 1
 340 395 l 1
 448 395 l 1
 448 395 l 1
 448 659 l 1
 401 643 373 639 324 638 c 1
52 278 m 0
 52 305 81 308 92 308 c 2
 905 308 l 2
 915 308 924 308 933 304 c 0
 943 299 950 288 950 277 c 0
 950 266 944 247 910 247 c 2
 90 247 l 1
 56 248 52 268 52 278 c 0
EndSplineSet
EndChar
StartChar: uF2674
Encoding: 992884 992884 119
Width: 1000
Flags: MW
LayerCount: 2
Fore
SplineSet
311 -89 m 0
 311 -57 312 -19 389 10 c 1
 371 17 364 22 352 36 c 0
 341 49 337 73 337 100 c 0
 337 164 378 219 503 219 c 0
 599 219 664 197 664 124 c 0
 664 92 655 69 607 46 c 1
 614 44 627 39 650 19 c 0
 665 9 689 -14 689 -66 c 0
 689 -139 643 -200 498 -200 c 0
 391 -200 311 -177 311 -89 c 0
396 -89 m 0
 396 -136 426 -152 503 -152 c 0
 539 -152 604 -139 604 -114 c 0
 604 -91 585 -84 543 -64 c 1
 466 -24 486 -38 437 -15 c 1
 428 -19 396 -40 396 -89 c 0
421 151 m 0
 421 132 437 126 437 126 c 2
 561 68 l 1
 581 83 589 96 589 123 c 0
 589 165 564 174 498 174 c 0
 492 174 421 174 421 151 c 0
292 473 m 0
 292 519 328 549 370 549 c 0
 412 549 446 519 446 473 c 0
 446 435 424 417 414 409 c 1
 441 402 470 401 484 401 c 0
 544 401 554 431 554 474 c 0
 554 537 526 549 492 551 c 0
 484 551 476 551 468 551 c 0
 448 551 445 553 440 560 c 1
 436 568 438 577 444 583 c 0
 459 596 491 578 518 609 c 0
 533 626 538 649 538 671 c 0
 538 699 528 721 486 721 c 0
 461 721 444 717 420 706 c 1
 424 704 427 702 432 699 c 0
 448 689 464 671 464 641 c 0
 464 600 432 572 394 572 c 0
 357 572 326 598 326 642 c 0
 326 658 330 675 340 692 c 4
 361 729 408 761 492 761 c 0
 623 761 676 714 676 667 c 0
 676 613 631 587 586 570 c 1
 640 560 708 532 708 475 c 0
 708 428 659 357 490 357 c 0
 330 357 292 426 292 473 c 0
52 278 m 0
 52 305 81 308 92 308 c 2
 905 308 l 2
 915 308 924 308 933 304 c 0
 943 299 950 288 950 277 c 0
 950 266 944 247 910 247 c 2
 90 247 l 1
 56 248 52 268 52 278 c 0
EndSplineSet
EndChar
StartChar: uF2675
Encoding: 992885 992885 120
Width: 1000
Flags: MW
LayerCount: 2
Fore
SplineSet
311 -89 m 0
 311 -57 312 -19 389 10 c 1
 371 17 364 22 352 36 c 0
 341 49 337 73 337 100 c 0
 337 164 378 219 503 219 c 0
 599 219 664 197 664 124 c 0
 664 92 655 69 607 46 c 1
 614 44 627 39 650 19 c 0
 665 9 689 -14 689 -66 c 0
 689 -139 643 -200 498 -200 c 0
 391 -200 311 -177 311 -89 c 0
396 -89 m 0
 396 -136 426 -152 503 -152 c 0
 539 -152 604 -139 604 -114 c 0
 604 -91 585 -84 543 -64 c 1
 466 -24 486 -38 437 -15 c 1
 428 -19 396 -40 396 -89 c 0
421 151 m 0
 421 132 437 126 437 126 c 2
 561 68 l 1
 581 83 589 96 589 123 c 0
 589 165 564 174 498 174 c 0
 492 174 421 174 421 151 c 0
318 452 m 0
 318 501 365 509 376 509 c 0
 386 509 436 505 436 452 c 0
 436 421 426 422 418 418 c 0
 413 416 407 417 402 416 c 1
 416 404 452 403 470 403 c 0
 497 403 520 405 528 414 c 0
 544 432 546 443 546 481 c 0
 546 512 541 524 534 534 c 0
 524 548 503 556 492 556 c 0
 472 556 412 554 396 539 c 0
 389 533 387 529 374 529 c 0
 353 529 352 541 352 553 c 2
 352 750 l 2
 352 760 353 769 366 769 c 0
 369 769 373 767 376 766 c 8
 422 751 422 748 500 748 c 0
 513 748 572 751 618 765 c 0
 630 769 630 769 634 769 c 0
 646 769 646 757 646 752 c 0
 646 728 566 641 448 641 c 2
 406 641 l 1
 406 596 l 1
 430 608 491 609 498 609 c 0
 630 609 682 553 682 481 c 0
 682 405 617 350 474 350 c 0
 379 350 318 397 318 452 c 0
52 278 m 0
 52 305 81 308 92 308 c 2
 905 308 l 2
 915 308 924 308 933 304 c 0
 943 299 950 288 950 277 c 0
 950 266 944 247 910 247 c 2
 90 247 l 1
 56 248 52 268 52 278 c 0
EndSplineSet
EndChar
StartChar: uF2676
Encoding: 992886 992886 121
Width: 1000
Flags: MW
LayerCount: 2
Fore
SplineSet
311 -89 m 0
 311 -57 312 -19 389 10 c 1
 371 17 364 22 352 36 c 0
 341 49 337 73 337 100 c 0
 337 164 378 219 503 219 c 0
 599 219 664 197 664 124 c 0
 664 92 655 69 607 46 c 1
 614 44 627 39 650 19 c 0
 665 9 689 -14 689 -66 c 0
 689 -139 643 -200 498 -200 c 0
 391 -200 311 -177 311 -89 c 0
396 -89 m 0
 396 -136 426 -152 503 -152 c 0
 539 -152 604 -139 604 -114 c 0
 604 -91 585 -84 543 -64 c 1
 466 -24 486 -38 437 -15 c 1
 428 -19 396 -40 396 -89 c 0
421 151 m 0
 421 132 437 126 437 126 c 2
 561 68 l 1
 581 83 589 96 589 123 c 0
 589 165 564 174 498 174 c 0
 492 174 421 174 421 151 c 0
304 593 m 1
 330 789 l 1
 389 789 l 1
 390 784 390 779 398 777 c 1
 404 774 580 769 580 769 c 2
 696 769 l 1
 696 737 696 735 688 729 c 2
 566 618 l 2
 550 603 524 554 518 512 c 0
 514 486 512 460 512 433 c 2
 512 407 l 2
 512 348 466 344 456 344 c 0
 432 344 401 349 401 405 c 0
 401 531 461 598 532 656 c 9
 532 656 l 1
 457 656 l 2
 442 656 393 656 383 652 c 0
 370 647 371 650 363 593 c 1
 304 593 l 1
52 278 m 0
 52 305 81 308 92 308 c 2
 905 308 l 2
 915 308 924 308 933 304 c 0
 943 299 950 288 950 277 c 0
 950 266 944 247 910 247 c 2
 90 247 l 1
 56 248 52 268 52 278 c 0
EndSplineSet
EndChar
StartChar: uF2677
Encoding: 992887 992887 122
Width: 1000
Flags: MW
LayerCount: 2
Fore
SplineSet
311 85 m 0
 311 127 334 174 370 193 c 1
 399 207 446 219 501 219 c 0
 673 219 689 102 689 14 c 0
 689 -179 555 -200 463 -200 c 0
 367 -200 334 -153 334 -108 c 0
 334 -84 347 -56 390 -56 c 0
 429 -56 445 -82 445 -106 c 0
 445 -147 412 -147 412 -147 c 1
 435 -151 448 -152 461 -152 c 0
 534 -152 559 -114 558 -103 c 0
 562 -86 562 -51 562 -19 c 2
 562 -12 l 1
 537 -45 488 -47 482 -47 c 0
 388 -47 311 -13 311 85 c 0
438 83 m 0
 438 45 439 19 447 10 c 0
 457 -2 468 -5 493 -5 c 0
 549 -5 562 55 562 83 c 0
 562 97 562 134 557 146 c 0
 548 167 537 174 503 174 c 0
 468 174 452 162 447 148 c 0
 443 136 438 117 438 83 c 0
324 638 m 1
 324 686 l 1
 495 690 506 761 542 761 c 0
 566 761 568 744 568 728 c 2
 568 395 l 1
 568 395 l 1
 676 395 l 1
 676 395 l 1
 676 347 l 1
 616 347 l 1
 660 348 l 1
 558 350 l 1
 438 349 l 1
 356 347 l 1
 340 347 l 1
 340 395 l 1
 340 395 l 1
 448 395 l 1
 448 395 l 1
 448 659 l 1
 401 643 373 639 324 638 c 1
52 278 m 0
 52 305 81 308 92 308 c 2
 905 308 l 2
 915 308 924 308 933 304 c 0
 943 299 950 288 950 277 c 0
 950 266 944 247 910 247 c 2
 90 247 l 1
 56 248 52 268 52 278 c 0
EndSplineSet
EndChar
StartChar: uF2678
Encoding: 992888 992888 123
Width: 1000
Flags: MW
LayerCount: 2
Fore
SplineSet
311 85 m 0
 311 127 334 174 370 193 c 1
 399 207 446 219 501 219 c 0
 673 219 689 102 689 14 c 0
 689 -179 555 -200 463 -200 c 0
 367 -200 334 -153 334 -108 c 0
 334 -84 347 -56 390 -56 c 0
 429 -56 445 -82 445 -106 c 0
 445 -147 412 -147 412 -147 c 1
 435 -151 448 -152 461 -152 c 0
 534 -152 559 -114 558 -103 c 0
 562 -86 562 -51 562 -19 c 2
 562 -12 l 1
 537 -45 488 -47 482 -47 c 0
 388 -47 311 -13 311 85 c 0
438 83 m 0
 438 45 439 19 447 10 c 0
 457 -2 468 -5 493 -5 c 0
 549 -5 562 55 562 83 c 0
 562 97 562 134 557 146 c 0
 548 167 537 174 503 174 c 0
 468 174 452 162 447 148 c 0
 443 136 438 117 438 83 c 0
302 347 m 1
 302 435 l 1
 303 454 309 457 330 466 c 0
 479 534 559 560 559 628 c 0
 559 658 541 698 473 710 c 0
 463 712 452 713 440 713 c 1
 444 701 446 695 446 683 c 0
 446 640 414 611 374 611 c 0
 332 611 302 644 302 683 c 0
 302 697 305 708 311 717 c 0
 322 735 341 746 365 752 c 4
 400 761 444 761 480 761 c 0
 663 761 698 681 698 628 c 8
 698 547 570 518 531 506 c 1
 508 500 468 484 437 473 c 1
 505 473 l 2
 583 473 619 473 627 481 c 0
 633 486 636 494 638 501 c 0
 641 511 645 531 647 541 c 9
 694 541 l 1
 667 347 l 1
 302 347 l 1
52 278 m 0
 52 305 81 308 92 308 c 2
 905 308 l 2
 915 308 924 308 933 304 c 0
 943 299 950 288 950 277 c 0
 950 266 944 247 910 247 c 2
 90 247 l 1
 56 248 52 268 52 278 c 0
EndSplineSet
EndChar
StartChar: uF2679
Encoding: 992889 992889 124
Width: 1000
Flags: MW
LayerCount: 2
Fore
SplineSet
311 85 m 0
 311 127 334 174 370 193 c 1
 399 207 446 219 501 219 c 0
 673 219 689 102 689 14 c 0
 689 -179 555 -200 463 -200 c 0
 367 -200 334 -153 334 -108 c 0
 334 -84 347 -56 390 -56 c 0
 429 -56 445 -82 445 -106 c 0
 445 -147 412 -147 412 -147 c 1
 435 -151 448 -152 461 -152 c 0
 534 -152 559 -114 558 -103 c 0
 562 -86 562 -51 562 -19 c 2
 562 -12 l 1
 537 -45 488 -47 482 -47 c 0
 388 -47 311 -13 311 85 c 0
438 83 m 0
 438 45 439 19 447 10 c 0
 457 -2 468 -5 493 -5 c 0
 549 -5 562 55 562 83 c 0
 562 97 562 134 557 146 c 0
 548 167 537 174 503 174 c 0
 468 174 452 162 447 148 c 0
 443 136 438 117 438 83 c 0
297 446 m 1
 297 486 l 1
 571 750 l 2
 582 762 581 763 604 763 c 0
 632 763 635 760 635 738 c 2
 635 496 l 1
 701 496 l 1
 701 446 l 1
 635 446 l 1
 635 401 l 1
 703 401 l 1
 703 401 l 1
 703 350 l 1
 683 352 599 352 572 352 c 0
 541 352 449 352 425 350 c 1
 425 401 l 1
 425 401 l 1
 514 401 l 1
 514 446 l 1
 297 446 l 1
388 496 m 1
 525 496 l 1
 525 637 l 1
 388 496 l 1
52 278 m 0
 52 305 81 308 92 308 c 2
 905 308 l 2
 915 308 924 308 933 304 c 0
 943 299 950 288 950 277 c 0
 950 266 944 247 910 247 c 2
 90 247 l 1
 56 248 52 268 52 278 c 0
EndSplineSet
EndChar
StartChar: uF267A
Encoding: 992890 992890 125
Width: 1000
Flags: MW
LayerCount: 2
Fore
SplineSet
311 85 m 0
 311 127 334 174 370 193 c 1
 399 207 446 219 501 219 c 0
 673 219 689 102 689 14 c 0
 689 -179 555 -200 463 -200 c 0
 367 -200 334 -153 334 -108 c 0
 334 -84 347 -56 390 -56 c 0
 429 -56 445 -82 445 -106 c 0
 445 -147 412 -147 412 -147 c 1
 435 -151 448 -152 461 -152 c 0
 534 -152 559 -114 558 -103 c 0
 562 -86 562 -51 562 -19 c 2
 562 -12 l 1
 537 -45 488 -47 482 -47 c 0
 388 -47 311 -13 311 85 c 0
438 83 m 0
 438 45 439 19 447 10 c 0
 457 -2 468 -5 493 -5 c 0
 549 -5 562 55 562 83 c 0
 562 97 562 134 557 146 c 0
 548 167 537 174 503 174 c 0
 468 174 452 162 447 148 c 0
 443 136 438 117 438 83 c 0
318 452 m 0
 318 501 365 509 376 509 c 0
 386 509 436 505 436 452 c 0
 436 421 426 422 418 418 c 0
 413 416 407 417 402 416 c 1
 416 404 452 403 470 403 c 0
 497 403 520 405 528 414 c 0
 544 432 546 443 546 481 c 0
 546 512 541 524 534 534 c 0
 524 548 503 556 492 556 c 0
 472 556 412 554 396 539 c 0
 389 533 387 529 374 529 c 0
 353 529 352 541 352 553 c 2
 352 750 l 2
 352 760 353 769 366 769 c 0
 369 769 373 767 376 766 c 8
 422 751 422 748 500 748 c 0
 513 748 572 751 618 765 c 0
 630 769 630 769 634 769 c 0
 646 769 646 757 646 752 c 0
 646 728 566 641 448 641 c 2
 406 641 l 1
 406 596 l 1
 430 608 491 609 498 609 c 0
 630 609 682 553 682 481 c 0
 682 405 617 350 474 350 c 0
 379 350 318 397 318 452 c 0
52 278 m 0
 52 305 81 308 92 308 c 2
 905 308 l 2
 915 308 924 308 933 304 c 0
 943 299 950 288 950 277 c 0
 950 266 944 247 910 247 c 2
 90 247 l 1
 56 248 52 268 52 278 c 0
EndSplineSet
EndChar
StartChar: uF267B
Encoding: 992891 992891 126
Width: 1000
Flags: MW
LayerCount: 2
Fore
SplineSet
311 85 m 0
 311 127 334 174 370 193 c 1
 399 207 446 219 501 219 c 0
 673 219 689 102 689 14 c 0
 689 -179 555 -200 463 -200 c 0
 367 -200 334 -153 334 -108 c 0
 334 -84 347 -56 390 -56 c 0
 429 -56 445 -82 445 -106 c 0
 445 -147 412 -147 412 -147 c 1
 435 -151 448 -152 461 -152 c 0
 534 -152 559 -114 558 -103 c 0
 562 -86 562 -51 562 -19 c 2
 562 -12 l 1
 537 -45 488 -47 482 -47 c 0
 388 -47 311 -13 311 85 c 0
438 83 m 0
 438 45 439 19 447 10 c 0
 457 -2 468 -5 493 -5 c 0
 549 -5 562 55 562 83 c 0
 562 97 562 134 557 146 c 0
 548 167 537 174 503 174 c 0
 468 174 452 162 447 148 c 0
 443 136 438 117 438 83 c 0
304 593 m 1
 330 789 l 1
 389 789 l 1
 390 784 390 779 398 777 c 1
 404 774 580 769 580 769 c 2
 696 769 l 1
 696 737 696 735 688 729 c 2
 566 618 l 2
 550 603 524 554 518 512 c 0
 514 486 512 460 512 433 c 2
 512 407 l 2
 512 348 466 344 456 344 c 0
 432 344 401 349 401 405 c 0
 401 531 461 598 532 656 c 9
 532 656 l 1
 457 656 l 2
 442 656 393 656 383 652 c 0
 370 647 371 650 363 593 c 1
 304 593 l 1
52 278 m 0
 52 305 81 308 92 308 c 2
 905 308 l 2
 915 308 924 308 933 304 c 0
 943 299 950 288 950 277 c 0
 950 266 944 247 910 247 c 2
 90 247 l 1
 56 248 52 268 52 278 c 0
EndSplineSet
EndChar
StartChar: uF267C
Encoding: 992892 992892 127
Width: 1000
Flags: MW
LayerCount: 2
Fore
SplineSet
311 85 m 0
 311 127 334 174 370 193 c 1
 399 207 446 219 501 219 c 0
 673 219 689 102 689 14 c 0
 689 -179 555 -200 463 -200 c 0
 367 -200 334 -153 334 -108 c 0
 334 -84 347 -56 390 -56 c 0
 429 -56 445 -82 445 -106 c 0
 445 -147 412 -147 412 -147 c 1
 435 -151 448 -152 461 -152 c 0
 534 -152 559 -114 558 -103 c 0
 562 -86 562 -51 562 -19 c 2
 562 -12 l 1
 537 -45 488 -47 482 -47 c 0
 388 -47 311 -13 311 85 c 0
438 83 m 0
 438 45 439 19 447 10 c 0
 457 -2 468 -5 493 -5 c 0
 549 -5 562 55 562 83 c 0
 562 97 562 134 557 146 c 0
 548 167 537 174 503 174 c 0
 468 174 452 162 447 148 c 0
 443 136 438 117 438 83 c 0
311 461 m 0
 311 493 312 531 389 560 c 1
 371 567 364 572 352 586 c 0
 341 599 337 623 337 650 c 0
 337 714 378 769 503 769 c 0
 599 769 664 747 664 674 c 0
 664 642 655 619 607 596 c 1
 614 594 627 589 650 569 c 0
 665 559 689 536 689 484 c 0
 689 411 643 350 498 350 c 0
 391 350 311 373 311 461 c 0
396 461 m 0
 396 414 426 398 503 398 c 0
 539 398 604 411 604 436 c 0
 604 459 585 466 543 486 c 1
 466 526 486 512 437 535 c 1
 428 531 396 510 396 461 c 0
421 701 m 0
 421 682 437 676 437 676 c 2
 561 618 l 1
 581 633 589 646 589 673 c 0
 589 715 564 724 498 724 c 0
 492 724 421 724 421 701 c 0
52 278 m 0
 52 305 81 308 92 308 c 2
 905 308 l 2
 915 308 924 308 933 304 c 0
 943 299 950 288 950 277 c 0
 950 266 944 247 910 247 c 2
 90 247 l 1
 56 248 52 268 52 278 c 0
EndSplineSet
EndChar
StartChar: uF267D
Encoding: 992893 992893 128
Width: 1000
Flags: MW
LayerCount: 2
Fore
SplineSet
118 88 m 1
 118 136 l 1
 289 140 300 211 336 211 c 0
 360 211 361 194 361 178 c 2
 361 -155 l 1
 361 -155 l 1
 469 -155 l 1
 469 -155 l 1
 469 -203 l 1
 410 -203 l 1
 454 -202 l 1
 351 -200 l 1
 232 -201 l 1
 149 -203 l 1
 134 -203 l 1
 134 -155 l 1
 134 -155 l 1
 241 -155 l 1
 241 -155 l 1
 241 109 l 1
 194 93 167 89 118 88 c 1
498 7 m 0
 498 37 501 112 554 171 c 24
 587 208 612 219 689 219 c 0
 766 219 793 199 812 187 c 0
 878 145 881 41 881 7 c 0
 881 -29 885 -114 810 -172 c 0
 784 -192 764 -200 690 -200 c 0
 612 -200 580 -188 555 -163 c 0
 510 -118 498 -30 498 7 c 0
619 14 m 0
 619 -19 619 -84 624 -113 c 0
 630 -145 667 -158 690 -158 c 0
 700 -158 748 -159 757 -100 c 0
 759 -74 760 -10 760 14 c 0
 760 80 761 144 744 156 c 0
 733 164 719 176 690 176 c 0
 674 176 628 169 624 131 c 0
 618 99 619 66 619 14 c 0
324 638 m 1
 324 686 l 1
 495 690 506 761 542 761 c 0
 566 761 568 744 568 728 c 2
 568 395 l 1
 568 395 l 1
 676 395 l 1
 676 395 l 1
 676 347 l 1
 616 347 l 1
 660 348 l 1
 558 350 l 1
 438 349 l 1
 356 347 l 1
 340 347 l 1
 340 395 l 1
 340 395 l 1
 448 395 l 1
 448 395 l 1
 448 659 l 1
 401 643 373 639 324 638 c 1
52 278 m 0
 52 305 81 308 92 308 c 2
 905 308 l 2
 915 308 924 308 933 304 c 0
 943 299 950 288 950 277 c 0
 950 266 944 247 910 247 c 2
 90 247 l 1
 56 248 52 268 52 278 c 0
EndSplineSet
EndChar
StartChar: uF267E
Encoding: 992894 992894 129
Width: 1000
Flags: MW
LayerCount: 2
Fore
SplineSet
118 88 m 1
 118 136 l 1
 289 140 300 211 336 211 c 0
 360 211 361 194 361 178 c 2
 361 -155 l 1
 361 -155 l 1
 469 -155 l 1
 469 -155 l 1
 469 -203 l 1
 410 -203 l 1
 454 -202 l 1
 351 -200 l 1
 232 -201 l 1
 149 -203 l 1
 134 -203 l 1
 134 -155 l 1
 134 -155 l 1
 241 -155 l 1
 241 -155 l 1
 241 109 l 1
 194 93 167 89 118 88 c 1
498 7 m 0
 498 37 501 112 554 171 c 24
 587 208 612 219 689 219 c 0
 766 219 793 199 812 187 c 0
 878 145 881 41 881 7 c 0
 881 -29 885 -114 810 -172 c 0
 784 -192 764 -200 690 -200 c 0
 612 -200 580 -188 555 -163 c 0
 510 -118 498 -30 498 7 c 0
619 14 m 0
 619 -19 619 -84 624 -113 c 0
 630 -145 667 -158 690 -158 c 0
 700 -158 748 -159 757 -100 c 0
 759 -74 760 -10 760 14 c 0
 760 80 761 144 744 156 c 0
 733 164 719 176 690 176 c 0
 674 176 628 169 624 131 c 0
 618 99 619 66 619 14 c 0
292 473 m 0
 292 519 328 549 370 549 c 0
 412 549 446 519 446 473 c 0
 446 435 424 417 414 409 c 1
 441 402 470 401 484 401 c 0
 544 401 554 431 554 474 c 0
 554 537 526 549 492 551 c 0
 484 551 476 551 468 551 c 0
 448 551 445 553 440 560 c 1
 436 568 438 577 444 583 c 0
 459 596 491 578 518 609 c 0
 533 626 538 649 538 671 c 0
 538 699 528 721 486 721 c 0
 461 721 444 717 420 706 c 1
 424 704 427 702 432 699 c 0
 448 689 464 671 464 641 c 0
 464 600 432 572 394 572 c 0
 357 572 326 598 326 642 c 0
 326 658 330 675 340 692 c 4
 361 729 408 761 492 761 c 0
 623 761 676 714 676 667 c 0
 676 613 631 587 586 570 c 1
 640 560 708 532 708 475 c 0
 708 428 659 357 490 357 c 0
 330 357 292 426 292 473 c 0
52 278 m 0
 52 305 81 308 92 308 c 2
 905 308 l 2
 915 308 924 308 933 304 c 0
 943 299 950 288 950 277 c 0
 950 266 944 247 910 247 c 2
 90 247 l 1
 56 248 52 268 52 278 c 0
EndSplineSet
EndChar
StartChar: uF267F
Encoding: 992895 992895 130
Width: 1000
Flags: MW
LayerCount: 2
Fore
SplineSet
118 88 m 1
 118 136 l 1
 289 140 300 211 336 211 c 0
 360 211 361 194 361 178 c 2
 361 -155 l 1
 361 -155 l 1
 469 -155 l 1
 469 -155 l 1
 469 -203 l 1
 410 -203 l 1
 454 -202 l 1
 351 -200 l 1
 232 -201 l 1
 149 -203 l 1
 134 -203 l 1
 134 -155 l 1
 134 -155 l 1
 241 -155 l 1
 241 -155 l 1
 241 109 l 1
 194 93 167 89 118 88 c 1
498 7 m 0
 498 37 501 112 554 171 c 24
 587 208 612 219 689 219 c 0
 766 219 793 199 812 187 c 0
 878 145 881 41 881 7 c 0
 881 -29 885 -114 810 -172 c 0
 784 -192 764 -200 690 -200 c 0
 612 -200 580 -188 555 -163 c 0
 510 -118 498 -30 498 7 c 0
619 14 m 0
 619 -19 619 -84 624 -113 c 0
 630 -145 667 -158 690 -158 c 0
 700 -158 748 -159 757 -100 c 0
 759 -74 760 -10 760 14 c 0
 760 80 761 144 744 156 c 0
 733 164 719 176 690 176 c 0
 674 176 628 169 624 131 c 0
 618 99 619 66 619 14 c 0
304 593 m 1
 330 789 l 1
 389 789 l 1
 390 784 390 779 398 777 c 1
 404 774 580 769 580 769 c 2
 696 769 l 1
 696 737 696 735 688 729 c 2
 566 618 l 2
 550 603 524 554 518 512 c 0
 514 486 512 460 512 433 c 2
 512 407 l 2
 512 348 466 344 456 344 c 0
 432 344 401 349 401 405 c 0
 401 531 461 598 532 656 c 9
 532 656 l 1
 457 656 l 2
 442 656 393 656 383 652 c 0
 370 647 371 650 363 593 c 1
 304 593 l 1
52 278 m 0
 52 305 81 308 92 308 c 2
 905 308 l 2
 915 308 924 308 933 304 c 0
 943 299 950 288 950 277 c 0
 950 266 944 247 910 247 c 2
 90 247 l 1
 56 248 52 268 52 278 c 0
EndSplineSet
EndChar
StartChar: uF2680
Encoding: 992896 992896 131
Width: 1000
Flags: MW
LayerCount: 2
Fore
SplineSet
118 88 m 1
 118 136 l 1
 289 140 300 211 336 211 c 0
 360 211 361 194 361 178 c 2
 361 -155 l 1
 361 -155 l 1
 469 -155 l 1
 469 -155 l 1
 469 -203 l 1
 410 -203 l 1
 454 -202 l 1
 351 -200 l 1
 232 -201 l 1
 149 -203 l 1
 134 -203 l 1
 134 -155 l 1
 134 -155 l 1
 241 -155 l 1
 241 -155 l 1
 241 109 l 1
 194 93 167 89 118 88 c 1
498 7 m 0
 498 37 501 112 554 171 c 24
 587 208 612 219 689 219 c 0
 766 219 793 199 812 187 c 0
 878 145 881 41 881 7 c 0
 881 -29 885 -114 810 -172 c 0
 784 -192 764 -200 690 -200 c 0
 612 -200 580 -188 555 -163 c 0
 510 -118 498 -30 498 7 c 0
619 14 m 0
 619 -19 619 -84 624 -113 c 0
 630 -145 667 -158 690 -158 c 0
 700 -158 748 -159 757 -100 c 0
 759 -74 760 -10 760 14 c 0
 760 80 761 144 744 156 c 0
 733 164 719 176 690 176 c 0
 674 176 628 169 624 131 c 0
 618 99 619 66 619 14 c 0
311 635 m 0
 311 677 334 724 370 743 c 1
 399 757 446 769 501 769 c 0
 673 769 689 652 689 564 c 0
 689 371 555 350 463 350 c 0
 367 350 334 397 334 442 c 0
 334 466 347 494 390 494 c 0
 429 494 445 468 445 444 c 0
 445 403 412 403 412 403 c 1
 435 399 448 398 461 398 c 0
 534 398 559 436 558 447 c 0
 562 464 562 499 562 531 c 2
 562 538 l 1
 537 505 488 503 482 503 c 0
 388 503 311 537 311 635 c 0
438 633 m 0
 438 595 439 569 447 560 c 0
 457 548 468 545 493 545 c 0
 549 545 562 605 562 633 c 0
 562 647 562 684 557 696 c 0
 548 717 537 724 503 724 c 0
 468 724 452 712 447 698 c 0
 443 686 438 667 438 633 c 0
52 278 m 0
 52 305 81 308 92 308 c 2
 905 308 l 2
 915 308 924 308 933 304 c 0
 943 299 950 288 950 277 c 0
 950 266 944 247 910 247 c 2
 90 247 l 1
 56 248 52 268 52 278 c 0
EndSplineSet
EndChar
StartChar: uF2681
Encoding: 992897 992897 132
Width: 1000
Flags: MW
LayerCount: 2
Fore
SplineSet
524 88 m 1
 524 136 l 1
 695 140 706 211 742 211 c 0
 766 211 768 194 768 178 c 2
 768 -155 l 1
 768 -155 l 1
 876 -155 l 1
 876 -155 l 1
 876 -203 l 1
 816 -203 l 1
 860 -202 l 1
 758 -200 l 1
 638 -201 l 1
 556 -203 l 1
 540 -203 l 1
 540 -155 l 1
 540 -155 l 1
 648 -155 l 1
 648 -155 l 1
 648 109 l 1
 601 93 573 89 524 88 c 1
124 88 m 1
 124 136 l 1
 295 140 306 211 342 211 c 0
 366 211 368 194 368 178 c 2
 368 -155 l 1
 368 -155 l 1
 476 -155 l 1
 476 -155 l 1
 476 -203 l 1
 416 -203 l 1
 460 -202 l 1
 358 -200 l 1
 238 -201 l 1
 156 -203 l 1
 140 -203 l 1
 140 -155 l 1
 140 -155 l 1
 248 -155 l 1
 248 -155 l 1
 248 109 l 1
 201 93 173 89 124 88 c 1
324 638 m 1
 324 686 l 1
 495 690 506 761 542 761 c 0
 566 761 568 744 568 728 c 2
 568 395 l 1
 568 395 l 1
 676 395 l 1
 676 395 l 1
 676 347 l 1
 616 347 l 1
 660 348 l 1
 558 350 l 1
 438 349 l 1
 356 347 l 1
 340 347 l 1
 340 395 l 1
 340 395 l 1
 448 395 l 1
 448 395 l 1
 448 659 l 1
 401 643 373 639 324 638 c 1
52 278 m 0
 52 305 81 308 92 308 c 2
 905 308 l 2
 915 308 924 308 933 304 c 0
 943 299 950 288 950 277 c 0
 950 266 944 247 910 247 c 2
 90 247 l 1
 56 248 52 268 52 278 c 0
EndSplineSet
EndChar
StartChar: uF2682
Encoding: 992898 992898 133
Width: 1000
Flags: MW
LayerCount: 2
Fore
SplineSet
524 88 m 1
 524 136 l 1
 695 140 706 211 742 211 c 0
 766 211 768 194 768 178 c 2
 768 -155 l 1
 768 -155 l 1
 876 -155 l 1
 876 -155 l 1
 876 -203 l 1
 816 -203 l 1
 860 -202 l 1
 758 -200 l 1
 638 -201 l 1
 556 -203 l 1
 540 -203 l 1
 540 -155 l 1
 540 -155 l 1
 648 -155 l 1
 648 -155 l 1
 648 109 l 1
 601 93 573 89 524 88 c 1
124 88 m 1
 124 136 l 1
 295 140 306 211 342 211 c 0
 366 211 368 194 368 178 c 2
 368 -155 l 1
 368 -155 l 1
 476 -155 l 1
 476 -155 l 1
 476 -203 l 1
 416 -203 l 1
 460 -202 l 1
 358 -200 l 1
 238 -201 l 1
 156 -203 l 1
 140 -203 l 1
 140 -155 l 1
 140 -155 l 1
 248 -155 l 1
 248 -155 l 1
 248 109 l 1
 201 93 173 89 124 88 c 1
302 347 m 1
 302 435 l 1
 303 454 309 457 330 466 c 0
 479 534 559 560 559 628 c 0
 559 658 541 698 473 710 c 0
 463 712 452 713 440 713 c 1
 444 701 446 695 446 683 c 0
 446 640 414 611 374 611 c 0
 332 611 302 644 302 683 c 0
 302 697 305 708 311 717 c 0
 322 735 341 746 365 752 c 4
 400 761 444 761 480 761 c 0
 663 761 698 681 698 628 c 8
 698 547 570 518 531 506 c 1
 508 500 468 484 437 473 c 1
 505 473 l 2
 583 473 619 473 627 481 c 0
 633 486 636 494 638 501 c 0
 641 511 645 531 647 541 c 9
 694 541 l 1
 667 347 l 1
 302 347 l 1
52 278 m 0
 52 305 81 308 92 308 c 2
 905 308 l 2
 915 308 924 308 933 304 c 0
 943 299 950 288 950 277 c 0
 950 266 944 247 910 247 c 2
 90 247 l 1
 56 248 52 268 52 278 c 0
EndSplineSet
EndChar
StartChar: uF2683
Encoding: 992899 992899 134
Width: 1000
Flags: MW
LayerCount: 2
Fore
SplineSet
524 88 m 1
 524 136 l 1
 695 140 706 211 742 211 c 0
 766 211 768 194 768 178 c 2
 768 -155 l 1
 768 -155 l 1
 876 -155 l 1
 876 -155 l 1
 876 -203 l 1
 816 -203 l 1
 860 -202 l 1
 758 -200 l 1
 638 -201 l 1
 556 -203 l 1
 540 -203 l 1
 540 -155 l 1
 540 -155 l 1
 648 -155 l 1
 648 -155 l 1
 648 109 l 1
 601 93 573 89 524 88 c 1
124 88 m 1
 124 136 l 1
 295 140 306 211 342 211 c 0
 366 211 368 194 368 178 c 2
 368 -155 l 1
 368 -155 l 1
 476 -155 l 1
 476 -155 l 1
 476 -203 l 1
 416 -203 l 1
 460 -202 l 1
 358 -200 l 1
 238 -201 l 1
 156 -203 l 1
 140 -203 l 1
 140 -155 l 1
 140 -155 l 1
 248 -155 l 1
 248 -155 l 1
 248 109 l 1
 201 93 173 89 124 88 c 1
292 473 m 0
 292 519 328 549 370 549 c 0
 412 549 446 519 446 473 c 0
 446 435 424 417 414 409 c 1
 441 402 470 401 484 401 c 0
 544 401 554 431 554 474 c 0
 554 537 526 549 492 551 c 0
 484 551 476 551 468 551 c 0
 448 551 445 553 440 560 c 1
 436 568 438 577 444 583 c 0
 459 596 491 578 518 609 c 0
 533 626 538 649 538 671 c 0
 538 699 528 721 486 721 c 0
 461 721 444 717 420 706 c 1
 424 704 427 702 432 699 c 0
 448 689 464 671 464 641 c 0
 464 600 432 572 394 572 c 0
 357 572 326 598 326 642 c 0
 326 658 330 675 340 692 c 4
 361 729 408 761 492 761 c 0
 623 761 676 714 676 667 c 0
 676 613 631 587 586 570 c 1
 640 560 708 532 708 475 c 0
 708 428 659 357 490 357 c 0
 330 357 292 426 292 473 c 0
52 278 m 0
 52 305 81 308 92 308 c 2
 905 308 l 2
 915 308 924 308 933 304 c 0
 943 299 950 288 950 277 c 0
 950 266 944 247 910 247 c 2
 90 247 l 1
 56 248 52 268 52 278 c 0
EndSplineSet
EndChar
StartChar: uF2684
Encoding: 992900 992900 135
Width: 1000
Flags: MW
LayerCount: 2
Fore
SplineSet
524 88 m 1
 524 136 l 1
 695 140 706 211 742 211 c 0
 766 211 768 194 768 178 c 2
 768 -155 l 1
 768 -155 l 1
 876 -155 l 1
 876 -155 l 1
 876 -203 l 1
 816 -203 l 1
 860 -202 l 1
 758 -200 l 1
 638 -201 l 1
 556 -203 l 1
 540 -203 l 1
 540 -155 l 1
 540 -155 l 1
 648 -155 l 1
 648 -155 l 1
 648 109 l 1
 601 93 573 89 524 88 c 1
124 88 m 1
 124 136 l 1
 295 140 306 211 342 211 c 0
 366 211 368 194 368 178 c 2
 368 -155 l 1
 368 -155 l 1
 476 -155 l 1
 476 -155 l 1
 476 -203 l 1
 416 -203 l 1
 460 -202 l 1
 358 -200 l 1
 238 -201 l 1
 156 -203 l 1
 140 -203 l 1
 140 -155 l 1
 140 -155 l 1
 248 -155 l 1
 248 -155 l 1
 248 109 l 1
 201 93 173 89 124 88 c 1
297 446 m 1
 297 486 l 1
 571 750 l 2
 582 762 581 763 604 763 c 0
 632 763 635 760 635 738 c 2
 635 496 l 1
 701 496 l 1
 701 446 l 1
 635 446 l 1
 635 401 l 1
 703 401 l 1
 703 401 l 1
 703 350 l 1
 683 352 599 352 572 352 c 0
 541 352 449 352 425 350 c 1
 425 401 l 1
 425 401 l 1
 514 401 l 1
 514 446 l 1
 297 446 l 1
388 496 m 1
 525 496 l 1
 525 637 l 1
 388 496 l 1
52 278 m 0
 52 305 81 308 92 308 c 2
 905 308 l 2
 915 308 924 308 933 304 c 0
 943 299 950 288 950 277 c 0
 950 266 944 247 910 247 c 2
 90 247 l 1
 56 248 52 268 52 278 c 0
EndSplineSet
EndChar
StartChar: uF2685
Encoding: 992901 992901 136
Width: 1000
Flags: MW
LayerCount: 2
Fore
SplineSet
524 88 m 1
 524 136 l 1
 695 140 706 211 742 211 c 0
 766 211 768 194 768 178 c 2
 768 -155 l 1
 768 -155 l 1
 876 -155 l 1
 876 -155 l 1
 876 -203 l 1
 816 -203 l 1
 860 -202 l 1
 758 -200 l 1
 638 -201 l 1
 556 -203 l 1
 540 -203 l 1
 540 -155 l 1
 540 -155 l 1
 648 -155 l 1
 648 -155 l 1
 648 109 l 1
 601 93 573 89 524 88 c 1
124 88 m 1
 124 136 l 1
 295 140 306 211 342 211 c 0
 366 211 368 194 368 178 c 2
 368 -155 l 1
 368 -155 l 1
 476 -155 l 1
 476 -155 l 1
 476 -203 l 1
 416 -203 l 1
 460 -202 l 1
 358 -200 l 1
 238 -201 l 1
 156 -203 l 1
 140 -203 l 1
 140 -155 l 1
 140 -155 l 1
 248 -155 l 1
 248 -155 l 1
 248 109 l 1
 201 93 173 89 124 88 c 1
318 452 m 0
 318 501 365 509 376 509 c 0
 386 509 436 505 436 452 c 0
 436 421 426 422 418 418 c 0
 413 416 407 417 402 416 c 1
 416 404 452 403 470 403 c 0
 497 403 520 405 528 414 c 0
 544 432 546 443 546 481 c 0
 546 512 541 524 534 534 c 0
 524 548 503 556 492 556 c 0
 472 556 412 554 396 539 c 0
 389 533 387 529 374 529 c 0
 353 529 352 541 352 553 c 2
 352 750 l 2
 352 760 353 769 366 769 c 0
 369 769 373 767 376 766 c 8
 422 751 422 748 500 748 c 0
 513 748 572 751 618 765 c 0
 630 769 630 769 634 769 c 0
 646 769 646 757 646 752 c 0
 646 728 566 641 448 641 c 2
 406 641 l 1
 406 596 l 1
 430 608 491 609 498 609 c 0
 630 609 682 553 682 481 c 0
 682 405 617 350 474 350 c 0
 379 350 318 397 318 452 c 0
52 278 m 0
 52 305 81 308 92 308 c 2
 905 308 l 2
 915 308 924 308 933 304 c 0
 943 299 950 288 950 277 c 0
 950 266 944 247 910 247 c 2
 90 247 l 1
 56 248 52 268 52 278 c 0
EndSplineSet
EndChar
StartChar: uF2686
Encoding: 992902 992902 137
Width: 1000
Flags: MW
LayerCount: 2
Fore
SplineSet
524 88 m 1
 524 136 l 1
 695 140 706 211 742 211 c 0
 766 211 768 194 768 178 c 2
 768 -155 l 1
 768 -155 l 1
 876 -155 l 1
 876 -155 l 1
 876 -203 l 1
 816 -203 l 1
 860 -202 l 1
 758 -200 l 1
 638 -201 l 1
 556 -203 l 1
 540 -203 l 1
 540 -155 l 1
 540 -155 l 1
 648 -155 l 1
 648 -155 l 1
 648 109 l 1
 601 93 573 89 524 88 c 1
124 88 m 1
 124 136 l 1
 295 140 306 211 342 211 c 0
 366 211 368 194 368 178 c 2
 368 -155 l 1
 368 -155 l 1
 476 -155 l 1
 476 -155 l 1
 476 -203 l 1
 416 -203 l 1
 460 -202 l 1
 358 -200 l 1
 238 -201 l 1
 156 -203 l 1
 140 -203 l 1
 140 -155 l 1
 140 -155 l 1
 248 -155 l 1
 248 -155 l 1
 248 109 l 1
 201 93 173 89 124 88 c 1
311 557 m 0
 311 741 447 769 548 769 c 0
 638 769 666 718 666 676 c 0
 666 652 653 624 610 624 c 0
 571 624 556 651 556 675 c 0
 556 685 553 710 593 716 c 1
 576 724 557 724 549 724 c 0
 485 724 449 696 444 676 c 0
 440 659 438 646 438 590 c 2
 438 581 l 1
 461 617 502 616 519 616 c 0
 611 616 689 583 689 484 c 0
 689 396 622 350 505 350 c 0
 447 350 385 364 349 410 c 1
 311 466 311 522 311 557 c 0
440 476 m 0
 440 464 440 430 449 420 c 0
 458 410 473 398 502 398 c 0
 529 398 550 400 557 428 c 0
 561 445 562 454 562 486 c 0
 562 522 562 538 555 554 c 0
 547 573 533 574 507 574 c 0
 493 574 440 571 440 476 c 0
52 278 m 0
 52 305 81 308 92 308 c 2
 905 308 l 2
 915 308 924 308 933 304 c 0
 943 299 950 288 950 277 c 0
 950 266 944 247 910 247 c 2
 90 247 l 1
 56 248 52 268 52 278 c 0
EndSplineSet
EndChar
StartChar: uF2687
Encoding: 992903 992903 138
Width: 1000
Flags: MW
LayerCount: 2
Fore
SplineSet
524 88 m 1
 524 136 l 1
 695 140 706 211 742 211 c 0
 766 211 768 194 768 178 c 2
 768 -155 l 1
 768 -155 l 1
 876 -155 l 1
 876 -155 l 1
 876 -203 l 1
 816 -203 l 1
 860 -202 l 1
 758 -200 l 1
 638 -201 l 1
 556 -203 l 1
 540 -203 l 1
 540 -155 l 1
 540 -155 l 1
 648 -155 l 1
 648 -155 l 1
 648 109 l 1
 601 93 573 89 524 88 c 1
124 88 m 1
 124 136 l 1
 295 140 306 211 342 211 c 0
 366 211 368 194 368 178 c 2
 368 -155 l 1
 368 -155 l 1
 476 -155 l 1
 476 -155 l 1
 476 -203 l 1
 416 -203 l 1
 460 -202 l 1
 358 -200 l 1
 238 -201 l 1
 156 -203 l 1
 140 -203 l 1
 140 -155 l 1
 140 -155 l 1
 248 -155 l 1
 248 -155 l 1
 248 109 l 1
 201 93 173 89 124 88 c 1
304 593 m 1
 330 789 l 1
 389 789 l 1
 390 784 390 779 398 777 c 1
 404 774 580 769 580 769 c 2
 696 769 l 1
 696 737 696 735 688 729 c 2
 566 618 l 2
 550 603 524 554 518 512 c 0
 514 486 512 460 512 433 c 2
 512 407 l 2
 512 348 466 344 456 344 c 0
 432 344 401 349 401 405 c 0
 401 531 461 598 532 656 c 9
 532 656 l 1
 457 656 l 2
 442 656 393 656 383 652 c 0
 370 647 371 650 363 593 c 1
 304 593 l 1
52 278 m 0
 52 305 81 308 92 308 c 2
 905 308 l 2
 915 308 924 308 933 304 c 0
 943 299 950 288 950 277 c 0
 950 266 944 247 910 247 c 2
 90 247 l 1
 56 248 52 268 52 278 c 0
EndSplineSet
EndChar
StartChar: uF2688
Encoding: 992904 992904 139
Width: 1000
Flags: MW
LayerCount: 2
Fore
SplineSet
524 88 m 1
 524 136 l 1
 695 140 706 211 742 211 c 0
 766 211 768 194 768 178 c 2
 768 -155 l 1
 768 -155 l 1
 876 -155 l 1
 876 -155 l 1
 876 -203 l 1
 816 -203 l 1
 860 -202 l 1
 758 -200 l 1
 638 -201 l 1
 556 -203 l 1
 540 -203 l 1
 540 -155 l 1
 540 -155 l 1
 648 -155 l 1
 648 -155 l 1
 648 109 l 1
 601 93 573 89 524 88 c 1
124 88 m 1
 124 136 l 1
 295 140 306 211 342 211 c 0
 366 211 368 194 368 178 c 2
 368 -155 l 1
 368 -155 l 1
 476 -155 l 1
 476 -155 l 1
 476 -203 l 1
 416 -203 l 1
 460 -202 l 1
 358 -200 l 1
 238 -201 l 1
 156 -203 l 1
 140 -203 l 1
 140 -155 l 1
 140 -155 l 1
 248 -155 l 1
 248 -155 l 1
 248 109 l 1
 201 93 173 89 124 88 c 1
311 461 m 0
 311 493 312 531 389 560 c 1
 371 567 364 572 352 586 c 0
 341 599 337 623 337 650 c 0
 337 714 378 769 503 769 c 0
 599 769 664 747 664 674 c 0
 664 642 655 619 607 596 c 1
 614 594 627 589 650 569 c 0
 665 559 689 536 689 484 c 0
 689 411 643 350 498 350 c 0
 391 350 311 373 311 461 c 0
396 461 m 0
 396 414 426 398 503 398 c 0
 539 398 604 411 604 436 c 0
 604 459 585 466 543 486 c 1
 466 526 486 512 437 535 c 1
 428 531 396 510 396 461 c 0
421 701 m 0
 421 682 437 676 437 676 c 2
 561 618 l 1
 581 633 589 646 589 673 c 0
 589 715 564 724 498 724 c 0
 492 724 421 724 421 701 c 0
52 278 m 0
 52 305 81 308 92 308 c 2
 905 308 l 2
 915 308 924 308 933 304 c 0
 943 299 950 288 950 277 c 0
 950 266 944 247 910 247 c 2
 90 247 l 1
 56 248 52 268 52 278 c 0
EndSplineSet
EndChar
StartChar: uF2689
Encoding: 992905 992905 140
Width: 1000
Flags: MW
LayerCount: 2
Fore
SplineSet
524 88 m 1
 524 136 l 1
 695 140 706 211 742 211 c 0
 766 211 768 194 768 178 c 2
 768 -155 l 1
 768 -155 l 1
 876 -155 l 1
 876 -155 l 1
 876 -203 l 1
 816 -203 l 1
 860 -202 l 1
 758 -200 l 1
 638 -201 l 1
 556 -203 l 1
 540 -203 l 1
 540 -155 l 1
 540 -155 l 1
 648 -155 l 1
 648 -155 l 1
 648 109 l 1
 601 93 573 89 524 88 c 1
124 88 m 1
 124 136 l 1
 295 140 306 211 342 211 c 0
 366 211 368 194 368 178 c 2
 368 -155 l 1
 368 -155 l 1
 476 -155 l 1
 476 -155 l 1
 476 -203 l 1
 416 -203 l 1
 460 -202 l 1
 358 -200 l 1
 238 -201 l 1
 156 -203 l 1
 140 -203 l 1
 140 -155 l 1
 140 -155 l 1
 248 -155 l 1
 248 -155 l 1
 248 109 l 1
 201 93 173 89 124 88 c 1
311 635 m 0
 311 677 334 724 370 743 c 1
 399 757 446 769 501 769 c 0
 673 769 689 652 689 564 c 0
 689 371 555 350 463 350 c 0
 367 350 334 397 334 442 c 0
 334 466 347 494 390 494 c 0
 429 494 445 468 445 444 c 0
 445 403 412 403 412 403 c 1
 435 399 448 398 461 398 c 0
 534 398 559 436 558 447 c 0
 562 464 562 499 562 531 c 2
 562 538 l 1
 537 505 488 503 482 503 c 0
 388 503 311 537 311 635 c 0
438 633 m 0
 438 595 439 569 447 560 c 0
 457 548 468 545 493 545 c 0
 549 545 562 605 562 633 c 0
 562 647 562 684 557 696 c 0
 548 717 537 724 503 724 c 0
 468 724 452 712 447 698 c 0
 443 686 438 667 438 633 c 0
52 278 m 0
 52 305 81 308 92 308 c 2
 905 308 l 2
 915 308 924 308 933 304 c 0
 943 299 950 288 950 277 c 0
 950 266 944 247 910 247 c 2
 90 247 l 1
 56 248 52 268 52 278 c 0
EndSplineSet
EndChar
StartChar: uF268A
Encoding: 992906 992906 141
Width: 1000
Flags: MW
LayerCount: 2
Fore
SplineSet
524 88 m 1
 524 136 l 1
 695 140 706 211 742 211 c 0
 766 211 768 194 768 178 c 2
 768 -155 l 1
 768 -155 l 1
 876 -155 l 1
 876 -155 l 1
 876 -203 l 1
 816 -203 l 1
 860 -202 l 1
 758 -200 l 1
 638 -201 l 1
 556 -203 l 1
 540 -203 l 1
 540 -155 l 1
 540 -155 l 1
 648 -155 l 1
 648 -155 l 1
 648 109 l 1
 601 93 573 89 524 88 c 1
124 88 m 1
 124 136 l 1
 295 140 306 211 342 211 c 0
 366 211 368 194 368 178 c 2
 368 -155 l 1
 368 -155 l 1
 476 -155 l 1
 476 -155 l 1
 476 -203 l 1
 416 -203 l 1
 460 -202 l 1
 358 -200 l 1
 238 -201 l 1
 156 -203 l 1
 140 -203 l 1
 140 -155 l 1
 140 -155 l 1
 248 -155 l 1
 248 -155 l 1
 248 109 l 1
 201 93 173 89 124 88 c 1
118 638 m 1
 118 686 l 1
 289 690 300 761 336 761 c 0
 360 761 361 744 361 728 c 2
 361 395 l 1
 361 395 l 1
 469 395 l 1
 469 395 l 1
 469 347 l 1
 410 347 l 1
 454 348 l 1
 351 350 l 1
 232 349 l 1
 149 347 l 1
 134 347 l 1
 134 395 l 1
 134 395 l 1
 241 395 l 1
 241 395 l 1
 241 659 l 1
 194 643 167 639 118 638 c 1
498 557 m 0
 498 587 501 662 554 721 c 24
 587 758 612 769 689 769 c 0
 766 769 793 749 812 737 c 0
 878 695 881 591 881 557 c 0
 881 521 885 436 810 378 c 0
 784 358 764 350 690 350 c 0
 612 350 580 362 555 387 c 0
 510 432 498 520 498 557 c 0
619 564 m 0
 619 531 619 466 624 437 c 0
 630 405 667 392 690 392 c 0
 700 392 748 391 757 450 c 0
 759 476 760 540 760 564 c 0
 760 630 761 694 744 706 c 0
 733 714 719 726 690 726 c 0
 674 726 628 719 624 681 c 0
 618 649 619 616 619 564 c 0
52 278 m 0
 52 305 81 308 92 308 c 2
 905 308 l 2
 915 308 924 308 933 304 c 0
 943 299 950 288 950 277 c 0
 950 266 944 247 910 247 c 2
 90 247 l 1
 56 248 52 268 52 278 c 0
EndSplineSet
EndChar
StartChar: uF268B
Encoding: 992907 992907 142
Width: 1000
Flags: MW
LayerCount: 2
Fore
SplineSet
490 -203 m 1
 490 -115 l 1
 491 -96 497 -93 518 -84 c 0
 667 -16 748 10 748 78 c 0
 748 108 730 148 662 160 c 0
 652 162 640 163 628 163 c 1
 632 151 634 145 634 133 c 0
 634 90 602 61 562 61 c 0
 520 61 490 94 490 133 c 0
 490 147 494 158 500 167 c 0
 511 185 530 196 554 202 c 0
 589 211 632 211 668 211 c 0
 851 211 886 131 886 78 c 8
 886 -3 759 -32 720 -44 c 1
 697 -50 657 -66 626 -77 c 1
 694 -77 l 2
 772 -77 808 -77 816 -69 c 0
 822 -64 824 -56 826 -49 c 0
 829 -39 834 -19 836 -9 c 9
 882 -9 l 1
 856 -203 l 1
 490 -203 l 1
114 88 m 1
 114 136 l 1
 285 140 296 211 332 211 c 0
 356 211 356 194 356 178 c 2
 356 -155 l 1
 356 -155 l 1
 464 -155 l 1
 464 -155 l 1
 464 -203 l 1
 406 -203 l 1
 450 -202 l 1
 346 -200 l 1
 228 -201 l 1
 144 -203 l 1
 130 -203 l 1
 130 -155 l 1
 130 -155 l 1
 236 -155 l 1
 236 -155 l 1
 236 109 l 1
 189 93 163 89 114 88 c 1
324 638 m 1
 324 686 l 1
 495 690 506 761 542 761 c 0
 566 761 568 744 568 728 c 2
 568 395 l 1
 568 395 l 1
 676 395 l 1
 676 395 l 1
 676 347 l 1
 616 347 l 1
 660 348 l 1
 558 350 l 1
 438 349 l 1
 356 347 l 1
 340 347 l 1
 340 395 l 1
 340 395 l 1
 448 395 l 1
 448 395 l 1
 448 659 l 1
 401 643 373 639 324 638 c 1
52 278 m 0
 52 305 81 308 92 308 c 2
 905 308 l 2
 915 308 924 308 933 304 c 0
 943 299 950 288 950 277 c 0
 950 266 944 247 910 247 c 2
 90 247 l 1
 56 248 52 268 52 278 c 0
EndSplineSet
EndChar
StartChar: uF268C
Encoding: 992908 992908 143
Width: 1000
Flags: MW
LayerCount: 2
Fore
SplineSet
490 -203 m 1
 490 -115 l 1
 491 -96 497 -93 518 -84 c 0
 667 -16 748 10 748 78 c 0
 748 108 730 148 662 160 c 0
 652 162 640 163 628 163 c 1
 632 151 634 145 634 133 c 0
 634 90 602 61 562 61 c 0
 520 61 490 94 490 133 c 0
 490 147 494 158 500 167 c 0
 511 185 530 196 554 202 c 0
 589 211 632 211 668 211 c 0
 851 211 886 131 886 78 c 8
 886 -3 759 -32 720 -44 c 1
 697 -50 657 -66 626 -77 c 1
 694 -77 l 2
 772 -77 808 -77 816 -69 c 0
 822 -64 824 -56 826 -49 c 0
 829 -39 834 -19 836 -9 c 9
 882 -9 l 1
 856 -203 l 1
 490 -203 l 1
114 88 m 1
 114 136 l 1
 285 140 296 211 332 211 c 0
 356 211 356 194 356 178 c 2
 356 -155 l 1
 356 -155 l 1
 464 -155 l 1
 464 -155 l 1
 464 -203 l 1
 406 -203 l 1
 450 -202 l 1
 346 -200 l 1
 228 -201 l 1
 144 -203 l 1
 130 -203 l 1
 130 -155 l 1
 130 -155 l 1
 236 -155 l 1
 236 -155 l 1
 236 109 l 1
 189 93 163 89 114 88 c 1
318 452 m 0
 318 501 365 509 376 509 c 0
 386 509 436 505 436 452 c 0
 436 421 426 422 418 418 c 0
 413 416 407 417 402 416 c 1
 416 404 452 403 470 403 c 0
 497 403 520 405 528 414 c 0
 544 432 546 443 546 481 c 0
 546 512 541 524 534 534 c 0
 524 548 503 556 492 556 c 0
 472 556 412 554 396 539 c 0
 389 533 387 529 374 529 c 0
 353 529 352 541 352 553 c 2
 352 750 l 2
 352 760 353 769 366 769 c 0
 369 769 373 767 376 766 c 8
 422 751 422 748 500 748 c 0
 513 748 572 751 618 765 c 0
 630 769 630 769 634 769 c 0
 646 769 646 757 646 752 c 0
 646 728 566 641 448 641 c 2
 406 641 l 1
 406 596 l 1
 430 608 491 609 498 609 c 0
 630 609 682 553 682 481 c 0
 682 405 617 350 474 350 c 0
 379 350 318 397 318 452 c 0
52 278 m 0
 52 305 81 308 92 308 c 2
 905 308 l 2
 915 308 924 308 933 304 c 0
 943 299 950 288 950 277 c 0
 950 266 944 247 910 247 c 2
 90 247 l 1
 56 248 52 268 52 278 c 0
EndSplineSet
EndChar
StartChar: uF268D
Encoding: 992909 992909 144
Width: 1000
Flags: MW
LayerCount: 2
Fore
SplineSet
490 -203 m 1
 490 -115 l 1
 491 -96 497 -93 518 -84 c 0
 667 -16 748 10 748 78 c 0
 748 108 730 148 662 160 c 0
 652 162 640 163 628 163 c 1
 632 151 634 145 634 133 c 0
 634 90 602 61 562 61 c 0
 520 61 490 94 490 133 c 0
 490 147 494 158 500 167 c 0
 511 185 530 196 554 202 c 0
 589 211 632 211 668 211 c 0
 851 211 886 131 886 78 c 8
 886 -3 759 -32 720 -44 c 1
 697 -50 657 -66 626 -77 c 1
 694 -77 l 2
 772 -77 808 -77 816 -69 c 0
 822 -64 824 -56 826 -49 c 0
 829 -39 834 -19 836 -9 c 9
 882 -9 l 1
 856 -203 l 1
 490 -203 l 1
114 88 m 1
 114 136 l 1
 285 140 296 211 332 211 c 0
 356 211 356 194 356 178 c 2
 356 -155 l 1
 356 -155 l 1
 464 -155 l 1
 464 -155 l 1
 464 -203 l 1
 406 -203 l 1
 450 -202 l 1
 346 -200 l 1
 228 -201 l 1
 144 -203 l 1
 130 -203 l 1
 130 -155 l 1
 130 -155 l 1
 236 -155 l 1
 236 -155 l 1
 236 109 l 1
 189 93 163 89 114 88 c 1
304 593 m 1
 330 789 l 1
 389 789 l 1
 390 784 390 779 398 777 c 1
 404 774 580 769 580 769 c 2
 696 769 l 1
 696 737 696 735 688 729 c 2
 566 618 l 2
 550 603 524 554 518 512 c 0
 514 486 512 460 512 433 c 2
 512 407 l 2
 512 348 466 344 456 344 c 0
 432 344 401 349 401 405 c 0
 401 531 461 598 532 656 c 9
 532 656 l 1
 457 656 l 2
 442 656 393 656 383 652 c 0
 370 647 371 650 363 593 c 1
 304 593 l 1
52 278 m 0
 52 305 81 308 92 308 c 2
 905 308 l 2
 915 308 924 308 933 304 c 0
 943 299 950 288 950 277 c 0
 950 266 944 247 910 247 c 2
 90 247 l 1
 56 248 52 268 52 278 c 0
EndSplineSet
EndChar
StartChar: uF268F
Encoding: 992911 992911 146
Width: 1000
Flags: MW
LayerCount: 2
Fore
SplineSet
52 278 m 0
 52 305 81 308 92 308 c 2
 905 308 l 2
 915 308 924 308 933 304 c 0
 943 299 950 288 950 277 c 0
 950 266 944 247 910 247 c 2
 90 247 l 1
 56 248 52 268 52 278 c 0
753 14 m 0
 753 -19 753 -84 757 -113 c 0
 761 -145 788 -158 805 -158 c 0
 812 -158 848 -159 855 -100 c 0
 856 -74 857 -10 857 14 c 0
 857 80 857 144 845 156 c 0
 837 164 826 176 805 176 c 0
 793 176 760 169 757 131 c 0
 753 99 753 66 753 14 c 0
664 7 m 0
 664 37 666 112 705 171 c 24
 729 208 748 219 805 219 c 0
 862 219 881 199 895 187 c 0
 944 145 946 41 946 7 c 0
 946 -29 949 -114 894 -172 c 0
 875 -192 859 -200 805 -200 c 0
 748 -200 724 -188 706 -163 c 0
 673 -118 664 -30 664 7 c 0
422 14 m 0
 422 -19 422 -84 426 -113 c 0
 430 -145 458 -158 475 -158 c 0
 482 -158 517 -159 524 -100 c 0
 525 -74 526 -10 526 14 c 0
 526 80 526 144 514 156 c 0
 506 164 496 176 475 176 c 0
 463 176 429 169 426 131 c 0
 422 99 422 66 422 14 c 0
334 7 m 0
 334 37 336 112 375 171 c 24
 399 208 417 219 474 219 c 0
 531 219 550 199 564 187 c 0
 613 145 615 41 615 7 c 0
 615 -29 618 -114 563 -172 c 0
 544 -192 529 -200 475 -200 c 0
 418 -200 393 -188 375 -163 c 0
 342 -118 334 -30 334 7 c 0
54 88 m 1
 54 136 l 1
 180 140 188 211 214 211 c 0
 232 211 233 194 233 178 c 2
 233 -155 l 1
 233 -155 l 1
 312 -155 l 1
 312 -155 l 1
 312 -203 l 1
 269 -203 l 1
 301 -202 l 1
 225 -200 l 1
 138 -201 l 1
 77 -203 l 1
 66 -203 l 1
 66 -155 l 1
 66 -155 l 1
 145 -155 l 1
 145 -155 l 1
 145 109 l 1
 110 93 90 89 54 88 c 1
324 638 m 1
 324 686 l 1
 495 690 506 761 542 761 c 0
 566 761 568 744 568 728 c 2
 568 395 l 1
 568 395 l 1
 676 395 l 1
 676 395 l 1
 676 347 l 1
 616 347 l 1
 660 348 l 1
 558 350 l 1
 438 349 l 1
 356 347 l 1
 340 347 l 1
 340 395 l 1
 340 395 l 1
 448 395 l 1
 448 395 l 1
 448 659 l 1
 401 643 373 639 324 638 c 1
EndSplineSet
EndChar
StartChar: uF2F39
Encoding: 995129 995129 301
Width: 1000
VWidth: 1000
Flags: MW
LayerCount: 2
Fore
SplineSet
810 466 m 0
 810 439 772 391 735 374 c 1
 722 409 706 430 690 446 c 1
 608 347 l 1
 664 303 698 274 709 265 c 0
 756 223 786 189 798 166 c 0
 805 151 809 137 809 123 c 0
 809 92 773 32 747 3 c 0
 731 -15 717 -26 706 -26 c 0
 697 -25 691 -17 691 -10 c 0
 691 -5 694 3 698 14 c 0
 702 24 704 33 704 39 c 0
 704 61 692 83 668 108 c 0
 659 117 628 149 591 174 c 2
 302 371 l 1
 279 345 281 317 281 282 c 0
 281 253 301 218 345 174 c 0
 391 128 415 90 415 63 c 0
 414 5 335 -26 252 -26 c 0
 224 -26 204 -18 204 -3 c 0
 205 1 215 10 230 19 c 0
 243 27 249 36 249 51 c 0
 249 63 242 83 227 115 c 0
 209 152 198 177 195 186 c 0
 190 204 190 235 190 256 c 0
 190 309 228 341 274 394 c 1
 208 455 l 2
 183 479 169 506 169 533 c 0
 169 549 174 567 183 585 c 0
 204 628 247 683 265 682 c 0
 275 681 282 674 283 666 c 0
 283 661 282 654 280 646 c 0
 278 638 276 633 276 630 c 0
 276 604 290 579 320 548 c 0
 344 523 381 499 403 486 c 2
 577 373 l 1
 657 470 l 1
 618 498 595 533 595 564 c 0
 596 612 650 670 719 678 c 1
 706 653 701 640 701 629 c 0
 701 610 718 587 753 558 c 0
 790 527 810 495 810 466 c 0
EndSplineSet
Colour: ff
EndChar
StartChar: uF2F3A
Encoding: 995130 995130 302
Width: 1000
VWidth: 1000
Flags: MW
LayerCount: 2
Fore
SplineSet
721 211 m 0
 721 149 700 94 658 50 c 0
 616 4 562 -20 499 -20 c 0
 426 -20 367 13 326 75 c 0
 294 123 279 186 279 263 c 0
 279 343 291 417 316 486 c 0
 345 568 392 628 450 666 c 0
 493 693 537 708 581 708 c 0
 607 708 631 702 650 690 c 0
 673 676 685 653 684 626 c 0
 683 568 641 522 559 492 c 0
 499 471 434 460 369 461 c 1
 355 422 347 380 341 340 c 1
 375 397 434 429 505 429 c 0
 564 429 616 408 658 366 c 0
 700 324 721 271 721 211 c 0
614 617 m 0
 615 641 601 651 569 650 c 0
 527 650 491 635 456 604 c 0
 425 577 403 543 385 508 c 1
 429 512 477 520 522 535 c 0
 585 555 615 581 614 617 c 0
601 179 m 4
 601 233 593 278 577 318 c 4
 558 367 531 391 495 390 c 4
 465 390 444 375 429 342 c 4
 416 314 410 281 410 239 c 4
 410 185 419 139 435 98 c 4
 455 47 482 23 518 23 c 4
 574 21 601 71 601 179 c 4
EndSplineSet
Colour: ff
EndChar
StartChar: uF2F3B
Encoding: 995131 995131 303
Width: 1000
VWidth: 1000
Flags: MW
LayerCount: 2
Fore
SplineSet
709 20 m 0
 709 4 698 -7 683 -8 c 2
 540 -8 l 2
 474 -8 415 14 367 57 c 0
 317 101 291 159 291 226 c 0
 291 293 317 350 367 394 c 0
 415 437 474 459 540 459 c 2
 683 459 l 2
 698 458 709 447 709 431 c 0
 709 415 698 404 683 403 c 2
 540 403 l 2
 490 403 448 388 411 358 c 0
 374 328 353 290 346 251 c 1
 683 254 l 2
 698 253 709 242 709 226 c 0
 709 210 698 199 683 198 c 2
 346 201 l 1
 353 162 374 125 411 94 c 0
 448 63 490 48 540 48 c 2
 683 48 l 2
 698 47 709 36 709 20 c 0
EndSplineSet
Colour: ff
EndChar
StartChar: uF2F3C
Encoding: 995132 995132 304
Width: 1000
VWidth: 1000
Flags: MW
LayerCount: 2
Fore
SplineSet
802 151 m 0
 802 144 796 128 787 105 c 0
 755 24 712 -19 658 -20 c 0
 632 -20 569 -11 552 6 c 0
 535 23 526 48 526 74 c 0
 526 87 532 108 542 135 c 0
 585 255 606 333 606 373 c 0
 606 420 592 440 558 439 c 0
 515 439 479 422 446 387 c 0
 416 356 396 319 384 273 c 2
 326 42 l 2
 321 22 318 7 313 1 c 0
 305 -12 276 -20 259 -20 c 0
 237 -19 209 -6 208 16 c 0
 208 23 209 33 212 43 c 2
 333 511 l 1
 264 484 l 2
 258 482 253 481 249 481 c 0
 237 482 227 492 225 506 c 0
 226 516 235 523 248 529 c 2
 345 563 l 1
 368 659 l 2
 370 666 370 670 370 674 c 0
 371 682 363 685 340 686 c 0
 314 687 296 694 294 706 c 0
 294 716 299 725 308 732 c 0
 312 734 334 737 375 740 c 0
 435 745 464 747 476 746 c 0
 489 745 496 737 488 735 c 1
 487 720 495 720 492 709 c 2
 464 607 l 1
 637 672 l 2
 644 674 650 675 654 675 c 0
 666 674 676 664 676 650 c 0
 675 641 666 633 653 627 c 2
 452 556 l 1
 412 398 l 1
 458 453 506 476 560 476 c 0
 597 476 667 466 689 446 c 0
 712 425 724 393 724 356 c 0
 724 318 702 237 657 115 c 0
 645 83 640 60 640 44 c 0
 640 24 645 16 660 17 c 0
 686 17 707 30 725 60 c 0
 735 75 745 103 758 142 c 0
 763 157 771 167 781 169 c 0
 791 169 801 162 802 151 c 0
EndSplineSet
Colour: ff
EndChar
StartChar: uF2F3D
Encoding: 995133 995133 305
Width: 1000
VWidth: 1000
Flags: MW
LayerCount: 2
Fore
SplineSet
809 151 m 0
 809 141 804 121 795 95 c 0
 771 21 735 -20 691 -20 c 0
 665 -20 629 -11 612 4 c 0
 595 19 577 40 578 58 c 1
 546 8 498 -20 442 -20 c 0
 397 -20 362 -8 343 14 c 1
 300 -164 l 2
 291 -202 253 -223 231 -224 c 0
 209 -224 188 -210 189 -189 c 0
 189 -185 191 -178 193 -169 c 2
 343 433 l 2
 350 460 375 477 400 476 c 0
 422 475 450 462 450 442 c 0
 450 438 445 416 436 379 c 2
 388 187 l 2
 379 152 373 124 374 104 c 0
 373 44 396 17 446 17 c 0
 489 17 524 40 559 90 c 0
 568 103 575 114 578 127 c 2
 652 423 l 2
 659 450 684 465 708 466 c 0
 730 466 756 452 757 431 c 0
 757 428 751 402 739 353 c 0
 729 320 728 320 717 266 c 0
 706 231 697 197 687 163 c 0
 676 122 669 88 669 59 c 0
 669 29 677 17 695 17 c 0
 713 16 728 30 742 63 c 0
 749 77 758 102 768 141 c 0
 772 156 779 167 789 169 c 0
 799 169 808 162 809 151 c 0
EndSplineSet
Colour: ff
EndChar
StartChar: uF2F43
Encoding: 995139 995139 308
Width: 1000
VWidth: 1000
Flags: MW
LayerCount: 2
Fore
SplineSet
609 -27 m 2
 609 -77 585 -120 540 -153 c 0
 499 -183 451 -199 401 -199 c 0
 371 -199 345 -192 325 -178 c 0
 302 -162 291 -136 291 -105 c 0
 291 -59 314 -17 358 17 c 0
 398 49 444 66 490 67 c 0
 530 67 561 58 571 43 c 1
 568 766 l 1
 607 766 l 1
 609 -27 l 2
EndSplineSet
Colour: ff
EndChar
StartChar: uF2F44
Encoding: 995140 995140 309
Width: 1000
VWidth: 940
Flags: MW
LayerCount: 2
Fore
SplineSet
140 0 m 0
 140 33 153 60 179 82 c 0
 205 104 239 115 280 115 c 0
 301 115 320 112 337 105 c 1
 338 107 l 1
 338 630 l 1
 860 730 l 1
 860 160 l 2
 860 113 847 76 820 50 c 0
 793 24 757 10 710 10 c 0
 678 10 652 19 631 36 c 0
 610 53 600 74 600 100 c 0
 600 133 613 160 639 182 c 0
 665 204 699 215 740 215 c 0
 761 215 780 212 797 205 c 1
 798 207 l 1
 798 388 l 1
 400 312 l 1
 400 60 l 2
 400 13 387 -24 360 -50 c 0
 333 -76 297 -90 250 -90 c 0
 218 -90 192 -81 171 -64 c 0
 150 -47 140 -26 140 0 c 0
400 447 m 1
 798 523 l 1
 798 583 l 1
 400 507 l 1
 400 447 l 1
EndSplineSet
Colour: ff
EndChar
StartChar: uF2F46
Encoding: 995142 995142 149
Width: 1000
Flags: MW
LayerCount: 2
Fore
SplineSet
160 70 m 0
 160 145 226 196 324 196 c 0
 353 196 375 190 401 174 c 9
 401 174 l 17
 418 185 432 195 438 195 c 0
 447 195 446 187 446 181 c 2
 446 112 l 2
 446 100 446 96 434 96 c 0
 428 96 426 96 424 98 c 0
 420 102 422 109 414 125 c 0
 406 142 383 172 337 172 c 0
 287 172 262 151 252 139 c 1
 244 129 236 111 236 71 c 0
 236 47 238 25 248 8 c 0
 260 -12 287 -32 339 -32 c 0
 376 -32 417 -13 422 28 c 0
 423 34 424 39 434 39 c 0
 440 39 446 38 446 28 c 0
 446 -4 413 -56 326 -56 c 0
 222 -56 160 -2 160 70 c 0
32 75 m 0
 32 202 118 330 320 330 c 0
 492 330 606 228 606 74 c 0
 606 -53 520 -180 318 -180 c 0
 146 -180 32 -78 32 75 c 0
62 75 m 0
 62 -51 150 -150 318 -150 c 0
 476 -150 576 -60 576 75 c 0
 576 185 504 300 319 300 c 0
 158 300 62 207 62 75 c 0
EndSplineSet
EndChar
StartChar: uF2F47
Encoding: 995143 995143 150
Width: 1000
Flags: MW
LayerCount: 2
Fore
SplineSet
520 520 m 0
 520 595 586 646 684 646 c 0
 713 646 735 640 761 624 c 9
 761 624 l 17
 778 635 792 645 798 645 c 0
 807 645 806 637 806 631 c 2
 806 562 l 2
 806 550 806 546 794 546 c 0
 788 546 786 546 784 548 c 0
 780 552 782 559 774 575 c 0
 766 592 743 622 697 622 c 0
 647 622 622 601 612 589 c 1
 604 579 596 561 596 521 c 0
 596 497 598 475 608 458 c 0
 620 438 647 418 699 418 c 0
 736 418 777 437 782 478 c 0
 783 484 784 489 794 489 c 0
 800 489 806 488 806 478 c 0
 806 446 773 394 686 394 c 0
 582 394 520 448 520 520 c 0
392 525 m 0
 392 652 478 780 680 780 c 0
 852 780 966 678 966 524 c 0
 966 397 880 270 678 270 c 0
 506 270 392 372 392 525 c 0
422 525 m 0
 422 399 510 300 678 300 c 0
 836 300 936 390 936 525 c 0
 936 635 864 750 679 750 c 0
 518 750 422 657 422 525 c 0
EndSplineSet
EndChar
StartChar: uF2F48
Encoding: 995144 995144 151
Width: 1000
Flags: MW
LayerCount: 2
Fore
SplineSet
137 -50 m 1
 137 -26 l 1
 137 -26 l 1
 192 -26 l 1
 192 -26 l 1
 192 151 l 1
 192 166 l 1
 137 166 l 1
 137 166 l 1
 137 190 l 1
 296 190 l 2
 408 190 438 151 438 123 c 0
 438 91 400 75 376 69 c 1
 378 67 402 58 410 32 c 0
 417 8 416 -37 450 -37 c 0
 466 -37 476 -23 478 -10 c 0
 479 -5 479 5 490 5 c 0
 496 5 502 3 502 -7 c 0
 502 -21 491 -56 446 -56 c 2
 438 -56 l 2
 368 -56 340 -44 340 2 c 2
 340 20 l 2
 340 46 326 61 298 61 c 2
 260 61 l 1
 260 -26 l 1
 260 -26 l 1
 314 -26 l 1
 314 -26 l 1
 314 -50 l 1
 270 -48 246 -48 228 -48 c 0
 198 -48 167 -49 137 -50 c 1
260 79 m 1
 289 79 l 2
 313 79 348 79 358 99 c 0
 362 107 362 115 362 125 c 0
 362 162 340 166 292 166 c 2
 260 166 l 1
 260 166 l 1
 260 79 l 1
32 75 m 0
 32 202 118 330 320 330 c 0
 492 330 606 228 606 74 c 0
 606 -53 520 -180 318 -180 c 0
 146 -180 32 -78 32 75 c 0
62 75 m 0
 62 -51 150 -150 318 -150 c 0
 476 -150 576 -60 576 75 c 0
 576 185 504 300 319 300 c 0
 158 300 62 207 62 75 c 0
EndSplineSet
EndChar
StartChar: uF2F49
Encoding: 995145 995145 152
Width: 1000
Flags: MW
LayerCount: 2
Fore
SplineSet
497 400 m 1
 497 424 l 1
 497 424 l 1
 552 424 l 1
 552 424 l 1
 552 601 l 1
 552 616 l 1
 497 616 l 1
 497 616 l 1
 497 640 l 1
 656 640 l 2
 768 640 798 601 798 573 c 0
 798 541 760 525 736 519 c 1
 738 517 762 508 770 482 c 0
 777 458 776 413 810 413 c 0
 826 413 836 427 838 440 c 0
 839 445 839 455 850 455 c 0
 856 455 862 453 862 443 c 0
 862 429 851 394 806 394 c 2
 798 394 l 2
 728 394 700 406 700 452 c 2
 700 470 l 2
 700 496 686 511 658 511 c 2
 620 511 l 1
 620 424 l 1
 620 424 l 1
 674 424 l 1
 674 424 l 1
 674 400 l 1
 630 402 606 402 588 402 c 0
 558 402 527 401 497 400 c 1
620 529 m 1
 649 529 l 2
 673 529 708 529 718 549 c 0
 722 557 722 565 722 575 c 0
 722 612 700 616 652 616 c 2
 620 616 l 1
 620 616 l 1
 620 529 l 1
392 525 m 0
 392 652 478 780 680 780 c 0
 852 780 966 678 966 524 c 0
 966 397 880 270 678 270 c 0
 506 270 392 372 392 525 c 0
422 525 m 0
 422 399 510 300 678 300 c 0
 836 300 936 390 936 525 c 0
 936 635 864 750 679 750 c 0
 518 750 422 657 422 525 c 0
EndSplineSet
EndChar
